<?xml version="1.0" encoding="UTF-8" standalone="no"?>
<!-- Generator: Adobe Illustrator 14.0.0, SVG Export Plug-In . SVG Version: 6.00 Build 43363)  -->

<svg version="1.1" id="Layer_1" x="0px" y="0px" width="182px" height="41px" viewBox="0 0 182 41" enable-background="new 0 0 182 41" xml:space="preserve"
   xmlns="http://www.w3.org/2000/svg"
   xmlns:svg="http://www.w3.org/2000/svg">
   <defs id="defs65" />
   <g id="g60">


      <path fill-rule="evenodd" clip-rule="evenodd" fill="#00529C" d="M11.377,36.639L9.02,35.617l9.77-1.191   c0.17,0.283,0.341,0.539,0.54,0.795L11.377,36.639L11.377,36.639z M37.59,36.639l2.357-1.078l-9.713-1.164   c-0.085,0.313-0.341,0.568-0.511,0.824L37.59,36.639L37.59,36.639z M36.171,36.811l-2.954,0.994l-4.203-1.277l-0.37-0.113   c0.142-0.115,0.256-0.229,0.37-0.369c0.17-0.143,0.312-0.342,0.483-0.484L36.171,36.811L36.171,36.811z M43.981,34.057l-2.698,1.25   l-10.792-1.25c0.085-0.254,0.171-0.51,0.256-0.768L43.981,34.057L43.981,34.057z M44.946,33.688l3.521-2.244H29.383   c0,0.797-0.114,1.479-0.369,2.074c-0.739,1.902-2.584,2.811-4.431,2.781c-1.817-0.057-3.663-0.992-4.487-2.727   c-0.284-0.625-0.454-1.307-0.454-2.129H0.5l3.494,2.244l14.626-0.766c0.283,1.049,0.794,1.959,1.476,2.639   c1.165,1.223,2.84,1.904,4.487,1.904c1.619,0.029,3.267-0.566,4.431-1.875c0.625-0.682,1.107-1.563,1.391-2.613L44.946,33.688   L44.946,33.688z M29.014,39.479l0.369,0.684l-0.369,0.172l-0.994,0.453l-1.136-2.244c-0.709,0.256-1.505,0.398-2.301,0.426   c-0.852,0.029-1.732-0.086-2.499-0.342l-0.966,2.16c-0.313,0.027-0.739,0-1.022-0.197c-0.142-0.086-0.284-0.229-0.34-0.428   l0.34-0.568l0.824-1.479c-0.256-0.168-0.483-0.281-0.71-0.51l0.682-0.822c1.164,0.711,2.442,1.107,3.691,1.107   c1.25,0.029,2.499-0.371,3.664-1.193l0.768,0.227l0.312,0.115c-0.113,0.084-0.199,0.17-0.312,0.256   c-0.228,0.225-0.426,0.453-0.795,0.652L29.014,39.479L29.014,39.479z M29.014,27.865c0.738,0.881,1.277,1.961,1.562,3.209h-1.221   c-0.085-0.371-0.198-0.738-0.34-1.078c-0.824-2.158-2.5-3.693-4.431-4.973c-0.255-0.141-0.482-0.311-0.738-0.453   c0.256,0.086,0.483,0.172,0.738,0.258C26.344,25.535,27.906,26.502,29.014,27.865L29.014,27.865z M25.719,35.873   c0.313-0.057,0.795-0.227,1.165-0.51l-1.932-3.834l2.017-0.967l-1.704-1.477L24.583,29.4l-2.925,1.332l0.852,1.932l1.392-0.623   L25.719,35.873L25.719,35.873z M20.437,36.414c-0.114-0.086-0.228-0.199-0.341-0.285c-0.227-0.197-0.426-0.396-0.568-0.596   l-6.669,1.26l2.839,0.953L20.437,36.414L20.437,36.414z M18.62,34.057c-0.114-0.254-0.199-0.51-0.285-0.768L4.987,34.057   l2.698,1.307L18.62,34.057L18.62,34.057z" id="path58" />
      <path d="M 43.130013,17.13605 V 14.650517 H 33.323929 V 9.9709788 h 8.817054 V 7.5113598 H 33.323929 V 3.2529149 h 9.292134 V 0.79545537 H 26.791578 V 17.13605 Z" fill="#00529C" id="path369" style="stroke-width:2.15945" />
      <path d="M 52.690779,17.13605 V 3.2529149 h 3.839511 c 1.168265,0 2.250152,0.088538 3.234863,0.7471714 0.716939,0.5074719 1.166106,1.2352081 1.166106,2.1357008 0,0.7514903 -0.265613,1.5267345 -1.254644,2.1529764 -1.291354,0.8400279 -3.535027,0.9566385 -4.947311,0.7838821 l -0.805476,-0.095016 6.506437,8.1584204 h 7.549454 L 61.803678,10.325129 C 62.911479,10.2042 64.68655,9.7658306 65.761959,9.0726456 67.048994,8.2002259 67.709787,6.9131908 67.709787,5.708215 67.709787,4.3628747 66.98421,2.8966049 65.343025,1.933488 63.393037,0.82568773 60.72611,0.79545537 58.266491,0.79545537 H 46.128196 V 17.13605 Z" fill="#00529C" id="path371" style="stroke-width:2.15945" />
      <path d="m 105.44994,17.13605 v -6.897299 h 8.81489 V 7.7791322 h -8.81489 V 3.2529149 h 9.53399 V 0.79545537 H 98.921903 V 17.13605 Z" fill="#00529C" id="path373" style="stroke-width:2.15945" />
      <path d="m 123.9191,0.79480753 h -6.5669 V 17.135402 h 16.19375 V 14.64987 h -9.62685 z" fill="#00529C" id="path375" style="stroke-width:2.15945" />
      <path d="m 160.52445,3.2537787 h 7.04415 V 17.136914 h 6.5669 V 3.2537787 h 7.03982 V 0.79415969 h -20.65087 z" fill="#00529C" id="path377" style="stroke-width:2.15945" />
      <path d="m 146.6167,0.31799991 c -3.05779,0 -7.34647,0.69102549 -10.22502,2.75330489 -2.28254,1.6195911 -3.35795,3.9345266 -3.35795,5.9061089 0,1.9521473 1.07541,4.2627633 3.35795,5.8801953 2.87855,2.034207 7.16723,2.727391 10.22502,2.727391 3.05563,0 7.37022,-0.693184 10.24661,-2.727391 2.28038,-1.617432 3.33204,-3.928048 3.33204,-5.8801953 0,-1.9715823 -1.05166,-4.2865178 -3.33204,-5.9061089 -2.87639,-2.0622794 -7.19098,-2.72523198 -10.24661,-2.75330489 m 0,15.28894009 c -1.62175,0 -3.54151,-0.360629 -4.95163,-2.131382 -1.16827,-1.436037 -1.37773,-3.09018 -1.37773,-4.4981443 0,-1.4662698 0.20946,-3.0880204 1.37773,-4.5262173 1.41012,-1.8009853 3.32988,-2.1572953 4.95163,-2.1572953 1.64334,0 3.53934,0.35631 4.97106,2.1572953 1.17043,1.4381969 1.38205,3.0599475 1.38205,4.5262173 0,1.4079643 -0.21162,3.0621073 -1.38205,4.4981443 -1.43172,1.770753 -3.32772,2.131382 -4.97106,2.131382" fill="#00529C" id="path379" style="stroke-width:2.15945" />
      <path d="m 83.075172,0.31799991 c -3.055629,0 -7.342146,0.69102549 -10.21854,2.75330489 -2.284703,1.6195911 -3.364431,3.9345266 -3.364431,5.9061089 0,1.9521473 1.079728,4.2627633 3.364431,5.8801953 2.876394,2.034207 7.162911,2.727391 10.21854,2.727391 3.053469,0 7.374538,-0.693184 10.255251,-2.727391 2.276065,-1.617432 3.32772,-3.928048 3.32772,-5.8801953 0,-1.9715823 -1.051655,-4.2865178 -3.32772,-5.9061089 C 90.44971,1.0090254 86.128641,0.34607282 83.075172,0.31799991 m 0,15.28894009 c -1.619591,0 -3.539347,-0.360629 -4.945152,-2.131382 -1.168265,-1.436037 -1.382051,-3.09018 -1.382051,-4.4981443 0,-1.4662698 0.213786,-3.0880204 1.382051,-4.5262173 1.405805,-1.8009853 3.325561,-2.1572953 4.945152,-2.1572953 1.643345,0 3.539346,0.35631 4.975384,2.1572953 1.170424,1.4381969 1.379891,3.0599475 1.379891,4.5262173 0,1.4079643 -0.209467,3.0621073 -1.379891,4.4981443 -1.436038,1.770753 -3.332039,2.131382 -4.975384,2.131382" fill="#00529C" id="path381" style="stroke-width:2.15945" />
      <path d="m 3.7672551,17.13605 2.578389,-4.746482 H 15.43263 l 2.785697,4.746482 h 7.342146 L 15.611865,0.79545537 H 9.5243616 L 0.5,17.13605 Z M 7.5441416,10.178286 10.632162,4.4838042 h 0.09286 l 3.353634,5.6944818 z" fill="#00529C" id="path383" style="stroke-width:2.15945" />
      <path d="m 100.84305,28.219188 -1.17372,4.321043 c -0.142585,0.173885 -0.368636,0.318209 -0.57382,0.426018 -0.312993,0.170407 -0.625986,0.262567 -0.916374,0.262567 -0.285172,0 -0.540783,-0.116503 -0.659024,-0.290388 -0.08347,-0.144325 -0.168669,-0.372114 -0.05391,-0.775528 l 1.05896,-3.943712 h -1.08852 l -1.027661,3.804604 c -0.08694,0.342554 -0.229528,0.942457 0.08347,1.401514 0.173885,0.259088 0.545999,0.545999 1.312832,0.545999 0.31821,0 0.63468,-0.05564 1.038094,-0.229529 0.252133,-0.149541 0.537304,-0.31647 0.768571,-0.490355 l -0.170407,0.605119 h 0.972019 l 1.52149,-5.637352 z" fill="#00529C" id="path385" style="stroke-width:1.73885" />
      <path d="m 107.80906,28.871953 c -0.25909,-0.340815 -0.57556,-0.512961 -0.63294,-0.542522 -0.36516,-0.19649 -0.76857,-0.229528 -1.11808,-0.229528 -0.37038,0 -0.82943,0.03304 -1.34065,0.344293 -0.37386,0.260827 -0.82944,0.657285 -0.9981,1.318048 -0.15302,0.486878 -0.0904,0.855514 0.0835,1.086781 0.19649,0.260828 0.54078,0.398197 0.83117,0.485139 l 0.54078,0.175624 c 0.28344,0.05912 0.57209,0.05912 0.74249,0.281694 0.087,0.118242 0.17737,0.262566 0.11651,0.545999 -0.087,0.25735 -0.25388,0.427757 -0.40168,0.54426 -0.19823,0.173885 -0.54426,0.319948 -1.02766,0.319948 -0.31473,0 -0.57382,-0.06434 -0.83117,-0.206923 -0.22605,-0.170407 -0.39994,-0.314732 -0.48862,-0.45384 l -0.71814,0.660763 c 0.51818,0.679891 1.15286,0.770311 1.7771,0.770311 0.42776,0 1.28849,-0.05564 2.0049,-0.601642 0.39819,-0.340815 0.68684,-0.775527 0.80335,-1.145902 0.0574,-0.292127 0.11476,-0.714668 -0.0278,-0.977234 -0.20344,-0.398197 -0.65902,-0.566865 -0.91985,-0.629464 l -0.39993,-0.113025 c -0.51122,-0.114764 -0.74249,-0.172146 -0.85899,-0.316471 -0.11129,-0.08173 -0.19997,-0.253872 -0.11129,-0.598164 0.0522,-0.140847 0.17215,-0.373853 0.39472,-0.545999 0.28691,-0.172146 0.55121,-0.199968 0.74944,-0.199968 0.25561,0 0.48688,0.06086 0.68685,0.199968 0.17214,0.114764 0.31299,0.259089 0.42949,0.405152 z" fill="#00529C" id="path387" style="stroke-width:1.73885" />
      <path d="m 113.67959,28.871953 c -0.23126,-0.340815 -0.54426,-0.512961 -0.62772,-0.542522 -0.34255,-0.19649 -0.74945,-0.229528 -1.08852,-0.229528 -0.39472,0 -0.82943,0.03304 -1.34587,0.344293 -0.37385,0.260827 -0.83117,0.657285 -1.03288,1.318048 -0.10607,0.486878 -0.0539,0.855514 0.1165,1.086781 0.20171,0.260828 0.5773,0.398197 0.82944,0.485139 l 0.51296,0.175624 c 0.28691,0.05912 0.57729,0.05912 0.77552,0.281694 0.087,0.118242 0.17215,0.262566 0.087,0.545999 -0.087,0.25735 -0.25561,0.427757 -0.37386,0.54426 -0.2017,0.173885 -0.54078,0.319948 -1.0294,0.319948 -0.31473,0 -0.57034,-0.06434 -0.85899,-0.206923 -0.22953,-0.170407 -0.37385,-0.314732 -0.48688,-0.45384 l -0.7164,0.660763 c 0.55121,0.679891 1.1772,0.770311 1.80319,0.770311 0.43471,0 1.28848,-0.05564 2.00663,-0.601642 0.39993,-0.340815 0.68684,-0.775527 0.77205,-1.145902 0.0869,-0.292127 0.11302,-0.714668 -0.0278,-0.977234 -0.17215,-0.398197 -0.63121,-0.566865 -0.91464,-0.629464 l -0.40341,-0.113025 c -0.49036,-0.114764 -0.71293,-0.172146 -0.83291,-0.316471 -0.10955,-0.08173 -0.19475,-0.253872 -0.10955,-0.598164 0.0556,-0.140847 0.14085,-0.373853 0.39994,-0.545999 0.25909,-0.172146 0.54252,-0.199968 0.71293,-0.199968 0.29038,0 0.51643,0.06086 0.71814,0.199968 0.17389,0.114764 0.31299,0.259089 0.4295,0.405152 z" fill="#00529C" id="path389" style="stroke-width:1.73885" />
      <path d="m 115.7803,28.219188 -0.20519,0.740751 h 0.65903 l -1.31283,4.896601 h 1.0833 l 1.51802,-5.637352 z m 0.68684,-1.860569 c -0.0922,0.398196 0.14259,0.712928 0.51818,0.712928 0.39994,0 0.76683,-0.314732 0.8816,-0.712928 0.11128,-0.375592 -0.11477,-0.690324 -0.51644,-0.690324 -0.36516,0 -0.76857,0.314732 -0.88334,0.690324" fill="#00529C" id="path391" style="stroke-width:1.73885" />
      <path d="m 126.4118,33.856193 1.20329,-4.437546 c 0.37907,-0.316471 0.94941,-0.57382 1.46237,-0.57382 0.37211,0 0.57556,0.140847 0.65728,0.312993 0.17389,0.260827 0.0887,0.686845 0.0278,0.86073 l -1.0294,3.837643 h 1.09026 l 1.02766,-3.7507 c 0.11824,-0.460795 0.1704,-1.003317 -0.0852,-1.460634 -0.22953,-0.370375 -0.65554,-0.54426 -1.26066,-0.54426 -0.3669,0 -0.9981,0.0852 -1.68843,0.54426 l 0.11651,-0.426018 h -1.75103 l -0.19649,0.74075 h 0.65729 l -1.31457,4.896602 z" fill="#00529C" id="path393" style="stroke-width:1.73885" />
      <path d="m 90.606617,25.727764 -2.203123,8.129124 h 1.229367 l 0.95289,-3.575076 h 0.824215 l 1.145902,3.575076 h 1.484978 l -1.31457,-3.637674 c 0.603381,-0.0626 1.404991,-0.344293 1.888391,-0.714668 0.540782,-0.401674 0.949412,-0.973756 1.085042,-1.573659 0.173885,-0.577298 0.09216,-1.173724 -0.248655,-1.57192 -0.460795,-0.57556 -1.377169,-0.631203 -2.037932,-0.631203 h -0.770311 z m 2.036194,3.62898 h -1.803188 l 0.718146,-2.688262 h 1.631041 c 0.173885,0 0.712928,0 0.999839,0.28691 0.170407,0.173885 0.314732,0.459057 0.19649,0.916374 -0.113025,0.429496 -0.344293,0.773788 -0.683368,1.05896 -0.372114,0.285171 -0.773789,0.403413 -1.05896,0.426018" fill="#00529C" id="path395" style="stroke-width:1.73885" />
      <path d="m 121.113,30.564376 c -1.14242,0.114764 -2.09009,0.572081 -2.40309,1.747544 -0.0296,0.137369 -0.0591,0.253872 -0.0591,0.368636 v 0.199968 c 0.0296,0.631202 0.45732,1.090259 1.40325,1.090259 0.34082,0 0.68337,-0.05564 1.05896,-0.206923 0.033,0 0.0591,-0.02087 0.11303,-0.05043 0.37385,-0.172146 0.65555,-0.460795 0.74597,-0.545999 h 0.0574 l -0.19823,0.688585 h 0.97549 l 0.99984,-3.635936 c 0.14433,-0.575559 0.28344,-1.147641 -0.0313,-1.575398 -0.26082,-0.401674 -0.91463,-0.54426 -1.42759,-0.54426 -0.49036,0 -0.91812,0.05912 -1.23459,0.142586 -0.9981,0.255611 -1.37369,0.858992 -1.40325,1.401513 l 1.00506,0.05912 c 0.08,-0.285172 0.19996,-0.486878 0.39819,-0.631203 0.23127,-0.166929 0.57382,-0.227789 1.00332,-0.227789 0.23127,0 0.51296,0.02782 0.62773,0.227789 0.17562,0.201707 0.1165,0.488617 0.0626,0.747706 l -0.20518,0.714667 h -0.79987 c -0.23301,0 -0.48514,0 -0.68859,0.02956 m 0,2.573498 c -0.17214,0.06434 -0.34429,0.09042 -0.51643,0.09042 -0.22606,0 -0.51297,-0.02608 -0.68163,-0.260828 -0.14433,-0.201706 -0.17563,-0.401674 -0.0887,-0.686845 0.0574,-0.226051 0.17041,-0.457318 0.45558,-0.685107 0.17041,-0.116503 0.40168,-0.260828 0.83117,-0.312993 0.14259,-0.03478 0.31647,-0.06086 0.51818,-0.06086 h 0.80335 l -0.31821,1.198068 c -0.17215,0.233005 -0.34429,0.373852 -0.54774,0.519916 -0.16693,0.09042 -0.31299,0.172146 -0.45558,0.198229" fill="#00529C" id="path397" style="stroke-width:1.73885" />
      <path d="m 147.25853,28.219188 -0.19823,0.740751 h 0.65902 l -1.32326,4.896601 h 1.09026 l 1.51627,-5.637352 z m 1.00505,-1.860569 c -0.0887,0.398196 0.14085,0.712928 0.51644,0.712928 0.36864,0 0.77031,-0.314732 0.88334,-0.712928 0.1165,-0.375592 -0.11303,-0.690324 -0.5147,-0.690324 -0.36864,0 -0.77727,0.314732 -0.88508,0.690324" fill="#00529C" id="path399" style="stroke-width:1.73885" />
      <path d="m 151.40899,28.219188 -1.51454,5.637352 h 1.09026 l 0.85899,-3.237738 c 0.14085,-0.370376 0.2817,-0.742489 0.48514,-1.027661 0.34255,-0.547738 0.73901,-0.631202 0.97202,-0.631202 0.14432,0 0.31473,0.02608 0.42949,0.142585 0.08,0.08694 0.11477,0.253872 0.11477,0.459057 l 0.97375,-0.286911 c 0.19649,-0.570342 0,-0.888552 -0.34081,-1.055482 -0.1791,-0.0852 -0.37733,-0.118241 -0.5773,-0.118241 -0.62946,0 -1.25371,0.342553 -1.68842,0.942456 l 0.22605,-0.824215 z" fill="#00529C" id="path401" style="stroke-width:1.73885" />
      <path d="m 157.42628,25.613 -1.80145,6.699789 c -0.13911,0.512961 -0.40167,1.544099 0.89029,1.544099 h 0.62773 l 0.19996,-0.744228 h -0.31125 c -0.54426,0 -0.40341,-0.460795 -0.37733,-0.572081 L 158.51654,25.613 Z" fill="#00529C" id="path403" style="stroke-width:1.73885" />
      <path d="m 160.36981,28.219188 -0.19128,0.740751 h 0.66076 l -1.35282,4.896601 h 1.11634 l 1.51976,-5.637352 z m 1.00505,-1.860569 c -0.0887,0.398196 0.14433,0.712928 0.51644,0.712928 0.40341,0 0.77379,-0.314732 0.88681,-0.712928 0.087,-0.375592 -0.14432,-0.690324 -0.51122,-0.690324 -0.40515,0 -0.77553,0.314732 -0.89203,0.690324" fill="#00529C" id="path405" style="stroke-width:1.73885" />
      <path d="m 164.37264,33.856193 1.17198,-4.437546 c 0.3982,-0.316471 0.97376,-0.57382 1.48672,-0.57382 0.37211,0 0.5773,0.140847 0.65902,0.312993 0.19997,0.260827 0.0591,0.686845 0.0296,0.86073 l -1.02766,3.837643 h 1.08505 l 1.02766,-3.7507 c 0.1165,-0.460795 0.17388,-1.003317 -0.0852,-1.460634 -0.22257,-0.370375 -0.65902,-0.54426 -1.25719,-0.54426 -0.39993,0 -0.97549,0.0852 -1.68842,0.54426 l 0.11477,-0.426018 h -1.74581 l -0.20171,0.74075 h 0.65555 l -1.31283,4.896602 z" fill="#00529C" id="path407" style="stroke-width:1.73885" />
      <path d="m 181.17532,28.871953 c -0.22431,-0.340815 -0.50948,-0.512961 -0.60164,-0.542522 -0.37212,-0.19649 -0.73727,-0.229528 -1.08504,-0.229528 -0.40516,0 -0.83117,0.03304 -1.3424,0.344293 -0.40341,0.260827 -0.86073,0.657285 -1.03113,1.318048 -0.14955,0.486878 -0.0591,0.855514 0.10954,1.086781 0.17215,0.260828 0.546,0.398197 0.80509,0.485139 l 0.54426,0.175624 c 0.28169,0.05912 0.57556,0.05912 0.73727,0.281694 0.12172,0.118242 0.17737,0.262566 0.12172,0.545999 -0.0835,0.25735 -0.25387,0.427757 -0.40341,0.54426 -0.17389,0.173885 -0.51644,0.319948 -1.0294,0.319948 -0.32169,0 -0.54774,-0.06434 -0.83291,-0.206923 -0.22779,-0.170407 -0.39472,-0.314732 -0.4834,-0.45384 l -0.71641,0.660763 c 0.5147,0.679891 1.14765,0.770311 1.77537,0.770311 0.45906,0 1.28675,-0.05564 2.00316,-0.601642 0.40341,-0.340815 0.68336,-0.775527 0.80161,-1.145902 0.0869,-0.292127 0.11824,-0.714668 -0.0226,-0.977234 -0.17736,-0.398197 -0.66598,-0.566865 -0.91811,-0.629464 l -0.40515,-0.113025 c -0.47993,-0.114764 -0.71467,-0.172146 -0.85726,-0.316471 -0.0887,-0.08173 -0.19823,-0.253872 -0.11476,-0.598164 0.0574,-0.140847 0.13737,-0.373853 0.40341,-0.545999 0.27996,-0.172146 0.56861,-0.199968 0.74249,-0.199968 0.28691,0 0.4834,0.06086 0.71119,0.199968 0.14606,0.114764 0.28691,0.259089 0.40341,0.405152 z" fill="#00529C" id="path409" style="stroke-width:1.73885" />
      <path d="m 137.59904,33.856193 h 1.22937 l 1.23111,-1.977073 h 3.11949 l 0.14259,1.977073 h 1.40499 l -0.77205,-8.129125 h -1.00158 z m 3.0343,-2.921269 2.20312,-3.46205 h 0.0243 l 0.2643,3.46205 z" fill="#00529C" id="path411" style="stroke-width:1.73885" />
      <path d="m 171.5946,31.281825 h 3.4012 l 0.0887,-0.373853 c 0.22779,-0.751183 0.45384,-1.518016 0.0591,-2.14748 -0.34603,-0.540782 -1.03114,-0.659024 -1.5215,-0.659024 -0.72336,0 -1.4189,0.25735 -1.97359,0.744228 -0.74597,0.659024 -1.05548,1.544099 -1.22763,2.290066 -0.17215,0.601642 -0.34603,1.516277 0.11129,2.17704 0.42949,0.568604 1.20676,0.659024 1.7458,0.659024 0.43993,0 0.84508,-0.0626 1.26415,-0.206923 0.22605,-0.08173 0.51122,-0.19649 0.76857,-0.340815 l -0.16693,-0.659024 c -0.26257,0.116503 -0.4608,0.201707 -0.74771,0.264305 -0.26952,0.04695 -0.51991,0.107809 -0.80508,0.107809 -0.42602,0 -0.79988,-0.142586 -0.99637,-0.396458 -0.31647,-0.373852 -0.17388,-0.949412 -0.0852,-1.229367 z m 0.16867,-0.747705 0.0574,-0.252134 c 0.11825,-0.292127 0.25735,-0.749444 0.62773,-1.065915 0.23996,-0.236483 0.61207,-0.370375 0.94767,-0.370375 0.28691,0 0.57035,0.0852 0.71641,0.25735 0.25387,0.346031 0.13911,0.83117 0.0313,1.203284 l -0.0626,0.22779 z" fill="#00529C" id="path413" style="stroke-width:1.73885" />
   </g>
</svg>
