<?xml version="1.0" encoding="utf-8"?>
<svg xmlns="http://www.w3.org/2000/svg" xml:space="preserve" id="Layer_1" x="0" y="0" version="1.1" viewBox="0 0 250.25 109.82">
  <style>
    .st1{fill-rule:evenodd;clip-rule:evenodd}.st1,.st2{fill:#fff}
  </style>
  <switch>
    <g>
      <path fill="#c10a27" d="M0 0h250.25v109.82H0z"/>
      <path d="M201.44 74.39c0 .9-.73 1.63-1.63 1.63-.9 0-1.63-.73-1.63-1.63 0-.9.73-1.63 1.63-1.63.9-.01 1.63.73 1.63 1.63zm0-23.51c0 .9-.73 1.64-1.63 1.64-.9 0-1.63-.73-1.63-1.64 0-.9.73-1.63 1.63-1.63.9-.01 1.63.73 1.63 1.63zm-7.51 21.66c1.02 0 1.85.83 1.85 1.85s-.83 1.85-1.85 1.85-1.85-.83-1.85-1.85.83-1.85 1.85-1.85zm0-5.66c.9 0 1.63.73 1.63 1.63 0 .9-.73 1.63-1.63 1.63-.9 0-1.63-.73-1.63-1.63 0-.9.73-1.63 1.63-1.63zm23.51 0c.9 0 1.63.73 1.63 1.63 0 .9-.73 1.63-1.63 1.63-.9 0-1.63-.73-1.63-1.63 0-.9.73-1.63 1.63-1.63zm-23.51-5.66c.79 0 1.42.63 1.42 1.41 0 .78-.63 1.41-1.42 1.41-.78 0-1.42-.63-1.42-1.41 0-.78.64-1.41 1.42-1.41zm4.46 7.29c0 .78.63 1.41 1.41 1.41.78 0 1.41-.63 1.41-1.41s-.63-1.41-1.41-1.41c-.77 0-1.41.63-1.41 1.41zm11.76 0c0 .78.63 1.41 1.41 1.41.78 0 1.41-.63 1.41-1.41s-.63-1.41-1.41-1.41c-.77 0-1.41.63-1.41 1.41zm-11.76-11.76c0 .78.63 1.41 1.41 1.41.78 0 1.41-.63 1.41-1.41 0-.78-.63-1.41-1.41-1.41-.77 0-1.41.64-1.41 1.41zm11.76 0c0 .78.63 1.41 1.41 1.41.78 0 1.41-.63 1.41-1.41 0-.78-.63-1.41-1.41-1.41-.77 0-1.41.64-1.41 1.41zm-9.14 5.88c0-.66-.53-1.2-1.2-1.2-.66 0-1.2.54-1.2 1.2 0 .66.54 1.2 1.2 1.2.66 0 1.2-.54 1.2-1.2zm-15.24 17.63c0 1.26 1.02 2.29 2.28 2.29 1.26 0 2.29-1.02 2.29-2.29 0-1.26-1.03-2.28-2.29-2.28s-2.28 1.02-2.28 2.28zm0-11.75c0 1.26 1.02 2.28 2.28 2.28 1.26 0 2.29-1.02 2.29-2.28 0-1.26-1.03-2.28-2.29-2.28s-2.28 1.02-2.28 2.28zm0-11.76c0 1.26 1.02 2.29 2.28 2.29 1.26 0 2.29-1.02 2.29-2.29 0-1.26-1.03-2.28-2.29-2.28s-2.28 1.03-2.28 2.28zm11.75 23.51c0 1.26 1.03 2.29 2.28 2.29 1.26 0 2.28-1.02 2.28-2.29 0-1.26-1.02-2.28-2.28-2.28-1.25 0-2.28 1.02-2.28 2.28zm11.76 0c0 1.26 1.03 2.29 2.29 2.29s2.28-1.02 2.28-2.29c0-1.26-1.02-2.28-2.28-2.28-1.27 0-2.29 1.02-2.29 2.28zm-2.18-5.87c0 .78-.63 1.41-1.41 1.41-.78 0-1.42-.63-1.42-1.41 0-.78.64-1.41 1.42-1.41.78-.01 1.41.63 1.41 1.41zm-.22-5.88c0 .66-.54 1.2-1.2 1.2-.66 0-1.2-.54-1.2-1.2 0-.66.54-1.2 1.2-1.2.67 0 1.2.54 1.2 1.2z" class="st1"/>
      <path d="M206.66 62.63c0-.54-.44-.97-.98-.97s-.97.44-.97.97c0 .54.44.98.97.98.54 0 .98-.44.98-.98z" class="st2"/>
      <path d="M201.66 45c0-1.02-.82-1.85-1.85-1.85-1.02 0-1.85.83-1.85 1.85s.83 1.85 1.85 1.85 1.85-.83 1.85-1.85zm.21-5.88c0-1.14-.92-2.07-2.07-2.07-1.14 0-2.07.92-2.07 2.07 0 1.14.93 2.07 2.07 2.07 1.15 0 2.07-.93 2.07-2.07zm19.6 29.39c0 1.02.83 1.85 1.84 1.85 1.02 0 1.85-.83 1.85-1.85s-.83-1.85-1.85-1.85c-1.01 0-1.84.83-1.84 1.85zm9.8 0c0-1.14-.92-2.07-2.07-2.07-1.14 0-2.07.92-2.07 2.07 0 1.14.93 2.07 2.07 2.07 1.14 0 2.07-.93 2.07-2.07zm-11.98-17.63c0 1.02-.83 1.85-1.85 1.85s-1.85-.83-1.85-1.85.83-1.85 1.85-1.85c1.03 0 1.85.82 1.85 1.85zM225.6 45c0 1.26-1.02 2.28-2.29 2.28-1.26 0-2.28-1.02-2.28-2.28 0-1.26 1.02-2.29 2.28-2.29 1.27 0 2.29 1.03 2.29 2.29zm6.32-5.88c0 1.5-1.22 2.72-2.72 2.72-1.5 0-2.72-1.22-2.72-2.72 0-1.5 1.22-2.72 2.72-2.72 1.5 0 2.72 1.22 2.72 2.72z" class="st1"/>
      <path d="M32.59 78.55v13.11h3.63V78.05l-3.63.5zm94.13-5.2v18.3h3.61V72.86c-.14.02-1.79.24-1.79.24-1.11.16-1.66.23-1.82.25zM25.73 90.3s.42 1.26.46 1.35h3.32c-.25-1.12-.38-2.43-.38-3.88v-4.85c0-3.42-1.65-4.88-5.53-4.88-2.87 0-4.67 1.14-5.52 1.85.07.09 1.46 1.8 1.54 1.9.54-.38 1.79-1.23 3.55-1.23 1.61 0 2.39.71 2.39 2.17v.71h-.6c-3.56 0-7.38 1.23-7.38 4.69 0 2.27 1.7 3.86 4.12 3.86 1.99 0 3.26-1.07 3.82-1.69h.21zm-.19-4.89v2.86l-.02.02c-.55.57-1.36 1.22-2.68 1.22-.89 0-1.81-.63-1.81-1.69 0-1.53 1.43-2.41 3.91-2.41h.6zm115.89 4.89s.43 1.26.46 1.35h3.32c-.25-1.12-.38-2.43-.38-3.88v-4.85c0-3.42-1.66-4.88-5.53-4.88-2.87 0-4.67 1.14-5.52 1.85.07.09 1.46 1.8 1.54 1.9.54-.38 1.79-1.23 3.55-1.23 1.61 0 2.39.71 2.39 2.17v.71h-.6c-3.57 0-7.38 1.23-7.38 4.69 0 2.27 1.69 3.86 4.12 3.86 1.99 0 3.25-1.07 3.82-1.69h.21zm-.18-4.89v2.86l-.02.02c-.55.57-1.36 1.22-2.69 1.22-.89 0-1.81-.63-1.81-1.69 0-1.53 1.43-2.41 3.92-2.41h.6zM34.41 72.43c-1.39 0-2.22.78-2.22 2.08 0 1.31.83 2.08 2.22 2.08 1.39 0 2.22-.78 2.22-2.08s-.83-2.08-2.22-2.08zm76.44 19.22h3.62v-9.18c.82-1.02 1.85-1.56 2.97-1.56 1.37 0 1.98.66 1.98 2.16v8.59h3.61v-9.34c0-1.95-.71-4.26-4.09-4.26-1.69 0-3.18.66-4.38 1.92h-.24l-.63-1.87-3.23.78c.26 1.12.38 1.93.38 3.38v9.38zm37.49 0h3.62v-9.18c.82-1.02 1.85-1.56 2.97-1.56 1.38 0 1.99.66 1.99 2.16v8.59h3.61v-9.34c0-1.95-.71-4.26-4.09-4.26-1.69 0-3.18.66-4.38 1.92h-.24l-.63-1.87-3.23.78c.26 1.12.38 1.93.38 3.38v9.38zM43.38 80.21l-.71-2.1-3.14.78c.25 1.05.36 1.8.38 3.07v9.7h3.61v-8.62c.18-.32 1.21-1.93 3.16-1.93.7 0 1.25.15 1.42.2.04-.13.81-2.81.84-2.93-.45-.21-1.02-.32-1.77-.32-2.07 0-3.26 1.66-3.51 2.16h-.28zm30.54 0-.71-2.1-3.14.78c.24 1.05.36 1.8.38 3.07v9.7h3.61v-8.62c.18-.32 1.21-1.93 3.16-1.93.7 0 1.24.15 1.41.2.04-.13.81-2.81.84-2.93-.44-.21-1.02-.32-1.76-.32-2.08 0-3.26 1.66-3.51 2.16h-.28zm-9.95 9.05c-1.46 0-4.18.35-5.15.46-.97.11-1.3-.1-1.3-.51 0-.27.26-.63.41-.82l.77-.97c.42.11 1.19.18 1.9.18 3.66 0 5.94-1.83 5.94-4.77 0-.91-.23-1.67-.66-2.37h1.64l.62-2.16c-.35-.16-.79-.25-1.37-.25-.84 0-1.58.33-2.25 1.05-1.66-1.01-3.27-1.05-4.13-1.05-3.65 0-6.11 1.85-6.11 4.78 0 2.09 1.28 3.28 2.38 3.88-1.12 1.2-2.22 2.51-2.22 3.63 0 .22.06.77.57 1.22.55.5 1.46.71 2.69.63 1.23-.08 3.31-.22 4.49-.22 1.3 0 2.12.62 2.05 1.93h3.08c.23-1.11.55-2.57-.24-3.59-.74-.95-2.13-1.05-3.11-1.05zm-3.55-9.03c1.66 0 2.65.98 2.65 2.61s-.99 2.6-2.65 2.6-2.65-.97-2.65-2.6c.01-1.63 1-2.61 2.65-2.61zm30.61-.56c-1.02-1.08-2.5-1.62-4.39-1.62-4.02 0-6.83 2.84-6.83 6.9 0 4.34 2.77 7.04 7.23 7.04 2.77 0 4.17-.73 5.09-1.24l-1.14-2.19c-.7.34-1.84.91-3.61.91-2.83 0-3.61-1.98-3.72-3.71h8.91c.26-3.03-.49-4.98-1.54-6.09zm-7.4 4.03c.19-2.15 1.34-3.21 2.95-3.21 1.6 0 2.53 1.07 2.53 2.98l-5.48.23zm22.51-4.03c-1.02-1.08-2.5-1.62-4.39-1.62-4.02 0-6.83 2.84-6.83 6.9 0 4.34 2.77 7.04 7.23 7.04 2.77 0 4.17-.73 5.09-1.24l-1.14-2.19c-.7.34-1.84.91-3.61.91-2.82 0-3.61-1.98-3.72-3.71h8.91c.27-3.03-.49-4.98-1.54-6.09zm-7.4 4.03c.19-2.15 1.34-3.21 2.95-3.21 1.6 0 2.53 1.07 2.53 2.98l-5.48.23zm77.57 4.21V72.94l-3.61.5v5.66c-1.04-.79-2.11-1.05-3.37-1.05-3.63 0-6.16 2.88-6.16 7.01 0 4.35 2.11 6.95 5.65 6.95 1.55 0 2.89-.57 3.87-1.71h.23l.46 1.35h3.31c-.16-.67-.38-1.98-.38-3.74zm-3.61-.06c-.18.24-1.15 1.42-2.73 1.42-1.94 0-2.96-1.46-2.96-4.21 0-2.76 1.14-4.34 3.13-4.34 1.29 0 2.06.52 2.56.94v6.19z" class="st2"/>
    </g>
  </switch>
</svg>