<?xml version="1.0" encoding="UTF-8" standalone="no"?>
<!-- Created with Inkscape (http://www.inkscape.org/) -->

<svg
   width="100"
   height="78"
   viewBox="0 0 26.458333 20.637501"
   version="1.1"
   id="svg5"
   inkscape:version="1.1 (c68e22c387, 2021-05-23)"
   sodipodi:docname="Air Kasaï logo.svg"
   xmlns:inkscape="http://www.inkscape.org/namespaces/inkscape"
   xmlns:sodipodi="http://sodipodi.sourceforge.net/DTD/sodipodi-0.dtd"
   xmlns="http://www.w3.org/2000/svg"
   xmlns:svg="http://www.w3.org/2000/svg"
   xmlns:rdf="http://www.w3.org/1999/02/22-rdf-syntax-ns#"
   xmlns:cc="http://creativecommons.org/ns#"
   xmlns:dc="http://purl.org/dc/elements/1.1/">
  <title
     id="title7982">Air Kasaï logo</title>
  <sodipodi:namedview
     id="namedview7"
     pagecolor="#ffffff"
     bordercolor="#111111"
     borderopacity="1"
     inkscape:pageshadow="0"
     inkscape:pageopacity="0"
     inkscape:pagecheckerboard="1"
     inkscape:document-units="px"
     showgrid="false"
     objecttolerance="1"
     gridtolerance="1"
     guidetolerance="1"
     units="px"
     inkscape:zoom="4"
     inkscape:cx="3.875"
     inkscape:cy="48"
     inkscape:window-width="1366"
     inkscape:window-height="746"
     inkscape:window-x="-8"
     inkscape:window-y="-8"
     inkscape:window-maximized="1"
     inkscape:current-layer="g10"
     height="79px" />
  <defs
     id="defs2" />
  <g
     inkscape:label="Capa 1"
     inkscape:groupmode="layer"
     id="layer1">
    <g
       transform="matrix(0.04592501,0,0,-0.04592501,0.2823509,21.177272)"
       id="g10">
      <g
         transform="matrix(0.1,0,0,0.1,0.09001881,0.57739986)"
         id="g12">
        <path
           id="path16"
           style="fill:#000000;fill-opacity:1;fill-rule:evenodd;stroke:none"
           d="m 2265.64,1037.16 h 87.41 V 311.492 h -87.41 z m 443.13,-63.008 h 288.64 L 2647.79,642.824 2997.41,307.422 h -288.64 l -349.63,337.441 349.63,329.289" />
        <g
           id="g333">
          <path
             id="path14"
             style="fill:#930101;fill-opacity:1;fill-rule:evenodd;stroke:none"
             d="m 1596.87,914.59 h 93.51 V 776.789 c 1.43,0.063 -4.94,128.832 156.52,158.742 l -2.03,-79.277 c -104.2,-40.137 -153.28,-103.492 -154.49,-187 V 371.047 h -93.51 z m -223.6,157.14 h 93.51 v -65.05 h -93.51 z m 0,-157.14 h 93.51 V 371.047 h -93.51 z m -99.6,92.09 -359.791,95.53 C 532.949,1000.27 233.191,653.508 381.313,242.379 l 351.656,-93.512 c -64.528,125.856 -86.805,246.071 -77.543,351.668 h 337.73 V 242.379 H 1273.67 Z M 993.156,884.09 V 713.965 H 727.914 c 61.262,92.332 155.613,154.098 265.242,170.125 z m 2546.994,30.5 h 65.05 V 371.047 h -65.05 v 113.269 c -62.91,-68.589 -165.56,-113.261 -281.53,-113.261 -191.41,0 -346.58,121.672 -346.58,271.769 0,150.094 155.17,271.766 346.58,271.766 115.97,0 218.62,-44.668 281.53,-113.258 z m -281.53,-60.363 c 148.9,0 269.59,-94.653 269.59,-211.403 0,-116.754 -120.69,-211.402 -269.59,-211.402 -148.9,0 -269.59,94.648 -269.59,211.402 0,116.75 120.69,211.403 269.59,211.403 z m 1574.34,58.332 H 4898 V 369.016 h -65.04 v 113.269 c -62.91,-68.59 -165.56,-113.262 -281.53,-113.262 -191.41,0 -346.57,121.676 -346.57,271.77 0,150.094 155.16,271.766 346.57,271.766 115.97,0 218.62,-44.668 281.53,-113.258 z m -281.53,-60.368 c 148.89,0 269.59,-94.644 269.59,-211.398 0,-116.754 -120.7,-211.402 -269.59,-211.402 -148.89,0 -269.59,94.648 -269.59,211.402 0,116.754 120.7,211.398 269.59,211.398 z m -533.59,-67.082 h 85.37 c 4.13,91.735 -102.96,148.59 -180.91,146.36 -110.81,-3.176 -190.41,-69.508 -189.04,-152.008 2.27,-136.637 315.05,-169.574 313.68,-270.793 -0.73,-54.484 -74.89,-86.441 -124.64,-83.348 -58.42,3.629 -131.59,57.27 -140.26,105.707 l -85.37,-0.011 c 10.16,-99.828 119.73,-183.481 227.66,-182.942 112.09,0.559 215.6,75.215 215.47,168.719 -0.21,154.488 -313.44,183.293 -311,276.457 1.06,40.945 44.97,68.148 101.63,67.723 40.85,-0.297 89.45,-31.102 87.41,-75.864 z M 5064.69,914.59 h 60.98 V 371.047 h -60.98 z m -122.89,172.49 h 63.1 v -62.48 h -63.1 z m 221.81,0 h 63.1 v -62.48 h -63.1 v 62.48" />
          <path
             id="path20"
             style="fill:#008dd6;fill-opacity:1;fill-rule:evenodd;stroke:none"
             d="M 1.73438,1339.54 C 1165.18,1404.16 1947.33,1874.65 2255.96,2849.25 c 975.8,273 2057.28,757.33 3391.68,1747.54 122.62,-855.2 -250.76,-1383.91 -800.41,-1736.45 -463.8,-297.46 -1148.81,-417.96 -2105.27,-321.3 667.58,-165.02 1352.26,-124.56 2047.42,41.35 -400,-423.04 -792.95,-676.93 -1179.35,-773.41 -406.71,-101.58 -868.24,-59.79 -1198.96,204.69 125.93,-168.54 185.81,-356.54 796.22,-382.6 C 2073.54,1255.34 1025.07,1244 1.73438,1339.54" />
        </g>
      </g>
    </g>
  </g>
  <metadata
     id="metadata7980">
    <rdf:RDF>
      <cc:Work
         rdf:about="">
        <dc:title>Air Kasaï logo</dc:title>
        <dc:date>9 sep 2021</dc:date>
        <cc:license
           rdf:resource="http://scripts.sil.org/OFL" />
        <dc:rights>
          <cc:Agent>
            <dc:title>N/A</dc:title>
          </cc:Agent>
        </dc:rights>
      </cc:Work>
      <cc:License
         rdf:about="http://scripts.sil.org/OFL">
        <cc:permits
           rdf:resource="http://scripts.sil.org/pub/OFL/Reproduction" />
        <cc:permits
           rdf:resource="http://scripts.sil.org/pub/OFL/Distribution" />
        <cc:permits
           rdf:resource="http://scripts.sil.org/pub/OFL/Embedding" />
        <cc:permits
           rdf:resource="http://scripts.sil.org/pub/OFL/DerivativeWorks" />
        <cc:requires
           rdf:resource="http://scripts.sil.org/pub/OFL/Notice" />
        <cc:requires
           rdf:resource="http://scripts.sil.org/pub/OFL/Attribution" />
        <cc:requires
           rdf:resource="http://scripts.sil.org/pub/OFL/ShareAlike" />
        <cc:requires
           rdf:resource="http://scripts.sil.org/pub/OFL/DerivativeRenaming" />
        <cc:requires
           rdf:resource="http://scripts.sil.org/pub/OFL/BundlingWhenSelling" />
      </cc:License>
    </rdf:RDF>
  </metadata>
</svg>
