<?xml version="1.0" encoding="UTF-8"?>
<!-- Generator: Adobe Illustrator 13.0.0, SVG Export Plug-In . SVG Version: 6.00 Build 14948)  -->
<!DOCTYPE svg PUBLIC "-//W3C//DTD SVG 1.1//EN" "http://www.w3.org/Graphics/SVG/1.1/DTD/svg11.dtd" [
	<!ENTITY ns_extend "http://ns.adobe.com/Extensibility/1.0/">
	<!ENTITY ns_ai "http://ns.adobe.com/AdobeIllustrator/10.0/">
	<!ENTITY ns_graphs "http://ns.adobe.com/Graphs/1.0/">
	<!ENTITY ns_vars "http://ns.adobe.com/Variables/1.0/">
	<!ENTITY ns_imrep "http://ns.adobe.com/ImageReplacement/1.0/">
	<!ENTITY ns_sfw "http://ns.adobe.com/SaveForWeb/1.0/">
	<!ENTITY ns_custom "http://ns.adobe.com/GenericCustomNamespace/1.0/">
	<!ENTITY ns_adobe_xpath "http://ns.adobe.com/XPath/1.0/">
]>
<svg version="1.1" id="Layer_1" xmlns:x="http://ns.adobe.com/Extensibility/1.0/" xmlns:i="http://ns.adobe.com/AdobeIllustrator/10.0/" xmlns:graph="http://ns.adobe.com/Graphs/1.0/" xmlns="http://www.w3.org/2000/svg" xmlns:xlink="http://www.w3.org/1999/xlink" x="0px" y="0px" width="369.594px" height="181.166px" viewBox="0 0 369.594 181.166" enable-background="new 0 0 369.594 181.166" xml:space="preserve">
 <switch>
  <g>
   <g>
    <polygon fill="#0066B3" points="104.496,0 85.719,96.26 97.873,84.221 135.171,116.686 135.17,116.686 104.496,0"/>
    <polygon fill="#FAA74A" points="209.148,181.078 135.17,116.686 139.52,133.23 92.755,149.297 92.755,149.297 209.148,181.078"/>
    <polygon fill="#ED1C24" points="0,181.166 92.755,149.297 76.251,144.791 85.718,96.26 85.718,96.26 0,181.166"/>
    <path fill="#0066B3" d="M203.338,69.794L192.17,38.538h-10.42l-11.213,31.256h10.021l1.192-4.106h10.198l1.192,4.106H203.338     L203.338,69.794z M190.183,59.286h-6.534l3.179-11.389L190.183,59.286L190.183,59.286z M216.273,44.145v-6.49h-9.095v6.49     H216.273L216.273,44.145z M216.273,69.794V47.103h-9.095v22.691H216.273L216.273,69.794z M237.904,55.534v-9.005     c-0.353-0.045-0.707-0.088-1.104-0.088c-1.722,0-3.135,0.441-4.282,1.235c-1.146,0.839-2.118,2.164-2.825,3.974v-4.547h-8.255     v22.691h9.05v-8.388c0-2.163,0.441-3.709,1.368-4.68c0.884-0.926,2.207-1.412,3.973-1.412     C236.315,55.314,237.021,55.402,237.904,55.534L237.904,55.534z M203.338,113.939L192.17,82.685h-10.42l-11.213,31.255h10.021     l1.192-4.104h10.198l1.192,4.104H203.338L203.338,113.939z M190.183,103.434h-6.534l3.179-11.391L190.183,103.434     L190.183,103.434z M223.204,99.68v-9.004c-0.354-0.045-0.706-0.088-1.104-0.088c-1.723,0-3.134,0.44-4.283,1.235     c-1.146,0.84-2.118,2.164-2.824,3.975v-4.548h-8.256v22.69h9.051v-8.387c0-2.164,0.44-3.709,1.368-4.68     c0.883-0.928,2.208-1.412,3.974-1.412C221.615,99.461,222.321,99.549,223.204,99.68L223.204,99.68z M265.85,113.939V99.945     c0-5.781-2.429-9.358-8.564-9.358c-3.664,0-5.782,1.28-8.034,4.062c-1.634-2.869-3.709-4.062-6.975-4.062     c-3.312,0-5.739,1.413-7.638,4.017v-3.354h-8.3v22.69h8.873v-11.83c0-2.252,0.75-4.459,3.443-4.459     c2.518,0,2.914,2.119,2.914,4.15v12.139h8.918v-11.918c0-2.252,0.706-4.371,3.354-4.371c2.297,0,3.002,1.723,3.002,3.707v12.582     H265.85L265.85,113.939z M296.047,104.67c0-1.854-0.178-3.4-0.485-4.68c-0.53-1.943-1.413-3.664-2.649-5.121     s-2.737-2.561-4.504-3.223c-1.766-0.707-3.663-1.06-5.694-1.06c-3.885,0-6.975,1.147-9.359,3.487     c-2.339,2.295-3.531,5.254-3.531,8.873c0,3.4,1.192,6.225,3.487,8.432c2.341,2.164,5.563,3.275,9.668,3.275     c2.605,0,4.813-0.441,6.667-1.332c1.897-0.883,3.355-1.986,4.369-3.355c0.619-0.838,1.061-1.811,1.325-2.869h-8.652     c-0.618,1.236-1.722,1.854-3.267,1.854c-1.457,0-2.561-0.396-3.355-1.148c-0.75-0.75-1.192-1.809-1.236-3.133H296.047     L296.047,104.67z M287.04,100.035h-8.167c0.133-1.326,0.53-2.297,1.237-2.959c0.705-0.707,1.633-1.016,2.78-1.016     c1.236,0,2.252,0.354,3.002,1.059C286.643,97.826,287.04,98.797,287.04,100.035L287.04,100.035z M324.654,113.939V99.77     c0-5.74-2.826-9.183-8.742-9.183c-3.487,0-5.739,1.413-7.77,4.149v-3.531h-8.299v22.734h9.05v-11.918     c0-2.252,0.794-4.371,3.442-4.371c2.384,0,3.224,1.545,3.224,3.752v12.537H324.654L324.654,113.939z M338.913,88.291v-6.49     h-9.095v6.49H338.913L338.913,88.291z M338.913,113.939v-22.69h-9.095v22.69H338.913L338.913,113.939z M369.594,113.939v-0.441     c-0.793-0.574-1.19-1.457-1.19-2.428V99.373c0-1.105,0.043-2.43-0.222-3.488c-1.324-4.945-6.976-5.474-11.257-5.474     c-3.665,0-9.58,0.662-11.522,4.281c-0.573,1.061-0.75,2.297-0.883,3.488h8.785c0.132-1.943,1.59-2.295,3.223-2.295     c1.325,0,3.179,0.221,3.179,1.941c0,0.664-0.31,1.148-0.84,1.502c-0.617,0.352-2.163,0.529-2.869,0.617     c-5.12,0.574-12.801,0.84-12.801,7.814c0,4.855,4.017,6.85,8.343,6.85c3.223,0,5.916-0.934,8.299-3.141l0.441,2.471H369.594     L369.594,113.939z M359.618,103.83c0,2.252,0.22,4.063-2.208,5.166c-0.618,0.309-1.324,0.441-2.03,0.441     c-1.368,0-2.826-0.441-2.826-2.031C352.554,104.67,357.455,104.934,359.618,103.83L359.618,103.83z"/>
   </g>
  </g>
 </switch>
</svg>