<?xml version="1.0" encoding="UTF-8" standalone="no"?>
<svg
   xmlns:dc="http://purl.org/dc/elements/1.1/"
   xmlns:cc="http://creativecommons.org/ns#"
   xmlns:rdf="http://www.w3.org/1999/02/22-rdf-syntax-ns#"
   xmlns:svg="http://www.w3.org/2000/svg"
   xmlns="http://www.w3.org/2000/svg"
   xmlns:xlink="http://www.w3.org/1999/xlink"
   viewBox="0 0 2021.33 203.90499"
   height="203.905"
   width="2021.33"
   xml:space="preserve"
   version="1.1"
   id="svg3336"><metadata
     id="metadata3342"><rdf:RDF><cc:Work
         rdf:about=""><dc:format>image/svg+xml</dc:format><dc:type
           rdf:resource="http://purl.org/dc/dcmitype/StillImage" /><dc:title></dc:title></cc:Work></rdf:RDF></metadata><defs
     id="defs3340"><clipPath
       id="clipPath3352"
       clipPathUnits="userSpaceOnUse"><path
         id="path3354"
         d="m 0,0 595.276,0 0,841.89 L 0,841.89 0,0 Z" /></clipPath><clipPath
       id="clipPath3360"
       clipPathUnits="userSpaceOnUse"><path
         id="path3362"
         d="m 9.95024,852.841 580.31976,0 0,-760.6802 -580.31976,0 0,760.6802 z" /></clipPath><clipPath
       id="clipPath3380"
       clipPathUnits="userSpaceOnUse"><path
         id="path3382"
         d="m 11.7502,851.041 575.9998,0 0,-756.3602 -575.9998,0 0,756.3602 z" /></clipPath><clipPath
       id="clipPath3394"
       clipPathUnits="userSpaceOnUse"><path
         id="path3396"
         d="m 12.047,100.474 570.045,0 0,741.415 -570.045,0 0,-741.415 z" /></clipPath><clipPath
       id="clipPath3406"
       clipPathUnits="userSpaceOnUse"><path
         id="path3408"
         d="m 0,0 595.276,0 0,841.89 L 0,841.89 0,0 Z" /></clipPath><clipPath
       id="clipPath3424"
       clipPathUnits="userSpaceOnUse"><path
         id="path3426"
         d="m 0,0 595.276,0 0,841.89 L 0,841.89 0,0 Z" /></clipPath><clipPath
       id="clipPath3440"
       clipPathUnits="userSpaceOnUse"><path
         id="path3442"
         d="m 0,0 595.276,0 0,841.89 L 0,841.89 0,0 Z" /></clipPath><clipPath
       id="clipPath3516"
       clipPathUnits="userSpaceOnUse"><path
         id="path3518"
         d="m 0,0 595.276,0 0,841.89 L 0,841.89 0,0 Z" /></clipPath><clipPath
       id="clipPath3550"
       clipPathUnits="userSpaceOnUse"><path
         id="path3552"
         d="m 0,0 595.276,0 0,841.89 L 0,841.89 0,0 Z" /></clipPath><clipPath
       id="clipPath3568"
       clipPathUnits="userSpaceOnUse"><path
         id="path3570"
         d="m 0,0 595.276,0 0,841.89 L 0,841.89 0,0 Z" /></clipPath><clipPath
       id="clipPath3588"
       clipPathUnits="userSpaceOnUse"><path
         id="path3590"
         d="m 0,0 595.276,0 0,841.89 L 0,841.89 0,0 Z" /></clipPath><clipPath
       id="clipPath3826"
       clipPathUnits="userSpaceOnUse"><path
         id="path3828"
         d="m 0,0 595.276,0 0,841.89 L 0,841.89 0,0 Z" /></clipPath><clipPath
       id="clipPath3834"
       clipPathUnits="userSpaceOnUse"><path
         id="path3836"
         d="m 113.903,294.559 237.6,0 0,-31.68 -237.6,0 0,31.68 z" /></clipPath><clipPath
       id="clipPath3854"
       clipPathUnits="userSpaceOnUse"><path
         id="path3856"
         d="m 117.863,289.879 135,0 0,-23.04 -135,0 0,23.04 z" /></clipPath><clipPath
       id="clipPath3874"
       clipPathUnits="userSpaceOnUse"><path
         id="path3876"
         d="m 111.544,348.458 293.76,0 0,-60.48 -293.76,0 0,60.48 z" /></clipPath><clipPath
       id="clipPath3894"
       clipPathUnits="userSpaceOnUse"><path
         id="path3896"
         d="m 118.744,341.258 178.92,0 0,-45.72 -178.92,0 0,45.72 z" /></clipPath><clipPath
       id="clipPath3918"
       clipPathUnits="userSpaceOnUse"><path
         id="path3920"
         d="m 31.8415,828.416 182.8805,0 0,-31.68 -182.8805,0 0,31.68 z" /></clipPath><clipPath
       id="clipPath3938"
       clipPathUnits="userSpaceOnUse"><path
         id="path3940"
         d="m 36.8815,823.376 157.3205,0 0,-20.88 -157.3205,0 0,20.88 z" /></clipPath><clipPath
       id="clipPath3956"
       clipPathUnits="userSpaceOnUse"><path
         id="path3958"
         d="m 0,0 595.276,0 0,841.89 L 0,841.89 0,0 Z" /></clipPath><clipPath
       id="clipPath3964"
       clipPathUnits="userSpaceOnUse"><path
         id="path3966"
         d="m 450.455,829.032 129.6,0 0,-34.56 -129.6,0 0,34.56 z" /></clipPath><clipPath
       id="clipPath3984"
       clipPathUnits="userSpaceOnUse"><path
         id="path3986"
         d="m 456.575,823.272 100.08,0 0,-22.68 -100.08,0 0,22.68 z" /></clipPath><clipPath
       id="clipPath4010"
       clipPathUnits="userSpaceOnUse"><path
         id="path4012"
         d="m 0,0 595.276,0 0,841.89 L 0,841.89 0,0 Z" /></clipPath><linearGradient
       id="linearGradient4030"
       spreadMethod="pad"
       gradientTransform="matrix(24.681967,14.250143,14.250142,-24.681967,361.70062,514.03577)"
       gradientUnits="userSpaceOnUse"
       y2="0"
       x2="1"
       y1="0"
       x1="0"><stop
         id="stop4032"
         offset="0"
         style="stop-opacity:1;stop-color:#a61721" /><stop
         id="stop4034"
         offset="0.5"
         style="stop-opacity:1;stop-color:#de1b34" /><stop
         id="stop4036"
         offset="1"
         style="stop-opacity:1;stop-color:#de1b34" /></linearGradient><linearGradient
       id="linearGradient4052"
       spreadMethod="pad"
       gradientTransform="matrix(16.573347,9.5686293,9.5686283,-16.573347,338.59906,582.8335)"
       gradientUnits="userSpaceOnUse"
       y2="0"
       x2="1"
       y1="0"
       x1="0"><stop
         id="stop4054"
         offset="0"
         style="stop-opacity:1;stop-color:#f6861f" /><stop
         id="stop4056"
         offset="0.85"
         style="stop-opacity:1;stop-color:#ffcf01" /><stop
         id="stop4058"
         offset="1"
         style="stop-opacity:1;stop-color:#ffcf01" /></linearGradient><linearGradient
       id="linearGradient4074"
       spreadMethod="pad"
       gradientTransform="matrix(0,17.747477,17.747477,0,379.12323,691.24683)"
       gradientUnits="userSpaceOnUse"
       y2="0"
       x2="1"
       y1="0"
       x1="0"><stop
         id="stop4076"
         offset="0"
         style="stop-opacity:1;stop-color:#a61721" /><stop
         id="stop4078"
         offset="0.8"
         style="stop-opacity:1;stop-color:#de1b34" /><stop
         id="stop4080"
         offset="1"
         style="stop-opacity:1;stop-color:#de1b34" /></linearGradient><clipPath
       id="clipPath4088"
       clipPathUnits="userSpaceOnUse"><path
         id="path4090"
         d="m 0,0 595.276,0 0,841.89 L 0,841.89 0,0 Z" /></clipPath><clipPath
       id="clipPath4104"
       clipPathUnits="userSpaceOnUse"><path
         id="path4106"
         d="m 67.9602,153.047 253.4398,0 0,-169.9197 -253.4398,0 0,169.9197 z" /></clipPath><clipPath
       id="clipPath4124"
       clipPathUnits="userSpaceOnUse"><path
         id="path4126"
         d="m 118.36,129.287 184.32,0 0,-143.6397 -184.32,0 0,143.6397 z" /></clipPath><clipPath
       id="clipPath4138"
       clipPathUnits="userSpaceOnUse"><path
         id="path4140"
         d="m 73.256,0 239.055,0 0,147.752 -239.055,0 0,-147.752 z" /></clipPath></defs><g
     transform="matrix(1.25,0,0,-1.25,-242.83975,1067.5544)"
     id="g3344"><g
       id="g3402"><g
         clip-path="url(#clipPath3406)"
         id="g3404"><g
           transform="translate(458.3439,90.075)"
           id="g3410"><path
             id="path3412"
             style="fill:none;stroke:#ffffff;stroke-width:1;stroke-linecap:butt;stroke-linejoin:miter;stroke-miterlimit:4;stroke-dasharray:none;stroke-opacity:1"
             d="M 0,0 0,-104.598" /></g><g
           transform="translate(64.0784,53.6208)"
           id="g3414"><path
             id="path3416"
             style="fill:#ffffff;fill-opacity:1;fill-rule:nonzero;stroke:none"
             d="m 0,0 c -0.295,-0.308 -0.602,-0.542 -0.92,-0.696 -0.319,-0.158 -0.649,-0.235 -0.991,-0.235 -0.542,0 -0.974,0.162 -1.296,0.488 -0.324,0.327 -0.485,0.766 -0.485,1.317 0,0.366 0.076,0.688 0.227,0.97 0.153,0.281 0.36,0.504 0.622,0.662 0.264,0.16 0.663,0.277 1.197,0.353 0.716,0.106 1.244,0.234 1.58,0.38 l 0.004,0.277 c 0,0.435 -0.078,0.74 -0.233,0.915 -0.219,0.255 -0.555,0.384 -1.01,0.384 -0.408,0 -0.716,-0.086 -0.919,-0.258 -0.203,-0.169 -0.35,-0.493 -0.446,-0.96 l -0.874,0.161 c 0.124,0.676 0.375,1.169 0.751,1.477 0.376,0.311 0.915,0.465 1.618,0.465 0.546,0 0.976,-0.104 1.287,-0.307 C 0.422,5.187 0.618,4.934 0.701,4.631 0.783,4.328 0.823,3.886 0.823,3.306 l 0,-1.433 c 0,-1.004 0.02,-1.636 0.059,-1.896 0.037,-0.261 0.113,-0.514 0.224,-0.759 l -0.922,0 C 0.09,-0.565 0.029,-0.303 0,0 M -0.066,2.392 C -0.392,2.23 -0.872,2.095 -1.512,1.985 -1.882,1.921 -2.143,1.849 -2.289,1.768 -2.437,1.687 -2.552,1.571 -2.635,1.424 -2.716,1.275 -2.757,1.104 -2.757,0.91 c 0,-0.304 0.095,-0.542 0.282,-0.723 0.188,-0.18 0.448,-0.27 0.778,-0.27 0.315,0 0.601,0.081 0.86,0.244 0.257,0.162 0.45,0.379 0.578,0.651 0.127,0.27 0.193,0.667 0.193,1.188 l 0,0.392 z" /></g></g></g><path
       id="path3418"
       style="fill:#ffffff;fill-opacity:1;fill-rule:nonzero;stroke:none"
       d="m 66.758,60.356 0.872,0 0,1.241 -0.872,0 0,-1.241 z m 0,-7.517 0.872,0 0,6.347 -0.872,0 0,-6.347 z" /><g
       id="g3420"><g
         clip-path="url(#clipPath3424)"
         id="g3422"><g
           transform="translate(69.4651,52.8386)"
           id="g3428"><path
             id="path3430"
             style="fill:#ffffff;fill-opacity:1;fill-rule:nonzero;stroke:none"
             d="m 0,0 0,6.348 0.8,0 0,-0.968 c 0.202,0.446 0.386,0.74 0.554,0.884 0.168,0.145 0.356,0.218 0.567,0.218 0.292,0 0.592,-0.116 0.896,-0.345 L 2.523,5.141 C 2.303,5.297 2.09,5.375 1.882,5.375 1.694,5.375 1.525,5.309 1.369,5.177 1.214,5.045 1.104,4.864 1.04,4.628 0.93,4.217 0.874,3.782 0.874,3.318 L 0.874,0 0,0 Z" /></g></g></g><path
       id="path3432"
       style="fill:#ffffff;fill-opacity:1;fill-rule:nonzero;stroke:none"
       d="m 73.261,52.839 0.874,0 0,8.758 -0.874,0 0,-8.758 z" /><path
       id="path3434"
       style="fill:#ffffff;fill-opacity:1;fill-rule:nonzero;stroke:none"
       d="m 75.992,60.356 0.874,0 0,1.241 -0.874,0 0,-1.241 z m 0,-7.517 0.874,0 0,6.347 -0.874,0 0,-6.347 z" /><g
       id="g3436"><g
         clip-path="url(#clipPath3440)"
         id="g3438"><g
           transform="translate(78.7005,52.8386)"
           id="g3444"><path
             id="path3446"
             style="fill:#ffffff;fill-opacity:1;fill-rule:nonzero;stroke:none"
             d="m 0,0 0,6.348 0.788,0 0,-0.902 c 0.191,0.346 0.426,0.608 0.701,0.78 0.276,0.17 0.594,0.256 0.951,0.256 0.28,0 0.537,-0.053 0.775,-0.164 C 3.45,6.208 3.642,6.065 3.788,5.888 3.933,5.711 4.04,5.48 4.112,5.198 4.185,4.917 4.22,4.481 4.22,3.896 L 4.22,0 3.347,0 l 0,3.861 c 0,0.466 -0.039,0.807 -0.12,1.022 C 3.148,5.099 3.023,5.266 2.854,5.383 2.683,5.5 2.485,5.559 2.263,5.559 1.839,5.559 1.503,5.401 1.251,5.086 1.001,4.773 0.874,4.231 0.874,3.467 L 0.874,0 0,0 Z" /></g><g
           transform="translate(88.3187,54.8796)"
           id="g3448"><path
             id="path3450"
             style="fill:#ffffff;fill-opacity:1;fill-rule:nonzero;stroke:none"
             d="M 0,0 0.911,-0.136 C 0.758,-0.813 0.484,-1.328 0.088,-1.671 c -0.397,-0.348 -0.889,-0.518 -1.474,-0.518 -0.739,0 -1.335,0.279 -1.792,0.837 -0.457,0.562 -0.685,1.369 -0.685,2.424 0,1.094 0.229,1.93 0.69,2.505 0.462,0.575 1.044,0.864 1.751,0.864 0.673,0 1.236,-0.284 1.688,-0.849 C 0.715,3.026 0.941,2.207 0.941,1.135 l -0.006,-0.286 -3.888,0 c 0.036,-0.712 0.202,-1.249 0.497,-1.611 0.295,-0.363 0.651,-0.542 1.076,-0.542 0.66,0 1.121,0.435 1.38,1.304 m -2.9,1.733 2.913,0 c -0.04,0.55 -0.159,0.961 -0.355,1.231 -0.282,0.394 -0.644,0.593 -1.084,0.593 -0.395,0 -0.731,-0.165 -1.011,-0.495 C -2.718,2.734 -2.872,2.291 -2.9,1.733" /></g><g
           transform="translate(93.764,56.0046)"
           id="g3452"><path
             id="path3454"
             style="fill:#ffffff;fill-opacity:1;fill-rule:nonzero;stroke:none"
             d="m 0,0 c 0,1.096 0.229,1.923 0.688,2.479 0.46,0.558 1.042,0.837 1.748,0.837 0.692,0 1.271,-0.279 1.737,-0.837 0.466,-0.556 0.698,-1.362 0.698,-2.413 0,-1.138 -0.227,-1.988 -0.685,-2.545 -0.46,-0.559 -1.042,-0.835 -1.75,-0.835 -0.697,0 -1.277,0.279 -1.742,0.837 C 0.23,-1.915 0,-1.092 0,0 m 0.897,0.005 c 0,-0.822 0.15,-1.433 0.45,-1.834 0.299,-0.401 0.67,-0.6 1.112,-0.6 0.414,0 0.771,0.201 1.068,0.607 0.297,0.403 0.447,1.012 0.447,1.827 0,0.816 -0.15,1.423 -0.45,1.824 C 3.225,2.23 2.855,2.432 2.41,2.432 1.992,2.432 1.634,2.229 1.341,1.827 1.044,1.424 0.897,0.816 0.897,0.005" /></g><g
           transform="translate(100.4036,52.8386)"
           id="g3456"><path
             id="path3458"
             style="fill:#ffffff;fill-opacity:1;fill-rule:nonzero;stroke:none"
             d="m 0,0 0,5.511 -0.787,0 0,0.837 0.787,0 0,0.673 C 0,7.518 0.052,7.89 0.156,8.141 0.26,8.39 0.418,8.578 0.631,8.709 0.845,8.84 1.113,8.907 1.437,8.907 1.688,8.907 1.966,8.869 2.265,8.795 L 2.133,7.861 C 1.949,7.902 1.775,7.92 1.611,7.92 1.347,7.92 1.158,7.854 1.045,7.716 0.931,7.579 0.874,7.316 0.874,6.933 l 0,-0.585 1.022,0 0,-0.837 -1.022,0 L 0.874,0 0,0 Z" /></g><g
           transform="translate(62.1741,43.9548)"
           id="g3460"><path
             id="path3462"
             style="fill:#ffffff;fill-opacity:1;fill-rule:nonzero;stroke:none"
             d="m 0,0 0.122,-0.948 c -0.242,-0.066 -0.461,-0.098 -0.654,-0.098 -0.307,0 -0.552,0.06 -0.739,0.181 -0.187,0.121 -0.315,0.289 -0.384,0.5 -0.072,0.212 -0.104,0.632 -0.104,1.262 l 0,3.655 -0.639,0 0,0.838 0.639,0 0,1.574 0.873,0.64 0,-2.214 0.886,0 0,-0.838 -0.886,0 0,-3.712 c 0,-0.341 0.026,-0.564 0.077,-0.663 0.076,-0.145 0.216,-0.216 0.423,-0.216 0.098,0 0.227,0.015 0.386,0.039" /></g><g
           transform="translate(63.4876,42.9948)"
           id="g3464"><path
             id="path3466"
             style="fill:#ffffff;fill-opacity:1;fill-rule:nonzero;stroke:none"
             d="m 0,0 0,8.759 0.874,0 0,-3.145 C 1.08,5.903 1.313,6.12 1.576,6.267 1.837,6.411 2.124,6.483 2.44,6.483 2.993,6.483 3.43,6.306 3.751,5.955 4.073,5.603 4.232,4.957 4.232,4.017 l 0,-4.017 -0.874,0 0,4.019 C 3.358,4.567 3.261,4.962 3.065,5.203 2.869,5.441 2.601,5.562 2.258,5.562 1.873,5.562 1.547,5.406 1.277,5.101 1.009,4.795 0.874,4.251 0.874,3.47 L 0.874,0 0,0 Z" /></g><g
           transform="translate(73.1048,45.0368)"
           id="g3468"><path
             id="path3470"
             style="fill:#ffffff;fill-opacity:1;fill-rule:nonzero;stroke:none"
             d="M 0,0 0.91,-0.135 C 0.76,-0.815 0.485,-1.326 0.089,-1.672 -0.308,-2.02 -0.8,-2.19 -1.386,-2.19 c -0.738,0 -1.336,0.279 -1.792,0.838 -0.456,0.561 -0.684,1.368 -0.684,2.423 0,1.097 0.23,1.93 0.691,2.505 0.461,0.578 1.043,0.865 1.749,0.865 0.675,0 1.237,-0.282 1.688,-0.848 C 0.717,3.027 0.941,2.209 0.941,1.137 L 0.937,0.85 l -3.888,0 c 0.035,-0.712 0.201,-1.249 0.496,-1.613 0.295,-0.36 0.652,-0.542 1.075,-0.542 0.662,0 1.122,0.436 1.38,1.305 m -2.899,1.736 2.912,0 c -0.039,0.549 -0.157,0.957 -0.353,1.23 -0.284,0.391 -0.646,0.59 -1.084,0.59 -0.395,0 -0.734,-0.166 -1.014,-0.493 C -2.717,2.733 -2.87,2.292 -2.899,1.736" /></g><g
           transform="translate(78.8577,40.5583)"
           id="g3472"><path
             id="path3474"
             style="fill:#ffffff;fill-opacity:1;fill-rule:nonzero;stroke:none"
             d="M 0,0 -0.099,1.009 C 0.097,0.943 0.262,0.91 0.4,0.91 c 0.186,0 0.341,0.038 0.461,0.114 0.121,0.075 0.221,0.191 0.299,0.349 0.029,0.058 0.145,0.42 0.345,1.089 l -1.961,6.324 0.95,0 L 1.575,5.14 C 1.711,4.686 1.834,4.198 1.949,3.681 2.049,4.17 2.166,4.647 2.306,5.115 l 1.103,3.671 0.885,0 L 2.326,2.329 C 2.068,1.492 1.863,0.934 1.716,0.654 1.565,0.375 1.397,0.172 1.209,0.051 1.021,-0.073 0.805,-0.137 0.566,-0.137 0.398,-0.137 0.21,-0.091 0,0" /></g><g
           transform="translate(87.9378,45.0368)"
           id="g3476"><path
             id="path3478"
             style="fill:#ffffff;fill-opacity:1;fill-rule:nonzero;stroke:none"
             d="M 0,0 0.911,-0.135 C 0.759,-0.815 0.484,-1.326 0.088,-1.672 -0.309,-2.02 -0.8,-2.19 -1.386,-2.19 c -0.737,0 -1.335,0.279 -1.793,0.838 -0.456,0.561 -0.684,1.368 -0.684,2.423 0,1.097 0.23,1.93 0.691,2.505 0.461,0.578 1.044,0.865 1.751,0.865 0.673,0 1.236,-0.282 1.687,-0.848 C 0.717,3.027 0.941,2.209 0.941,1.137 L 0.937,0.85 l -3.889,0 c 0.037,-0.712 0.201,-1.249 0.496,-1.613 0.295,-0.36 0.653,-0.542 1.076,-0.542 0.661,0 1.122,0.436 1.38,1.305 m -2.899,1.736 2.912,0 c -0.04,0.549 -0.159,0.957 -0.353,1.23 -0.283,0.391 -0.646,0.59 -1.085,0.59 -0.395,0 -0.732,-0.166 -1.012,-0.493 -0.28,-0.33 -0.434,-0.771 -0.462,-1.327" /></g><g
           transform="translate(93.8294,43.778)"
           id="g3480"><path
             id="path3482"
             style="fill:#ffffff;fill-opacity:1;fill-rule:nonzero;stroke:none"
             d="m 0,0 c -0.297,-0.309 -0.602,-0.54 -0.921,-0.697 -0.318,-0.157 -0.65,-0.235 -0.991,-0.235 -0.542,0 -0.973,0.163 -1.296,0.49 -0.323,0.325 -0.484,0.763 -0.484,1.316 0,0.365 0.077,0.689 0.226,0.971 0.154,0.283 0.36,0.502 0.623,0.663 0.264,0.157 0.662,0.274 1.195,0.35 0.719,0.105 1.244,0.235 1.58,0.382 l 0.006,0.275 c 0,0.435 -0.078,0.74 -0.235,0.918 -0.217,0.252 -0.554,0.381 -1.007,0.381 -0.41,0 -0.717,-0.085 -0.92,-0.255 C -2.427,4.387 -2.574,4.066 -2.67,3.596 l -0.874,0.161 c 0.123,0.678 0.373,1.172 0.749,1.479 C -2.417,5.545 -1.877,5.7 -1.176,5.7 -0.628,5.7 -0.2,5.598 0.112,5.393 0.423,5.187 0.618,4.933 0.7,4.631 0.783,4.329 0.824,3.887 0.824,3.305 l 0,-1.433 c 0,-1.003 0.019,-1.634 0.057,-1.893 0.037,-0.261 0.112,-0.517 0.225,-0.762 l -0.922,0 C 0.088,-0.564 0.027,-0.304 0,0 M -0.068,2.391 C -0.393,2.232 -0.872,2.097 -1.512,1.984 -1.882,1.92 -2.143,1.848 -2.29,1.767 -2.438,1.686 -2.552,1.57 -2.634,1.423 -2.716,1.274 -2.756,1.103 -2.756,0.909 c 0,-0.301 0.093,-0.542 0.28,-0.721 0.188,-0.181 0.448,-0.27 0.779,-0.27 0.315,0 0.602,0.082 0.86,0.244 0.256,0.162 0.449,0.377 0.578,0.65 0.128,0.271 0.191,0.666 0.191,1.187 l 0,0.392 z" /></g><g
           transform="translate(96.5071,42.9948)"
           id="g3484"><path
             id="path3486"
             style="fill:#ffffff;fill-opacity:1;fill-rule:nonzero;stroke:none"
             d="m 0,0 0,6.35 0.8,0 0,-0.967 C 1.002,5.826 1.186,6.12 1.356,6.267 1.523,6.411 1.712,6.483 1.921,6.483 2.214,6.483 2.514,6.369 2.818,6.14 L 2.523,5.141 C 2.304,5.299 2.091,5.375 1.884,5.375 1.697,5.375 1.525,5.311 1.369,5.18 1.215,5.048 1.105,4.864 1.042,4.63 0.93,4.219 0.873,3.782 0.873,3.321 L 0.873,0 0,0 Z" /></g><g
           transform="translate(103.5335,42.3405)"
           id="g3488"><path
             id="path3490"
             style="fill:#ffffff;fill-opacity:1;fill-rule:nonzero;stroke:none"
             d="m 0,0 0,0.604 0.769,0.751 c 1.849,1.77 2.696,2.71 2.696,3.808 0,0.739 -0.346,1.423 -1.426,1.423 C 1.382,6.586 0.836,6.25 0.502,5.97 L 0.19,6.664 c 0.49,0.414 1.213,0.739 2.049,0.739 1.548,0 2.205,-1.075 2.205,-2.117 0,-1.344 -0.968,-2.43 -2.495,-3.908 L 1.382,0.84 l 0,-0.023 3.241,0 L 4.623,0 0,0 Z" /></g><g
           transform="translate(111.555,42.2175)"
           id="g3492"><path
             id="path3494"
             style="fill:#ffffff;fill-opacity:1;fill-rule:nonzero;stroke:none"
             d="m 0,0 c -1.414,0 -2.384,1.333 -2.405,3.74 0,2.453 1.057,3.786 2.528,3.786 1.515,0 2.395,-1.366 2.395,-3.684 C 2.518,1.366 1.593,0 0.012,0 L 0,0 Z m 0.045,0.762 c 0.991,0 1.471,1.175 1.471,3.035 0,1.792 -0.447,2.968 -1.471,2.968 -0.891,0 -1.471,-1.143 -1.471,-2.968 -0.021,-1.893 0.558,-3.035 1.46,-3.035 l 0.011,0 z" /></g></g></g><g
       id="g3584"><g
         clip-path="url(#clipPath3588)"
         id="g3586"><g
           transform="translate(136.22,35.9616)"
           id="g3592"><path
             id="path3594"
             style="fill:#ffffff;fill-opacity:1;fill-rule:nonzero;stroke:none"
             d="m 0,0 c -0.124,-0.129 -0.256,-0.228 -0.39,-0.294 -0.135,-0.065 -0.277,-0.098 -0.422,-0.098 -0.23,0 -0.414,0.07 -0.551,0.208 -0.137,0.138 -0.204,0.325 -0.204,0.559 0,0.154 0.031,0.294 0.096,0.413 0.064,0.121 0.151,0.214 0.263,0.282 0.111,0.069 0.28,0.118 0.507,0.15 0.303,0.046 0.526,0.103 0.668,0.165 l 0.004,0.117 c 0,0.184 -0.034,0.312 -0.1,0.387 -0.091,0.107 -0.234,0.162 -0.425,0.162 -0.175,0 -0.303,-0.035 -0.388,-0.11 C -1.028,1.869 -1.091,1.733 -1.131,1.533 L -1.507,1.6 c 0.053,0.289 0.158,0.499 0.32,0.63 0.158,0.129 0.387,0.197 0.686,0.197 0.229,0 0.412,-0.044 0.544,-0.132 C 0.175,2.207 0.258,2.099 0.292,1.972 0.327,1.844 0.347,1.655 0.347,1.406 l 0,-0.606 c 0,-0.428 0.006,-0.695 0.021,-0.807 0.016,-0.11 0.048,-0.218 0.095,-0.323 l -0.389,0 C 0.036,-0.239 0.012,-0.129 0,0 M -0.033,1.021 C -0.17,0.953 -0.373,0.893 -0.643,0.846 -0.798,0.818 -0.909,0.788 -0.972,0.752 -1.034,0.719 -1.081,0.669 -1.117,0.605 -1.151,0.542 -1.167,0.471 -1.167,0.387 c 0,-0.129 0.039,-0.23 0.116,-0.308 0.081,-0.076 0.19,-0.115 0.33,-0.115 0.134,0 0.254,0.036 0.363,0.105 0.11,0.069 0.191,0.162 0.245,0.28 0.053,0.114 0.08,0.284 0.08,0.505 l 0,0.167 z" /></g><g
           transform="translate(137.3509,35.6315)"
           id="g3596"><path
             id="path3598"
             style="fill:#ffffff;fill-opacity:1;fill-rule:nonzero;stroke:none"
             d="m 0,0 0,2.693 0.338,0 0,-0.408 C 0.425,2.474 0.505,2.601 0.576,2.663 0.647,2.726 0.728,2.757 0.817,2.757 0.942,2.757 1.071,2.706 1.2,2.608 L 1.071,2.183 C 0.979,2.25 0.89,2.28 0.801,2.28 0.723,2.28 0.65,2.255 0.584,2.197 0.52,2.143 0.475,2.063 0.445,1.966 0.399,1.792 0.376,1.604 0.376,1.409 L 0.376,0 0,0 Z" /></g><g
           transform="translate(140.4046,35.6315)"
           id="g3600"><path
             id="path3602"
             style="fill:#ffffff;fill-opacity:1;fill-rule:nonzero;stroke:none"
             d="M 0,0 0,0.34 C -0.067,0.208 -0.155,0.11 -0.262,0.041 c -0.106,-0.07 -0.221,-0.103 -0.345,-0.103 -0.26,0 -0.487,0.124 -0.676,0.371 -0.192,0.245 -0.286,0.591 -0.286,1.038 0,0.306 0.043,0.566 0.127,0.779 0.083,0.212 0.197,0.372 0.337,0.475 0.141,0.102 0.297,0.156 0.469,0.156 0.123,0 0.238,-0.034 0.343,-0.099 0.106,-0.064 0.192,-0.155 0.261,-0.272 l 0,1.331 0.383,0 L 0.351,0 0,0 Z m -1.183,1.345 c 0,-0.349 0.063,-0.61 0.181,-0.777 0.122,-0.172 0.263,-0.255 0.424,-0.255 0.157,0 0.296,0.082 0.413,0.244 0.116,0.163 0.174,0.408 0.174,0.735 0,0.378 -0.058,0.654 -0.174,0.829 -0.117,0.172 -0.265,0.26 -0.442,0.26 -0.155,0 -0.291,-0.084 -0.403,-0.25 C -1.125,1.964 -1.183,1.7 -1.183,1.345" /></g><g
           transform="translate(52.0208,42.278)"
           id="g3604"><path
             id="path3606"
             style="fill:#ffffff;fill-opacity:1;fill-rule:nonzero;stroke:none"
             d="m 0,0 c 0,0 -3.577,1.196 -4.057,-0.287 0,0 2.02,-1.17 4.057,0.287" /></g><g
           transform="translate(46.6858,42.9323)"
           id="g3608"><path
             id="path3610"
             style="fill:#ffffff;fill-opacity:1;fill-rule:nonzero;stroke:none"
             d="M 0,0 C 0,0 0.744,1.309 3.169,1.961 3.169,1.961 2.896,-0.263 0,0" /></g><g
           transform="translate(55.1067,46.1442)"
           id="g3612"><path
             id="path3614"
             style="fill:#ffffff;fill-opacity:1;fill-rule:nonzero;stroke:none"
             d="m 0,0 c 0,0 -3.773,0.066 -3.773,-2.264 0,0 2.28,-0.738 3.773,2.264" /></g><g
           transform="translate(51.0394,44.6677)"
           id="g3616"><path
             id="path3618"
             style="fill:#ffffff;fill-opacity:1;fill-rule:nonzero;stroke:none"
             d="M 0,0 C 0,0 -0.427,1.442 0.786,3.643 0.786,3.643 2.196,1.904 0,0" /></g><g
           transform="translate(56.2054,49.0954)"
           id="g3620"><path
             id="path3622"
             style="fill:#ffffff;fill-opacity:1;fill-rule:nonzero;stroke:none"
             d="m 0,0 c 0,0 -2.942,-0.669 -2.499,-2.479 0,0 1.914,-0.137 2.499,2.479" /></g><g
           transform="translate(53.3265,47.1706)"
           id="g3624"><path
             id="path3626"
             style="fill:#ffffff;fill-opacity:1;fill-rule:nonzero;stroke:none"
             d="M 0,0 C 0,0 -0.605,1.042 -0.083,2.981 -0.083,2.981 1.345,1.899 0,0" /></g><g
           transform="translate(56.7796,52.2028)"
           id="g3628"><path
             id="path3630"
             style="fill:#ffffff;fill-opacity:1;fill-rule:nonzero;stroke:none"
             d="m 0,0 c 0,0 -2.7,-1.352 -1.835,-3.005 0,0 1.888,0.323 1.835,3.005" /></g><g
           transform="translate(54.4427,49.6481)"
           id="g3632"><path
             id="path3634"
             style="fill:#ffffff;fill-opacity:1;fill-rule:nonzero;stroke:none"
             d="M 0,0 C 0,0 -0.839,0.866 -0.792,2.872 -0.792,2.872 0.853,2.163 0,0" /></g><g
           transform="translate(57.0042,55.489)"
           id="g3636"><path
             id="path3638"
             style="fill:#ffffff;fill-opacity:1;fill-rule:nonzero;stroke:none"
             d="m 0,0 c 0,0 -2.3,-1.956 -1.067,-3.355 0,0 1.76,0.764 1.067,3.355" /></g><g
           transform="translate(55.3441,52.4518)"
           id="g3640"><path
             id="path3642"
             style="fill:#ffffff;fill-opacity:1;fill-rule:nonzero;stroke:none"
             d="M 0,0 C 0,0 -1.02,0.64 -1.453,2.603 -1.453,2.603 0.311,2.304 0,0" /></g><g
           transform="translate(56.3528,58.4499)"
           id="g3644"><path
             id="path3646"
             style="fill:#ffffff;fill-opacity:1;fill-rule:nonzero;stroke:none"
             d="m 0,0 c 0,0 -1.499,-2.619 -0.451,-3.204 0,0 1.22,1.408 0.451,3.204" /></g><g
           transform="translate(55.3714,55.2712)"
           id="g3648"><path
             id="path3650"
             style="fill:#ffffff;fill-opacity:1;fill-rule:nonzero;stroke:none"
             d="m 0,0 c 0,0 -1.176,0.264 -2.238,1.968 0,0 1.765,0.308 2.238,-1.968" /></g><g
           transform="translate(55.1409,61.1198)"
           id="g3652"><path
             id="path3654"
             style="fill:#ffffff;fill-opacity:1;fill-rule:nonzero;stroke:none"
             d="m 0,0 c 0,0 -0.833,-2.901 0.325,-3.219 0,0 0.848,1.657 -0.325,3.219" /></g><g
           transform="translate(54.9466,57.7975)"
           id="g3656"><path
             id="path3658"
             style="fill:#ffffff;fill-opacity:1;fill-rule:nonzero;stroke:none"
             d="M 0,0 C 0,0 -1.205,-0.023 -2.644,1.379 -2.644,1.379 -1.003,2.1 0,0" /></g><g
           transform="translate(54.2034,63.3386)"
           id="g3660"><path
             id="path3662"
             style="fill:#ffffff;fill-opacity:1;fill-rule:nonzero;stroke:none"
             d="m 0,0 c 0,0 -1.114,-2.804 0.005,-3.236 0,0 1.011,1.569 -0.005,3.236" /></g><g
           transform="translate(53.0218,65.3083)"
           id="g3664"><path
             id="path3666"
             style="fill:#ffffff;fill-opacity:1;fill-rule:nonzero;stroke:none"
             d="m 0,0 c 0,0 -1.118,-2.806 0.165,-3.298 0,0 1.06,1.547 -0.165,3.298" /></g><g
           transform="translate(53.681,60.0553)"
           id="g3668"><path
             id="path3670"
             style="fill:#ffffff;fill-opacity:1;fill-rule:nonzero;stroke:none"
             d="m 0,0 c 0,0 -1.199,0.093 -2.493,1.631 0,0 1.702,0.556 2.493,-1.631" /></g><g
           transform="translate(49.9349,66.5202)"
           id="g3672"><path
             id="path3674"
             style="fill:#ffffff;fill-opacity:1;fill-rule:nonzero;stroke:none"
             d="m 0,0 c 0,0 0.547,-3.024 1.987,-2.745 0,0 0.101,1.913 -1.987,2.745" /></g><g
           transform="translate(51.3714,63.3952)"
           id="g3676"><path
             id="path3678"
             style="fill:#ffffff;fill-opacity:1;fill-rule:nonzero;stroke:none"
             d="M 0,0 C 0,0 -1.155,-0.296 -2.911,0.568 -2.911,0.568 -1.517,1.56 0,0" /></g><g
           transform="translate(47.3763,68.3249)"
           id="g3680"><path
             id="path3682"
             style="fill:#ffffff;fill-opacity:1;fill-rule:nonzero;stroke:none"
             d="M 0,0 C 0,0 0.592,-2.601 1.758,-2.319 1.758,-2.319 1.749,-0.664 0,0" /></g><g
           transform="translate(48.723,65.6901)"
           id="g3684"><path
             id="path3686"
             style="fill:#ffffff;fill-opacity:1;fill-rule:nonzero;stroke:none"
             d="m 0,0 c 0,0 -1.054,-0.564 -2.964,-0.14 0,0 1.118,1.293 2.964,0.14" /></g><g
           transform="translate(47.0276,67.1637)"
           id="g3688"><path
             id="path3690"
             style="fill:#ffffff;fill-opacity:1;fill-rule:nonzero;stroke:none"
             d="m 0,0 c 0,0 -1.352,-0.501 -3.6,0.041 0,0 1.539,1.23 3.6,-0.041" /></g><g
           transform="translate(41.972,38.9743)"
           id="g3692"><path
             id="path3694"
             style="fill:#ffffff;fill-opacity:1;fill-rule:nonzero;stroke:none"
             d="m 0,0 c 0,0 -4.994,-1.031 -5.168,1.873 0,0 1.329,-1.675 3.397,-1.381 0,0 0.393,1.725 -3.397,1.725 0,0 2.042,2.139 5.168,-0.984 l 0.651,0 C 3.775,4.356 5.818,2.217 5.818,2.217 2.029,2.217 2.423,0.492 2.423,0.492 4.489,0.198 5.818,1.873 5.818,1.873 5.646,-1.031 0.651,0 0.651,0 L 0,0 Z" /></g><g
           transform="translate(32.5745,42.278)"
           id="g3696"><path
             id="path3698"
             style="fill:#ffffff;fill-opacity:1;fill-rule:nonzero;stroke:none"
             d="M 0,0 C 0,0 3.578,1.196 4.056,-0.287 4.056,-0.287 2.037,-1.457 0,0" /></g><g
           transform="translate(37.9095,42.9323)"
           id="g3700"><path
             id="path3702"
             style="fill:#ffffff;fill-opacity:1;fill-rule:nonzero;stroke:none"
             d="m 0,0 c 0,0 -0.745,1.309 -3.169,1.961 0,0 0.272,-2.224 3.169,-1.961" /></g><g
           transform="translate(29.4886,46.1442)"
           id="g3704"><path
             id="path3706"
             style="fill:#ffffff;fill-opacity:1;fill-rule:nonzero;stroke:none"
             d="M 0,0 C 0,0 3.773,0.066 3.773,-2.264 3.773,-2.264 1.493,-3.002 0,0" /></g><g
           transform="translate(33.5569,44.6677)"
           id="g3708"><path
             id="path3710"
             style="fill:#ffffff;fill-opacity:1;fill-rule:nonzero;stroke:none"
             d="M 0,0 C 0,0 0.427,1.442 -0.787,3.643 -0.787,3.643 -2.199,1.904 0,0" /></g><g
           transform="translate(28.388,49.0954)"
           id="g3712"><path
             id="path3714"
             style="fill:#ffffff;fill-opacity:1;fill-rule:nonzero;stroke:none"
             d="M 0,0 C 0,0 2.945,-0.669 2.5,-2.479 2.5,-2.479 0.588,-2.616 0,0" /></g><g
           transform="translate(31.2679,47.1706)"
           id="g3716"><path
             id="path3718"
             style="fill:#ffffff;fill-opacity:1;fill-rule:nonzero;stroke:none"
             d="M 0,0 C 0,0 0.607,1.042 0.084,2.981 0.084,2.981 -1.345,1.899 0,0" /></g><g
           transform="translate(27.8148,52.2028)"
           id="g3720"><path
             id="path3722"
             style="fill:#ffffff;fill-opacity:1;fill-rule:nonzero;stroke:none"
             d="m 0,0 c 0,0 2.701,-1.352 1.837,-3.005 0,0 -1.889,0.323 -1.837,3.005" /></g><g
           transform="translate(30.1536,49.6481)"
           id="g3724"><path
             id="path3726"
             style="fill:#ffffff;fill-opacity:1;fill-rule:nonzero;stroke:none"
             d="M 0,0 C 0,0 0.838,0.866 0.791,2.872 0.791,2.872 -0.853,2.163 0,0" /></g><g
           transform="translate(27.5901,55.489)"
           id="g3728"><path
             id="path3730"
             style="fill:#ffffff;fill-opacity:1;fill-rule:nonzero;stroke:none"
             d="m 0,0 c 0,0 2.301,-1.956 1.067,-3.355 0,0 -1.758,0.764 -1.067,3.355" /></g><g
           transform="translate(29.2503,52.4518)"
           id="g3732"><path
             id="path3734"
             style="fill:#ffffff;fill-opacity:1;fill-rule:nonzero;stroke:none"
             d="M 0,0 C 0,0 1.021,0.64 1.454,2.603 1.454,2.603 -0.312,2.304 0,0" /></g><g
           transform="translate(28.2425,58.4499)"
           id="g3736"><path
             id="path3738"
             style="fill:#ffffff;fill-opacity:1;fill-rule:nonzero;stroke:none"
             d="m 0,0 c 0,0 1.498,-2.619 0.451,-3.204 0,0 -1.22,1.408 -0.451,3.204" /></g><g
           transform="translate(29.222,55.2712)"
           id="g3740"><path
             id="path3742"
             style="fill:#ffffff;fill-opacity:1;fill-rule:nonzero;stroke:none"
             d="M 0,0 C 0,0 1.177,0.264 2.239,1.968 2.239,1.968 0.476,2.276 0,0" /></g><g
           transform="translate(29.4544,61.1198)"
           id="g3744"><path
             id="path3746"
             style="fill:#ffffff;fill-opacity:1;fill-rule:nonzero;stroke:none"
             d="m 0,0 c 0,0 0.831,-2.901 -0.326,-3.219 0,0 -0.849,1.657 0.326,3.219" /></g><g
           transform="translate(29.6487,57.7975)"
           id="g3748"><path
             id="path3750"
             style="fill:#ffffff;fill-opacity:1;fill-rule:nonzero;stroke:none"
             d="M 0,0 C 0,0 1.204,-0.023 2.645,1.379 2.645,1.379 1.004,2.1 0,0" /></g><g
           transform="translate(30.3919,63.3386)"
           id="g3752"><path
             id="path3754"
             style="fill:#ffffff;fill-opacity:1;fill-rule:nonzero;stroke:none"
             d="m 0,0 c 0,0 1.113,-2.804 -0.007,-3.236 0,0 -1.008,1.569 0.007,3.236" /></g><g
           transform="translate(31.5735,65.3083)"
           id="g3756"><path
             id="path3758"
             style="fill:#ffffff;fill-opacity:1;fill-rule:nonzero;stroke:none"
             d="m 0,0 c 0,0 1.118,-2.806 -0.164,-3.298 0,0 -1.061,1.547 0.164,3.298" /></g><g
           transform="translate(30.9124,60.0553)"
           id="g3760"><path
             id="path3762"
             style="fill:#ffffff;fill-opacity:1;fill-rule:nonzero;stroke:none"
             d="M 0,0 C 0,0 1.201,0.093 2.495,1.631 2.495,1.631 0.793,2.187 0,0" /></g><g
           transform="translate(34.6605,66.5202)"
           id="g3764"><path
             id="path3766"
             style="fill:#ffffff;fill-opacity:1;fill-rule:nonzero;stroke:none"
             d="m 0,0 c 0,0 -0.547,-3.024 -1.987,-2.745 0,0 -0.101,1.913 1.987,2.745" /></g><g
           transform="translate(33.2239,63.3952)"
           id="g3768"><path
             id="path3770"
             style="fill:#ffffff;fill-opacity:1;fill-rule:nonzero;stroke:none"
             d="M 0,0 C 0,0 1.156,-0.296 2.911,0.568 2.911,0.568 1.517,1.56 0,0" /></g><g
           transform="translate(37.2191,68.3249)"
           id="g3772"><path
             id="path3774"
             style="fill:#ffffff;fill-opacity:1;fill-rule:nonzero;stroke:none"
             d="m 0,0 c 0,0 -0.592,-2.601 -1.757,-2.319 0,0 0.007,1.655 1.757,2.319" /></g><g
           transform="translate(35.8733,65.6901)"
           id="g3776"><path
             id="path3778"
             style="fill:#ffffff;fill-opacity:1;fill-rule:nonzero;stroke:none"
             d="M 0,0 C 0,0 1.053,-0.564 2.963,-0.14 2.963,-0.14 1.844,1.153 0,0" /></g><g
           transform="translate(37.5677,67.1637)"
           id="g3780"><path
             id="path3782"
             style="fill:#ffffff;fill-opacity:1;fill-rule:nonzero;stroke:none"
             d="M 0,0 C 0,0 1.353,-0.501 3.599,0.041 3.599,0.041 2.062,1.271 0,0" /></g></g></g>
<g
       transform="matrix(8,0,0,8,-1359.9026,-4836.4365)"
       id="g4173"><g
         id="g4006"><g
           id="g4008"
           clip-path="url(#clipPath4010)"><g
             id="g4014"
             transform="translate(197.4128,692.8765)"><path
               d="m 0,0 c 0.421,0.281 0.654,0.704 0.654,1.203 l 0,0.068 c 0,0.467 -0.199,0.855 -0.548,1.07 -0.303,0.182 -0.777,0.275 -1.408,0.275 l -1.093,0 c -0.206,0 -0.434,-0.006 -0.612,-0.011 L -3.141,2.6 l 0,-4.496 0.955,0 0,1.656 1.269,0 c 0.322,-0.333 0.69,-0.93 0.974,-1.573 l 0.036,-0.083 1.01,0 -0.084,0.195 C 0.756,-1.113 0.35,-0.44 0,0 m -0.305,1.246 0,-0.038 c 0,-0.303 -0.099,-0.51 -0.322,-0.666 l -1.559,0 0,1.291 0.894,0 c 0.424,0 0.691,-0.052 0.828,-0.163 0.108,-0.084 0.159,-0.227 0.159,-0.424 m 5.805,-2.967 0.047,-0.175 -2.73,0 c -0.208,0 -0.447,0.007 -0.61,0.012 l -0.136,0.005 0,4.479 0.136,0.005 c 0.165,0.005 0.406,0.011 0.61,0.011 l 2.715,0 L 5.494,2.447 C 5.462,2.311 5.437,2.151 5.415,1.956 l -0.012,-0.123 -2.379,0 0,-1.038 c 0.242,0.014 0.473,0.017 0.604,0.017 l 1.194,0 0,-0.784 -1.798,0 0,-1.14 2.362,0 0.017,-0.121 C 5.428,-1.42 5.46,-1.579 5.5,-1.721 m 4.782,2.401 0.136,-0.005 0,-2.444 -0.11,-0.025 C 9.802,-1.9 9.213,-1.957 8.647,-1.957 7.891,-1.957 7.307,-1.805 6.909,-1.5 6.438,-1.12 6.21,-0.527 6.21,0.316 l 0,0.113 c 0,0.854 0.285,1.476 0.851,1.852 0.398,0.264 0.961,0.398 1.669,0.398 0.44,0 0.964,-0.072 1.402,-0.193 L 10.255,2.453 10.128,1.708 9.984,1.743 C 9.59,1.84 9.166,1.89 8.723,1.89 8.236,1.89 7.862,1.793 7.612,1.604 7.343,1.398 7.182,0.952 7.182,0.416 l 0,-0.087 c 0,-1.106 0.383,-1.498 1.461,-1.498 0.347,0 0.616,0.012 0.834,0.039 l 0,1.062 -1.063,-0.019 0,0.781 1.197,0 c 0.239,0 0.51,-0.009 0.671,-0.014 m 1.5,1.936 0.953,0 0,-4.512 -0.953,0 0,4.512 z m 4.479,0.063 C 15.583,2.679 15.03,2.502 14.664,2.169 14.232,1.782 14.005,1.203 14.005,0.491 l 0,-0.262 c 0,-0.719 0.225,-1.302 0.651,-1.683 0.364,-0.33 0.919,-0.503 1.605,-0.503 0.675,0 1.226,0.173 1.601,0.503 0.428,0.393 0.657,0.973 0.657,1.683 l 0,0.262 c 0,0.711 -0.229,1.291 -0.661,1.684 -0.371,0.33 -0.922,0.504 -1.597,0.504 m 0,-3.848 c -0.4,0 -0.714,0.096 -0.904,0.274 -0.238,0.229 -0.38,0.66 -0.38,1.155 l 0,0.201 c 0,0.487 0.145,0.917 0.388,1.145 0.193,0.186 0.504,0.284 0.896,0.284 0.413,0 0.716,-0.094 0.904,-0.275 0.24,-0.229 0.381,-0.659 0.381,-1.154 l 0,-0.201 c 0,-0.495 -0.141,-0.926 -0.383,-1.157 -0.186,-0.18 -0.489,-0.272 -0.902,-0.272 m 6.758,3.785 0.926,0 0,-4.551 -0.973,0 -0.04,0.067 c -0.737,1.192 -1.529,2.34 -2.217,3.21 l 0,-3.238 -0.93,0 0,4.512 0.949,0 0.042,-0.048 c 0.703,-0.821 1.597,-2.023 2.243,-3.005 l 0,3.053 z m 4.81,-0.081 -0.036,0.081 -0.964,0 -0.038,-0.08 C 26.247,1.378 25.535,-0.287 24.982,-1.707 l -0.074,-0.189 1.019,0 0.032,0.091 c 0.116,0.328 0.22,0.609 0.309,0.84 l 2.052,0 c 0.108,-0.263 0.224,-0.564 0.32,-0.84 l 0.034,-0.091 1.018,0 -0.074,0.189 c -0.553,1.416 -1.256,3.082 -1.789,4.242 m 0.19,-2.736 -1.444,0 c 0.248,0.617 0.495,1.193 0.733,1.696 0.214,-0.475 0.453,-1.044 0.711,-1.696 m 5.882,-1.695 -2.499,0 c -0.208,0 -0.447,0.007 -0.613,0.012 l -0.133,0.005 0,4.495 0.953,0 0,-3.728 2.164,0 0.009,-0.128 c 0.011,-0.149 0.04,-0.33 0.078,-0.485 l 0.041,-0.171 z"
               style="fill:#de1b34;fill-opacity:1;fill-rule:nonzero;stroke:none"
               id="path4016" /></g></g></g><g
         id="g4018"><g
           id="g4020"><g
             id="g4026"><g
               id="g4028"><path
                 d="m 264.263,695.804 -4.415,-4.455 7.443,0 c 10.136,1.086 13.099,4.489 14.968,8.839 l 0,0 1.914,4.993 c -5.587,-0.16 -14.018,-3.451 -19.91,-9.377"
                 style="fill:url(#linearGradient4030);stroke:none"
                 id="path4038" /></g></g></g></g><g
         id="g4040"><g
           id="g4042"><g
             id="g4048"><g
               id="g4050"><path
                 d="m 275.401,707.083 -5.378,-5.444 c 5.107,3.664 10.196,5.876 15.266,6.449 l 0,0 1.237,3.222 -0.001,0 c -7.508,0 -8.528,-1.639 -11.124,-4.227"
                 style="fill:url(#linearGradient4052);stroke:none"
                 id="path4060" /></g></g></g></g><g
         id="g4062"><g
           id="g4064"><g
             id="g4070"><g
               id="g4072"><path
                 d="m 251.122,709.283 c -0.818,-1.214 -1.716,-2.733 -2.7,-4.677 l 0,0 c -0.994,-1.955 -1.889,-3.962 -2.447,-5.487 l 0,0 3.319,0 c 0.201,0.636 0.447,1.28 0.707,1.884 l 0,0 5.451,0 c 0.263,-0.601 0.496,-1.207 0.712,-1.884 l 0,0 3.317,0 c -0.589,1.528 -1.447,3.52 -2.44,5.475 l 0,0 c -0.986,1.946 -1.874,3.471 -2.706,4.689 l 0,0 -3.213,0 z m 1.603,-2.402 c 0.684,-1.226 1.298,-2.47 1.982,-3.996 l 0,0 -3.958,0 c 0.667,1.496 1.282,2.739 1.976,3.996 m -25.376,2.402 c -0.161,-1.561 -0.246,-3.417 -0.246,-5.08 l 0,0 c 0,-1.652 0.085,-3.315 0.248,-5.084 l 0,0 3.143,0 c -0.138,1.315 -0.201,2.444 -0.246,3.772 l 0,0 3.164,0 c 0.229,-0.253 0.608,-0.737 1.004,-1.365 l 0,0 c 0.462,-0.726 0.818,-1.442 1.216,-2.407 l 0,0 3.515,0 c -0.462,0.881 -0.963,1.675 -1.713,2.733 l 0,0 c -0.432,0.607 -0.837,1.097 -1.207,1.465 l 0,0 c 1.317,0.463 2.133,1.576 2.133,2.928 l 0,0 c 0,0.773 -0.276,1.506 -0.761,2.013 l 0,0 c -0.684,0.708 -1.751,1.025 -3.456,1.025 l 0,0 -6.794,0 z m 2.992,-1.904 2.764,0 c 1.019,0 1.514,-0.127 1.832,-0.462 l 0,0 c 0.186,-0.188 0.301,-0.491 0.301,-0.81 l 0,0 c 0,-0.547 -0.284,-1.032 -0.779,-1.334 l 0,0 -4.213,0 c 0.002,0.75 0.033,1.605 0.095,2.606 m -15.555,1.904 c -0.15,-1.611 -0.249,-3.435 -0.249,-5.088 l 0,0 c 0,-1.644 0.111,-3.451 0.249,-5.076 l 0,0 9.699,0 c -0.052,0.678 -0.092,1.295 -0.129,2.024 l 0,0 -6.599,0 c -0.053,0.765 -0.077,1.466 -0.077,2.149 l 0,0 6.09,0 0,1.917 -6.09,0 c 0,0.557 0.02,1.37 0.077,2.047 l 0,0 6.593,0 c 0.032,0.714 0.072,1.309 0.135,2.027 l 0,0 -9.699,0 z m -13.84,0 c -0.161,-1.519 -0.249,-3.432 -0.249,-5.08 l 0,0 c 0,-1.652 0.077,-3.27 0.249,-5.084 l 0,0 5.993,0 c 2.118,0 3.424,0.247 4.236,0.8 l 0,0 c 0.622,0.429 1.01,1.281 1.01,2.224 l 0,0 c 0,1.112 -0.634,1.998 -1.747,2.453 l 0,0 c 0.741,0.414 1.211,1.216 1.211,2.08 l 0,0 c 0,0.804 -0.231,1.36 -0.749,1.802 l 0,0 c -0.875,0.742 -2.476,0.805 -4.182,0.805 l 0,0 -5.772,0 z m 2.992,-1.924 2.656,0 c 1.076,0 1.436,-0.08 1.743,-0.391 l 0,0 c 0.154,-0.159 0.25,-0.44 0.25,-0.752 l 0,0 c 0,-0.428 -0.174,-0.8 -0.49,-1.044 l 0,0 -4.254,0 c 0.011,0.761 0.04,1.467 0.095,2.187 m -0.098,-4.027 3.828,0 c 0.552,0 0.836,-0.074 1.083,-0.286 l 0,0 c 0.233,-0.197 0.341,-0.446 0.341,-0.778 l 0,0 c 0,-0.349 -0.103,-0.622 -0.308,-0.829 l 0,0 c -0.299,-0.279 -0.72,-0.397 -1.454,-0.397 l 0,0 -3.392,0 c -0.068,0.806 -0.095,1.622 -0.098,2.29 m 37.609,5.948 c -0.161,-1.452 -0.252,-3.37 -0.247,-5.167 l 0,0 c 0.004,-1.72 0.07,-3.374 0.245,-4.994 l 0,0 2.707,0 c 0.184,1.612 0.246,3.27 0.248,4.995 l 0,0 c 0.004,1.793 -0.098,3.726 -0.244,5.166 l 0,0 -2.709,0 z m -46.929,0 c -0.161,-1.452 -0.25,-3.37 -0.248,-5.167 l 0,0 c 0.005,-1.72 0.072,-3.374 0.248,-4.994 l 0,0 2.709,0 c 0.181,1.612 0.241,3.27 0.245,4.995 l 0,0 c 0.004,1.793 -0.097,3.726 -0.244,5.166 l 0,0 -2.71,0 z"
                 style="fill:url(#linearGradient4074);stroke:none"
                 id="path4082" /></g></g></g></g><g
         id="g4092"
         transform="translate(298.5831,709.1216)"><path
           d="m 0,0 c 1.353,-2.94 2.999,-6.885 4.164,-9.869 l -1.675,0 c -0.248,0.7 -0.553,1.5 -0.831,2.172 l -5.225,0 c -0.262,-0.672 -0.554,-1.472 -0.802,-2.172 l -1.673,0 C -4.877,-6.885 -3.219,-2.94 -1.834,0 L 0,0 Z m 1.207,-6.563 c -0.726,1.861 -1.455,3.61 -2.124,5.037 -0.699,-1.427 -1.457,-3.176 -2.184,-5.037 l 4.308,0 z m 6.15,-3.306 -1.573,0 0,9.869 1.573,0 0,-9.869 z M 14.084,0 c 1.326,0 2.418,-0.174 3.117,-0.595 0.712,-0.439 1.121,-1.238 1.121,-2.213 l 0,-0.159 c 0,-1.208 -0.64,-2.154 -1.69,-2.724 0.842,-0.975 1.893,-2.678 2.562,-4.178 l -1.645,0 c -0.642,1.455 -1.572,3.015 -2.43,3.857 l -3.422,0 0,-3.857 -1.572,0 0,9.843 C 10.562,-0.013 11.072,0 11.538,0 l 2.546,0 z m -2.387,-4.832 4.06,0 c 0.656,0.423 0.978,1.021 0.978,1.879 l 0,0.086 c 0,0.552 -0.161,0.977 -0.495,1.238 -0.394,0.32 -1.108,0.45 -2.127,0.45 l -2.416,0 0,-3.653 z"
           style="fill:#de1b34;fill-opacity:1;fill-rule:nonzero;stroke:none"
           id="path4094" /></g><g
         id="g4096"
         transform="translate(322.6038,709.1216)"><path
           d="m 0,0 c 1.938,-2.255 4.371,-5.603 5.795,-7.903 l 0,7.903 1.514,0 0,-9.955 -1.76,0 c -1.849,2.997 -3.96,6.039 -5.767,8.223 l 0,-8.137 -1.512,0 L -1.73,0 0,0 Z m 9.63,-4.626 c 0,1.483 0.453,2.793 1.43,3.668 0.783,0.712 1.995,1.105 3.509,1.105 1.51,0 2.719,-0.393 3.505,-1.092 0.974,-0.888 1.429,-2.198 1.429,-3.681 l 0,-0.613 c 0,-1.485 -0.455,-2.796 -1.429,-3.684 -0.786,-0.698 -1.995,-1.092 -3.505,-1.092 -1.514,0 -2.741,0.379 -3.526,1.092 -0.975,0.873 -1.413,2.199 -1.413,3.684 l 0,0.613 z m 1.616,-0.541 c 0,-1.281 0.381,-2.344 0.989,-2.924 0.495,-0.467 1.281,-0.729 2.334,-0.729 1.044,0 1.83,0.247 2.325,0.729 0.612,0.58 0.989,1.643 0.989,2.924 l 0,0.465 c 0,1.283 -0.377,2.345 -0.989,2.928 -0.495,0.48 -1.281,0.728 -2.325,0.728 -1.053,0 -1.822,-0.278 -2.315,-0.744 -0.614,-0.582 -1.008,-1.629 -1.008,-2.912 l 0,-0.465 z m 16.763,3.799 c -1.034,0.249 -1.896,0.334 -2.825,0.334 -1.748,0 -2.343,-0.639 -2.343,-1.423 0,-0.73 0.583,-1.282 1.849,-1.617 l 0.888,-0.234 c 1.164,-0.307 1.848,-0.611 2.329,-1.018 0.538,-0.454 0.729,-0.976 0.729,-1.821 0,-1.718 -1.297,-2.868 -3.802,-2.868 -1.338,0 -2.503,0.219 -3.638,0.613 l 0.247,1.134 c 1.061,-0.349 2.169,-0.568 3.391,-0.568 1.601,0 2.302,0.655 2.302,1.632 0,0.364 -0.116,0.74 -0.32,0.931 -0.277,0.278 -0.773,0.493 -1.806,0.771 l -0.862,0.234 c -2.181,0.596 -2.834,1.529 -2.834,2.795 0,1.645 1.512,2.62 3.827,2.62 1.15,0 2.243,-0.173 3.056,-0.407 L 28.009,-1.368 Z M 38.729,0 c -0.074,-0.376 -0.131,-0.757 -0.175,-1.177 l -3.745,0 0,-8.692 -1.569,0 0,8.692 -3.698,0 0,1.177 9.187,0 z m 5.494,0 c 1.322,0 2.417,-0.174 3.113,-0.594 0.714,-0.44 1.121,-1.239 1.121,-2.214 l 0,-0.159 c 0,-1.208 -0.64,-2.154 -1.688,-2.723 0.845,-0.976 1.893,-2.679 2.564,-4.179 l -1.647,0 c -0.642,1.455 -1.572,3.015 -2.429,3.857 l -3.423,0 0,-3.857 -1.571,0 0,9.843 C 40.699,-0.013 41.207,0 41.675,0 l 2.548,0 z m -2.389,-4.832 4.06,0 c 0.657,0.423 0.979,1.02 0.979,1.879 l 0,0.086 c 0,0.552 -0.161,0.977 -0.496,1.238 -0.394,0.32 -1.108,0.452 -2.126,0.452 l -2.417,0 0,-3.655 z M 52.512,0 l 0,-6.302 c 0,-0.7 0.072,-1.41 0.479,-1.85 0.407,-0.45 1.222,-0.668 2.198,-0.668 l 0.058,0 c 0.991,0 1.791,0.218 2.213,0.668 0.409,0.44 0.481,1.15 0.481,1.85 l 0,6.302 1.571,0 0,-5.268 c 0,-1.734 0.03,-2.867 -0.801,-3.684 -0.713,-0.697 -1.776,-1.063 -3.42,-1.063 l -0.144,0 c -1.646,0 -2.694,0.366 -3.42,1.063 -0.816,0.817 -0.788,1.95 -0.788,3.684 l 0,5.268 1.573,0 z m 11.941,0 c 1.313,-2.823 2.505,-5.121 3.336,-6.652 0.842,1.531 2.035,3.829 3.333,6.652 l 1.921,0 c 0.292,-2.255 0.671,-7.408 0.758,-9.869 l -1.544,0 c -0.015,1.515 -0.334,6.187 -0.553,8.124 -0.989,-2.039 -2.46,-4.907 -3.291,-6.407 l -1.309,0 c -0.844,1.5 -2.331,4.413 -3.303,6.464 -0.206,-1.994 -0.496,-6.666 -0.526,-8.181 l -1.544,0 c 0.104,2.461 0.511,7.614 0.786,9.869 l 1.936,0 z"
           style="fill:#009ad9;fill-opacity:1;fill-rule:nonzero;stroke:none"
           id="path4098" /></g></g></g></svg>