<?xml version="1.0" encoding="UTF-8"?>
<!-- Generator: Adobe Illustrator 13.0.2, SVG Export Plug-In . SVG Version: 6.00 Build 14948)  -->
<!DOCTYPE svg PUBLIC "-//W3C//DTD SVG 1.1//EN" "http://www.w3.org/Graphics/SVG/1.1/DTD/svg11.dtd" [
	<!ENTITY ns_extend "http://ns.adobe.com/Extensibility/1.0/">
	<!ENTITY ns_ai "http://ns.adobe.com/AdobeIllustrator/10.0/">
	<!ENTITY ns_graphs "http://ns.adobe.com/Graphs/1.0/">
	<!ENTITY ns_vars "http://ns.adobe.com/Variables/1.0/">
	<!ENTITY ns_imrep "http://ns.adobe.com/ImageReplacement/1.0/">
	<!ENTITY ns_sfw "http://ns.adobe.com/SaveForWeb/1.0/">
	<!ENTITY ns_custom "http://ns.adobe.com/GenericCustomNamespace/1.0/">
	<!ENTITY ns_adobe_xpath "http://ns.adobe.com/XPath/1.0/">
]>
<svg version="1.1" id="Layer_1" xmlns:x="http://ns.adobe.com/Extensibility/1.0/" xmlns:i="http://ns.adobe.com/AdobeIllustrator/10.0/" xmlns:graph="http://ns.adobe.com/Graphs/1.0/" xmlns="http://www.w3.org/2000/svg" xmlns:xlink="http://www.w3.org/1999/xlink" x="0px" y="0px" width="128.5px" height="27px" viewBox="0 0 128.5 27" enable-background="new 0 0 128.5 27" xml:space="preserve">
<path fill="#ED1C24" d="M24.954,6.008c-0.154,0.065-2.173-0.223-2.639-0.304c-0.466-0.081-1.4,0.153-1.4,0.153  c-2.43,1.764-7.221,8.443-7.43,8.726c-0.209,0.284-1.896,2.544-1.896,2.544s0.325-0.211-3.889,5.036  c-4.213,5.248-6.783,2.821-6.783,2.821c-0.331-0.279-0.533-0.022-0.486,0.155c0.044,0.161,0.271,0.305,0.271,0.305  c4.056,2.525,7.641-2.425,7.641-2.425s3.892-5.02,4.072-5.272c0.179-0.251,0.396-0.227,0.396-0.227s2.324,0.126,3.192,0.196  c0.868,0.071,0.46,1.07,0.46,1.07s-0.657,2.152-1.817,5.091c-1.163,2.938,1.928,2.828,1.928,2.828c1.398,0.18,1.64-1.219,1.64-1.219  l4.362-11.962c0,0,2.773-6.476,2.886-6.881C25.576,6.24,25.105,5.942,24.954,6.008 M21.148,7.655c0,0-3.042,6.971-3.235,7.423  c-0.192,0.454-0.354,0.458-0.564,0.3c-0.206-0.158-2.377-0.509-2.377-0.509c-0.533-0.067-0.018-0.694-0.018-0.694  c3.622-5.026,5.506-6.299,5.903-6.717C21.254,7.041,21.148,7.655,21.148,7.655"/>
<path fill="#173667" d="M18.73,2.946c0.115,1.112,0.568,1.531,1.451,1.409c0.884-0.121,6.031-1.448,9.14-1.482  c0,0-6.139,13.012-7.081,17.289c0,0-0.668,1.803,0.496,1.803c1.165,0,3.286-0.342,3.521-1.008  c0.235-0.667,4.742-15.319,6.461-17.662c0,0,0.418-1.124,2.051-1.177C36.4,2.065,44.215,1.22,48.803,1.634  c0,0,0.91,0.109,0.773-0.256c-0.061-0.16-0.187-0.205-0.435-0.286c-0.454-0.149-13.473-1.333-24.473,0.161  C24.668,1.253,18.616,1.835,18.73,2.946"/>
<path fill="#173667" d="M40.039,16.441c-0.208-0.011-0.385-0.034-0.572-0.034c-0.209,0-0.395,0.023-0.583,0.034  c-0.319-0.915-0.716-1.971-1.156-2.973h-2.797c-0.384,0.969-0.781,1.938-1.088,2.973c-0.154-0.011-0.276-0.034-0.407-0.034  c-0.144,0-0.265,0.023-0.387,0.034l3.436-7.696h0.252L40.039,16.441z M36.34,10.188l-1.2,2.818h2.423L36.34,10.188z"/>
<path fill="#173667" d="M41.746,9.857c-0.308,0-0.56-0.253-0.56-0.562c0-0.308,0.252-0.561,0.56-0.561  c0.297,0,0.562,0.253,0.562,0.561C42.308,9.604,42.043,9.857,41.746,9.857 M42.188,16.441c-0.166-0.011-0.298-0.034-0.442-0.034  c-0.154,0-0.296,0.023-0.439,0.034v-5.263c0.143,0.011,0.285,0.033,0.439,0.033c0.144,0,0.276-0.022,0.442-0.033V16.441z"/>
<path fill="#173667" d="M44.146,11.179c0.143,0.011,0.285,0.033,0.439,0.033c0.145,0,0.276-0.022,0.442-0.033v1.101l0.055-0.132  c0.364-0.573,0.837-1.035,1.387-1.035c0.154,0,0.243,0.011,0.341,0.055l-0.154,0.925c-0.164-0.044-0.331-0.177-0.517-0.177  c-0.243,0-0.541,0.088-0.705,0.275c-0.385,0.44-0.407,0.804-0.407,1.398v2.852c-0.166-0.011-0.297-0.034-0.442-0.034  c-0.154,0-0.296,0.023-0.439,0.034V11.179z"/>
<path fill="#173667" d="M48.032,8.173c0.143,0.012,0.285,0.033,0.439,0.033c0.144,0,0.276-0.021,0.442-0.033v8.269  c-0.166-0.011-0.298-0.034-0.442-0.034c-0.154,0-0.296,0.023-0.439,0.034V8.173z"/>
<path fill="#173667" d="M51.533,9.857c-0.308,0-0.562-0.253-0.562-0.562c0-0.308,0.253-0.561,0.562-0.561  c0.297,0,0.561,0.253,0.561,0.561C52.094,9.604,51.83,9.857,51.533,9.857 M51.973,16.441c-0.164-0.011-0.297-0.034-0.44-0.034  c-0.154,0-0.297,0.023-0.44,0.034v-5.263c0.144,0.011,0.286,0.033,0.44,0.033c0.144,0,0.276-0.022,0.44-0.033V16.441z"/>
<path fill="#173667" d="M53.912,11.179c0.142,0.011,0.285,0.033,0.439,0.033c0.144,0,0.275-0.022,0.44-0.033v1.002  c0.385-0.672,0.991-1.068,1.773-1.068c1.277,0,1.772,0.693,1.772,2.146v3.183c-0.166-0.011-0.297-0.034-0.44-0.034  c-0.154,0-0.297,0.023-0.44,0.034v-2.929c0-1.023-0.187-1.827-1.223-1.827c-1.155,0-1.442,0.847-1.442,2.201v2.555  c-0.166-0.011-0.297-0.034-0.44-0.034c-0.154,0-0.297,0.023-0.439,0.034V11.179z"/>
<path fill="#173667" d="M64.049,15.879c-0.538,0.386-1.221,0.65-1.893,0.65c-1.519,0-2.598-1.002-2.598-2.708  c0-1.53,0.881-2.708,2.521-2.708c1.223,0,2.345,0.858,2.233,2.697c-0.747-0.022-1.495-0.033-2.233-0.033h-1.552  c-0.1,1.232,0.572,2.29,1.903,2.29c0.75,0,1.333-0.473,1.63-0.76L64.049,15.879z M63.455,13.37  c-0.022-0.958-0.286-1.917-1.376-1.917c-1.035,0-1.486,0.991-1.552,1.917H63.455z"/>
<path fill="#173667" d="M65.47,15.373c0.264,0.43,0.748,0.814,1.265,0.814c0.541,0,1.08-0.418,1.08-1.001  c0-1.486-2.598-0.518-2.598-2.444c0-1.057,0.804-1.629,1.794-1.629c0.571,0,1.047,0.165,1.244,0.286  c-0.109,0.254-0.197,0.518-0.265,0.782h-0.1c-0.143-0.363-0.527-0.727-0.936-0.727c-0.55,0-1.001,0.319-1.001,0.915  c0,1.409,2.598,0.66,2.598,2.421c0,1.178-1.057,1.74-2.025,1.74c-0.45,0-0.99-0.122-1.376-0.352  c0.088-0.265,0.187-0.529,0.231-0.804H65.47z"/>
<path fill="#173667" d="M75.213,11.113c1.509,0,2.555,1.046,2.555,2.686c0,1.398-0.936,2.73-2.754,2.73  c-1.484,0-2.697-1.09-2.598-2.764C72.416,12.181,73.627,11.113,75.213,11.113 M73.386,13.931c0,1.09,0.463,2.257,1.717,2.257  c1.288,0,1.695-1.585,1.695-2.443c0-0.991-0.374-2.291-1.596-2.291C73.804,11.454,73.386,12.764,73.386,13.931"/>
<path fill="#173667" d="M79.12,11.597h-0.76c0.033-0.132,0.033-0.275,0-0.418h0.76l0.022-0.088c0.165-1.233,0.738-3.093,2.323-2.917  c-0.057,0.287-0.066,0.628-0.057,0.881l-0.054,0.044l-0.221-0.11c-0.121-0.044-0.253-0.055-0.386-0.055  c-1.1,0-1.013,1.244-0.77,2.246h1.123c-0.033,0.143-0.033,0.287,0,0.418h-1.102v4.844c-0.165-0.011-0.297-0.034-0.44-0.034  c-0.153,0-0.297,0.023-0.44,0.034V11.597z"/>
<path fill="#173667" d="M87.873,16.463c-0.176-0.011-0.33-0.032-0.484-0.032c-0.165,0-0.331,0.021-0.485,0.032V9.439  c-1.111,0-1.783,0.066-2.41,0.133c0.011-0.11,0.033-0.22,0.033-0.331c0-0.11-0.022-0.209-0.033-0.329h5.68  c-0.011,0.12-0.033,0.219-0.033,0.329c0,0.111,0.022,0.221,0.033,0.331c-0.55-0.067-1.321-0.133-2.3-0.133V16.463z"/>
<path fill="#173667" d="M93.929,15.516c0,0.429-0.033,0.65,0.617,0.507v0.243c-0.077,0.032-0.208,0.087-0.329,0.11  c-0.572,0.099-1.046,0.011-1.134-0.639l-0.1,0.099c-0.463,0.462-0.97,0.694-1.63,0.694c-0.781,0-1.463-0.529-1.463-1.343  c0-1.255,1.001-1.42,2.036-1.585c0.869-0.143,1.167-0.209,1.167-0.737c0-0.814-0.463-1.288-1.288-1.288  c-0.804,0-1.233,0.518-1.311,0.759h-0.12v-0.617c0.527-0.363,1.122-0.605,1.771-0.605c1.156,0,1.782,0.605,1.782,1.85V15.516z   M93.049,13.7l-0.385,0.077c-0.748,0.143-1.872,0.253-1.872,1.255c0,0.694,0.407,1.035,1.08,1.035c0.296,0,0.672-0.209,0.88-0.418  c0.077-0.077,0.297-0.264,0.297-0.342V13.7z"/>
<path fill="#173667" d="M95.669,15.373c0.265,0.43,0.748,0.814,1.266,0.814c0.54,0,1.079-0.418,1.079-1.001  c0-1.486-2.598-0.518-2.598-2.444c0-1.057,0.804-1.629,1.795-1.629c0.57,0,1.046,0.165,1.244,0.286  c-0.11,0.254-0.198,0.518-0.265,0.782H98.09c-0.142-0.363-0.527-0.727-0.936-0.727c-0.55,0-1.001,0.319-1.001,0.915  c0,1.409,2.598,0.66,2.598,2.421c0,1.178-1.057,1.74-2.025,1.74c-0.45,0-0.99-0.122-1.375-0.352c0.087-0.265,0.187-0.529,0.23-0.804  H95.669z"/>
<path fill="#173667" d="M99.951,11.179c0.144,0.011,0.287,0.033,0.441,0.033c0.142,0,0.274-0.022,0.439-0.033v0.947  c0.364-0.627,0.859-1.013,1.63-1.013c0.715,0,1.375,0.385,1.607,1.09c0.417-0.705,0.979-1.09,1.728-1.09  c1.343,0,1.772,0.782,1.772,2.146v3.183c-0.165-0.011-0.297-0.034-0.44-0.034c-0.154,0-0.297,0.023-0.439,0.034v-2.929  c0-0.98-0.144-1.827-1.222-1.827c-1.114,0-1.268,0.991-1.268,1.783v2.973c-0.164-0.011-0.297-0.034-0.44-0.034  c-0.154,0-0.297,0.023-0.439,0.034v-3.226c0-1.035-0.352-1.53-1.167-1.53c-1.135,0-1.321,0.749-1.321,1.552v3.204  c-0.165-0.011-0.298-0.034-0.439-0.034c-0.154,0-0.298,0.023-0.441,0.034V11.179z"/>
<path fill="#173667" d="M112.887,15.516c0,0.429-0.032,0.65,0.617,0.507v0.243c-0.077,0.032-0.209,0.087-0.331,0.11  c-0.572,0.099-1.045,0.011-1.133-0.639l-0.1,0.099c-0.463,0.462-0.97,0.694-1.629,0.694c-0.781,0-1.464-0.529-1.464-1.343  c0-1.255,1.001-1.42,2.037-1.585c0.867-0.143,1.165-0.209,1.165-0.737c0-0.814-0.462-1.288-1.287-1.288  c-0.804,0-1.232,0.518-1.311,0.759h-0.121v-0.617c0.528-0.363,1.123-0.605,1.772-0.605c1.155,0,1.783,0.605,1.783,1.85V15.516z   M112.007,13.7l-0.385,0.077c-0.749,0.143-1.872,0.253-1.872,1.255c0,0.694,0.407,1.035,1.078,1.035  c0.297,0,0.673-0.209,0.881-0.418c0.076-0.077,0.298-0.264,0.298-0.342V13.7z"/>
<path fill="#173667" d="M114.692,11.179c0.143,0.011,0.286,0.033,0.439,0.033c0.144,0,0.275-0.022,0.44-0.033v1.002  c0.386-0.672,0.991-1.068,1.773-1.068c1.277,0,1.772,0.693,1.772,2.146v3.183c-0.166-0.011-0.298-0.034-0.44-0.034  c-0.154,0-0.297,0.023-0.44,0.034v-2.929c0-1.023-0.188-1.827-1.223-1.827c-1.155,0-1.442,0.847-1.442,2.201v2.555  c-0.165-0.011-0.297-0.034-0.44-0.034c-0.153,0-0.297,0.023-0.439,0.034V11.179z"/>
<path fill="#173667" d="M121.495,9.857c-0.309,0-0.562-0.253-0.562-0.562c0-0.308,0.253-0.561,0.562-0.561  c0.297,0,0.562,0.253,0.562,0.561C122.057,9.604,121.792,9.857,121.495,9.857 M121.936,16.441c-0.165-0.011-0.298-0.034-0.44-0.034  c-0.154,0-0.297,0.023-0.44,0.034v-5.263c0.144,0.011,0.286,0.033,0.44,0.033c0.143,0,0.275-0.022,0.44-0.033V16.441z"/>
<path fill="#173667" d="M127.572,15.516c0,0.429-0.033,0.65,0.616,0.507v0.243c-0.077,0.032-0.209,0.087-0.33,0.11  c-0.572,0.099-1.045,0.011-1.133-0.639l-0.1,0.099c-0.463,0.462-0.97,0.694-1.63,0.694c-0.781,0-1.464-0.529-1.464-1.343  c0-1.255,1.002-1.42,2.037-1.585c0.868-0.143,1.167-0.209,1.167-0.737c0-0.814-0.463-1.288-1.29-1.288  c-0.802,0-1.231,0.518-1.309,0.759h-0.121v-0.617c0.529-0.363,1.123-0.605,1.772-0.605c1.155,0,1.783,0.605,1.783,1.85V15.516z   M126.692,13.7l-0.386,0.077c-0.748,0.143-1.872,0.253-1.872,1.255c0,0.694,0.408,1.035,1.079,1.035  c0.297,0,0.673-0.209,0.882-0.418c0.076-0.077,0.297-0.264,0.297-0.342V13.7z"/>
</svg>