<?xml version="1.0" encoding="utf-8"?>
<!-- Generator: Adobe Illustrator 16.0.0, SVG Export Plug-In . SVG Version: 6.00 Build 0)  -->
<!DOCTYPE svg PUBLIC "-//W3C//DTD SVG 1.1//EN" "http://www.w3.org/Graphics/SVG/1.1/DTD/svg11.dtd">
<svg version="1.1" xmlns="http://www.w3.org/2000/svg" xmlns:xlink="http://www.w3.org/1999/xlink" x="0px" y="0px" width="590px"
	 height="57px" viewBox="0 0 590 57" enable-background="new 0 0 590 57" xml:space="preserve">
<g id="Layer_2">
	<g>
		<g>
			<path fill="#197EF2" d="M371.11,38.524c-0.627-0.62-1.173-1.108-1.832-1.581c-0.402,0.384-0.852,0.872-1.27,1.404
				c0.643,0.487,1.221,0.961,1.88,1.537C370.339,39.5,370.66,39.115,371.11,38.524z M374.212,38.332
				c-0.627-0.62-1.173-1.107-1.832-1.581c-0.402,0.385-0.852,0.872-1.27,1.404c0.643,0.487,1.221,0.96,1.88,1.537
				C373.44,39.309,373.762,38.924,374.212,38.332z M389.543,44.719c0-1.553-1.655-3.43-4.13-5.277l0.385-0.739l-2.619-0.931v-0.089
				c1.832-0.739,3.583-1.39,5.287-1.937c0.868-0.281,1.768-0.532,2.587-0.725c0.435-0.605,0.852-1.212,1.206-1.817l-0.113-0.118
				c-3.696,1.108-6.766,2.084-8.646,2.955c-0.724,0.34-1.028,0.636-1.205,0.902c-0.209,0.325-0.37,0.694-0.37,0.99
				c0,0.502,0.113,1.034,0.579,1.359c2.635,1.878,4.13,3.297,4.837,4.184c0.611,0.768,1.109,1.552,1.109,2.217
				c0,0.178-0.305,0.473-0.884,0.798c-1.093,0.621-2.636,0.769-4.291,0.769h-1.302c-0.852,0-1.414-0.162-1.928-0.562
				c-0.37-0.28-0.563-0.636-0.563-1.196c0-0.37,0.161-1.109,0.386-1.76l-0.096-0.104l-1.093,0.725l-0.707,2.068
				c-0.659,0.267-1.398,0.474-2.138,0.637c-1.784,0.384-3.6,0.664-5.48,0.664c-2.009,0-3.792-0.221-5.11-0.945
				c-1.27-0.709-2.122-1.893-2.122-3.267c0-0.65,0.161-1.404,0.466-2.247l-0.643-0.251c-0.691,1.197-0.948,2.38-0.948,3.577
				c0,1.803,0.932,3.163,2.362,4.006c1.414,0.827,3.311,1.138,5.513,1.138c1.993,0,4.371-0.429,6.235-0.931
				c1.157-0.311,1.977-0.65,2.507-0.946c0.611,1.005,1.704,1.286,3.278,1.286h1.013c2.989,0,4.596-0.547,5.609-1.375
				C389.142,47.186,389.543,46.092,389.543,44.719z M407.591,41.613c0.45-0.384,0.771-0.768,1.222-1.359
				c-0.627-0.621-1.173-1.108-1.832-1.582c-0.401,0.385-0.853,0.873-1.271,1.405C406.354,40.564,406.933,41.037,407.591,41.613z
				 M406.579,37.298c-0.627-0.621-1.174-1.108-1.832-1.581c-0.402,0.384-0.852,0.872-1.27,1.404c0.643,0.487,1.221,0.961,1.88,1.537
				C405.808,38.273,406.128,37.889,406.579,37.298z M405.71,40.446c-0.626-0.621-1.172-1.108-1.831-1.582
				c-0.401,0.384-0.853,0.872-1.27,1.405c0.643,0.487,1.222,0.96,1.88,1.536C404.939,41.422,405.261,41.037,405.71,40.446z
				 M410.002,42.781c-0.515,0.399-0.997,0.843-1.446,1.33c0.209,0.872,0.401,1.818,0.401,2.395c0,0.443-0.401,0.666-0.852,0.666
				c-0.771,0-1.671-0.577-1.671-1.7c0-0.414,0.08-0.976,0.208-1.448l-0.097-0.06l-0.964,0.518c-0.498,1.537-0.578,1.966-1.141,2.35
				c-0.435,0.281-0.964,0.429-1.431,0.429c-1.076,0-2.041-0.945-2.041-1.951c0-0.295,0.016-0.59,0.096-0.887l-0.031-0.104
				c-2.121,0.429-4.13,1.035-5.994,1.744c-0.226,0.65-0.386,1.257-0.482,1.789c0.627,0.635,1.173,1.286,1.173,1.773
				c0,0.709-0.562,1.434-1.591,2.409c-1.27,0.99-2.619,1.641-4.146,1.641c-0.643,0-1.286-0.104-1.961-0.384l-0.241,0.413
				c1.462,0.946,2.764,1.435,3.889,1.435c1.045,0,2.17-0.474,3.552-1.804c0.819-0.917,1.189-1.759,1.237-2.808
				c0.033-0.621,0.064-1.242,0.064-1.863c0-0.34-0.064-0.724-0.193-1.094c1.014-0.458,2.154-0.783,3.729-1.241
				c-0.016,1.7,1.094,2.823,2.652,2.823c1.157,0,1.961-0.68,2.539-1.271h0.129c0.578,0.754,1.317,1.227,2.009,1.227
				c0.932,0,1.768-0.694,2.378-1.626c0.289-0.517,0.579-1.359,0.579-2.024c0-0.621-0.064-1.523-0.257-2.631L410.002,42.781z
				 M434.654,49.152c2.459,0,3.6-0.222,4.323-0.887c0.643-0.784,1.125-1.641,1.125-2.75c0-1.463-0.868-3.311-1.607-4.508h-0.08
				c-0.418,0.473-0.819,1.035-1.206,1.67c0.836,1.508,1.607,2.956,1.607,3.651c0,0.251-0.354,0.458-0.916,0.65
				c-0.707,0.236-1.8,0.28-3.166,0.28h-5.945l-1.109,1.686l0.096,0.207c2.556,0,4.308,0.636,4.678,1.345
				c-0.129,0.295-0.724,0.65-1.447,1.02c-1.943,0.872-3.647,1.271-5.127,1.271c-1.51,0-2.908-0.458-3.888-1.39
				c-0.836-0.798-1.286-1.966-1.286-3.222c0-0.991,0.306-2.202,0.979-3.71l-0.609-0.252c-0.9,1.404-1.512,3.4-1.512,4.878
				c0,1.671,0.402,3.104,1.398,4.124c0.932,0.946,2.362,1.597,4.419,1.597c2.363,0,5.416-1.035,7.49-2.749
				c0.209-0.311,0.723-1.361,0.723-1.848c0-0.297-0.016-0.65-0.064-1.064H434.654z M437.531,53.32
				c0.643,0.487,1.221,0.961,1.88,1.537c0.45-0.385,0.771-0.769,1.222-1.359c-0.627-0.621-1.174-1.109-1.832-1.582
				C438.398,52.301,437.949,52.788,437.531,53.32z M434.43,53.512c0.643,0.488,1.221,0.961,1.88,1.537
				c0.45-0.384,0.771-0.768,1.222-1.359c-0.627-0.621-1.174-1.108-1.832-1.581C435.297,52.492,434.848,52.98,434.43,53.512z
				 M444.49,34.238c-0.498,0.414-1.125,1.035-1.576,1.566c0.258,2.558,0.579,6.489,0.579,9.193v1.449
				c0,0.976-0.017,2.025-0.177,2.956l0.209,0.104c0.932-0.946,1.366-1.566,1.414-2.38c0.08-0.65,0.112-1.537,0.112-2.438
				c0-3.444-0.08-7.184-0.417-10.405L444.49,34.238z M468.082,43.21c-1.865-1.3-4.131-2.571-5.657-3.946h-0.128
				c-0.146,0.503-0.242,1.006-0.29,1.479c-0.627,0.325-1.125,0.812-1.575,1.374c-0.707,0.901-1.012,1.789-1.012,2.69
				c0,0.695,0.096,1.404,0.354,2.024c-0.997,0.354-2.074,0.429-2.861,0.429h-1.719c-0.45-3.029-1.977-4.937-3.455-4.937
				c-1.014,0-1.865,0.606-2.476,1.419c-0.466,0.605-0.819,1.375-0.819,2.38c0,2.069,1.671,3.03,4.949,3.03h0.788
				c-0.209,0.754-0.739,1.345-1.511,2.069c-1.383,1.3-2.845,2.039-4.468,2.039c-0.964,0-1.735-0.222-2.362-0.532l-0.273,0.488
				c1.543,0.872,3.166,1.493,4.629,1.493c0.852,0,2.635-0.799,3.873-2.528c0.675-0.931,1.141-2.099,1.221-3.029h1.703
				c1.238,0,2.62-0.325,4.404-1.006c2.105,0.621,4.146,1.006,5.48,1.006c2.201,0,3.197-1.301,3.197-2.765
				C470.074,45.072,469.48,44.186,468.082,43.21z M451.207,47.038c-0.996-0.266-1.752-0.709-1.752-1.463
				c0-0.592,0.916-1.301,1.816-1.301c0.595,0,1.189,0.296,1.703,0.828c0.547,0.547,0.949,1.329,1.125,2.157
				C453.056,47.26,452.092,47.26,451.207,47.038z M461.99,46.447c-1.173-0.547-1.768-1.242-1.768-1.715
				c0-0.769,1.447-2.336,2.652-2.336c0.691,0,1.655,1.109,1.655,2.351C464.53,45.561,462.778,46.195,461.99,46.447z M467.358,47.496
				c-1.173,0-2.121-0.147-2.989-0.414c0.707-1.137,1.109-2.261,1.238-3.443c2.024,1.183,3.455,2.232,3.455,3.192
				C469.062,47.216,468.259,47.496,467.358,47.496z M486.482,37.401c-0.627-0.605-1.27-1.138-1.928-1.581
				c-0.434,0.457-0.868,0.976-1.303,1.507c0.644,0.503,1.27,0.976,1.896,1.522C485.695,38.421,486.129,37.934,486.482,37.401z
				 M488.813,40.623c-0.466,0.621-0.853,1.242-1.237,1.863c0.514,0.768,0.964,1.744,1.35,2.911c0.241,0.739,0.498,1.597,0.498,2.616
				c0,0.281-0.402,0.725-1.109,1.228c-1.012,0.724-2.604,1.286-3.889,1.286c-1.205,0-2.347-0.4-3.037-0.99
				c-0.627-0.533-1.077-1.316-1.077-2.572c0-0.681,0.354-1.818,0.899-2.764l-0.61-0.311c-0.739,1.123-1.382,2.424-1.382,4.301
				c0,2.631,1.912,4.479,4.934,4.479c1.896,0,3.97-0.902,5.352-2.246c0.643-0.621,1.141-2.292,1.141-3.77
				c0-2.247-0.609-4.124-1.719-6.061L488.813,40.623z M505.254,37.712c-0.627-0.606-1.27-1.138-1.929-1.581
				c-0.435,0.458-0.868,0.975-1.302,1.507c0.643,0.503,1.27,0.976,1.896,1.522C504.467,38.732,504.9,38.244,505.254,37.712z
				 M515.105,35.79c-0.627-0.605-1.27-1.138-1.93-1.581c-0.434,0.458-0.867,0.976-1.301,1.508c0.643,0.502,1.27,0.975,1.896,1.521
				C514.317,36.811,514.752,36.322,515.105,35.79z M513.867,38.909c-0.723,0-1.43,0.384-2.072,0.989
				c-0.771,0.74-1.206,1.818-1.206,2.912c0,0.399,0.097,0.754,0.241,1.064c0.562,1.139,1.992,1.597,3.857,1.597
				c0.578,0,1.237,0,1.815-0.06c0.032,0.104,0.032,0.222,0.032,0.326c0,0.384-0.867,0.945-1.896,1.227
				c-0.916,0.251-2.121,0.295-3.504,0.295h-1.992c-1.365,0-2.588-0.28-3.664-0.812v-0.06l2.797-2.38l0.562-1.611
				c-1.189-0.457-2.797-0.738-4.661-0.738c-1.575,0-3.054,0.236-4.308,0.488l-0.498,0.059l-0.626,1.7l0.048,0.028h0.498
				c0.273,0,0.707,0.281,1.109,0.622c0.755,0.636,1.511,1.448,2.25,1.906v0.06c-1.704,0.694-2.829,0.738-4.211,0.738h-0.9
				c-0.209,0-0.626-0.029-1.027-0.162c-0.627-0.207-1.206-0.636-1.206-1.582v-0.843c0-3.636,0-7.464-0.257-10.7l-0.113-0.06
				c-0.465,0.34-0.964,0.827-1.51,1.374c0.24,3.134,0.418,6.076,0.418,8.884c0,2.173,0.016,3.222,0.996,4.139
				c0.658,0.606,1.479,0.843,2.748,0.843h0.675c1.929,0,3.648-0.414,5.625-1.729h0.063c1.56,1.108,3.553,1.729,5.352,1.729h1.785
				c2.859,0,4.725-0.399,5.736-1.463c0.547-0.592,0.787-1.391,0.787-2.336c0-1.42-0.272-2.543-0.674-3.518
				C516.214,40.047,515.17,38.909,513.867,38.909z M511.586,42.16c0-0.561,0.867-1.314,1.928-1.314c1.303,0,2.411,1.463,2.732,2.867
				C513.707,43.728,511.586,43.357,511.586,42.16z M504.209,45.812c-0.756-0.487-1.463-1.005-1.993-1.464
				c-0.337-0.295-0.659-0.605-0.948-0.842v-0.06c0.948-0.162,1.929-0.266,2.974-0.266c1.125,0,2.105,0.177,2.989,0.369v0.06
				c-1.029,0.901-2.009,1.582-2.957,2.202H504.209z M521.951,34.238c-0.498,0.414-1.125,1.035-1.575,1.566
				c0.257,2.558,0.579,6.489,0.579,9.193v1.449c0,0.976-0.016,2.025-0.178,2.956l0.209,0.104c0.933-0.946,1.367-1.566,1.415-2.38
				c0.08-0.65,0.112-1.537,0.112-2.438c0-3.444-0.08-7.184-0.418-10.405L521.951,34.238z M540.256,41.008
				c-0.418,0.473-0.819,1.035-1.205,1.67c0.835,1.508,1.606,2.956,1.606,3.651c0,0.251-0.353,0.458-0.915,0.65
				c-0.708,0.236-1.801,0.28-3.167,0.28h-0.498c-0.209,0-0.627-0.029-1.028-0.162c-0.627-0.207-1.205-0.636-1.205-1.582v-0.843
				c0-3.636,0-7.464-0.258-10.7l-0.112-0.06c-0.466,0.34-0.964,0.827-1.511,1.374c0.241,3.134,0.418,6.076,0.418,8.884
				c0,2.173,0.017,3.222,0.997,4.139c0.658,0.606,1.478,0.843,2.748,0.843h0.369c2.459,0,3.6-0.222,4.323-0.887
				c0.643-0.784,1.125-1.641,1.125-2.75c0-1.463-0.868-3.311-1.607-4.508H540.256z M540.738,37.845
				c-0.627-0.606-1.27-1.138-1.929-1.581c-0.434,0.458-0.868,0.975-1.302,1.508c0.643,0.502,1.27,0.975,1.896,1.521
				C539.95,38.864,540.385,38.377,540.738,37.845z M548.982,53.512c0.643,0.488,1.222,0.961,1.88,1.537
				c0.45-0.384,0.771-0.768,1.222-1.359c-0.627-0.621-1.173-1.108-1.832-1.581C549.851,52.492,549.4,52.98,548.982,53.512z
				 M552.084,53.32c0.643,0.487,1.222,0.961,1.88,1.537c0.45-0.385,0.771-0.769,1.222-1.359c-0.627-0.621-1.173-1.109-1.832-1.582
				C552.952,52.301,552.502,52.788,552.084,53.32z M553.53,48.266c0.643-0.784,1.125-1.641,1.125-2.75
				c0-1.463-0.868-3.311-1.607-4.508h-0.08c-0.418,0.473-0.819,1.035-1.205,1.67c0.836,1.508,1.607,2.956,1.607,3.651
				c0,0.251-0.354,0.458-0.917,0.65c-0.707,0.236-1.8,0.28-3.166,0.28h-0.498c-0.209,0-0.627-0.029-1.028-0.162
				c-0.627-0.207-1.205-0.636-1.205-1.582v-0.843c0-3.636,0-7.464-0.257-10.7l-0.113-0.06c-0.466,0.34-0.964,0.827-1.511,1.374
				c0.241,3.134,0.418,6.076,0.418,8.884c0,2.173,0.017,3.222,0.997,4.139c0.658,0.606,1.479,0.843,2.748,0.843h0.369
				C551.666,49.152,552.808,48.931,553.53,48.266z M562.98,41.525l-0.097-0.016c-0.402,0.606-0.771,1.213-1.142,1.848
				c0.707,0.99,1.351,2.07,1.929,3.252c0.097,0.252,0.226,0.532,0.226,0.783c0,0.163-0.049,0.399-0.178,0.65
				c-1.061,2.188-3.374,3.977-5.641,3.991c-0.707,0-1.285-0.118-1.783-0.267l-0.177,0.503c1.574,0.739,2.94,1.138,4.13,1.138
				c0.804,0,1.671-0.398,2.651-1.344c1.254-1.391,2.025-2.795,2.025-4.109v-1.626c0-1.271-0.386-2.069-0.804-2.809L562.98,41.525z
				 M571.674,31.607c-0.449,0.162-0.884,0.207-1.317,0.207c-1.222,0-2.378-0.443-3.487-0.443c-1.141,0-1.463,0.945-1.463,1.641
				l0.547,0.901h0.112c0.354-0.606,0.644-1.138,0.9-1.138c0.804,0,1.96,0.251,2.973,0.251c0.9,0,1.64-0.236,2.25-0.71
				c0.161-0.266,0.306-0.694,0.466-1.107l-0.08-0.074C572.285,31.342,571.964,31.504,571.674,31.607z M569.553,34.238
				c-0.498,0.414-1.125,1.035-1.574,1.566c0.257,2.558,0.578,6.489,0.578,9.193v1.449c0,0.976-0.017,2.025-0.177,2.956l0.209,0.104
				c0.933-0.946,1.366-1.566,1.414-2.38c0.08-0.65,0.112-1.537,0.112-2.438c0-3.444-0.08-7.184-0.418-10.405L569.553,34.238z
				 M587.407,41.865c-1.076-1.227-2.539-2.32-3.841-3.06l-0.128,0.015c-0.37,0.547-0.82,1.315-0.82,1.686
				c0,0.177,0.129,0.369,0.515,0.547c1.141,0.531,2.362,1.33,3.278,2.231c0.948,0.96,1.511,2.01,1.511,2.808
				c0,0.119-0.112,0.252-0.321,0.355c-1.173,0.605-2.233,0.96-3.487,0.96c-2.009,0-2.588-1.005-2.636-2.275h-0.627
				c-0.08,0.474-0.08,0.843-0.08,1.079c0,2.188,1.254,3.119,3.085,3.119c1.512,0,3.038-0.592,4.469-1.375
				c0.417-0.799,0.675-1.671,0.675-2.587C588.999,44.127,588.388,42.988,587.407,41.865z"/>
		</g>
	</g>
	<path fill="#197EF2" d="M44.716,13.83L6.514,0l70.912,1.899l-6.177,9.419L44.716,13.83z M104.472,9.099L0,19.95l31.554,6.718
		L9.387,47.871L104.472,9.099z M52.318,31.96L32.436,57l54.693-29.586l-11.196-5.293L52.318,31.96z"/>
	<path fill="#197EF2" d="M588.999,18.753c0,3.185-5.258,4.344-9.531,4.344c-4.371,0-6.54-1.146-6.54-1.146
		c-0.345-0.183-0.811-0.07-1.035,0.249l-0.224,0.316c-0.224,0.319-0.408,0.261-0.408-0.13v-3.748c0-0.39,0.281-0.557,0.622-0.369
		c0,0,3.299,1.801,7.619,1.801c2.358,0,3.548-0.413,3.535-1.241c-0.015-1.043-1.378-1.087-5.25-1.439
		c-4.51-0.411-6.498-1.748-6.498-3.972c0-2.921,4.358-4.447,9.01-4.362c4.989,0.092,7.671,1.348,7.671,1.348
		c0.354,0.165,0.642,0.62,0.642,1.009v2.121c0,0.389-0.29,0.577-0.646,0.417c0,0-3.577-1.615-6.709-1.869
		c-1.956-0.158-4.11,0.135-4.11,1.222c0,1.088,3.023,1.159,5.163,1.279C588.488,14.927,588.999,17.488,588.999,18.753z
		 M549.78,9.171c-0.378,0-0.43,0.172-0.115,0.381l2.019,1.347c0.312,0.209,0.569,0.689,0.569,1.066v8.241
		c0,0.377-0.257,0.857-0.571,1.066l-2.017,1.345c-0.314,0.209-0.263,0.381,0.115,0.381l18.58,0.001c0.376,0,0.685-0.309,0.685-0.686
		v-4.806c0-0.377-0.171-0.429-0.38-0.114l-1.338,2.009c-0.211,0.314-0.691,0.571-1.067,0.571h-7.636
		c-0.378,0-0.687-0.309-0.687-0.686v-0.773c0-0.377,0.309-0.686,0.687-0.686h4.128c0.376,0,0.854,0.254,1.062,0.565
		c0.207,0.311,0.376,0.256,0.376-0.121v-3.705c0-0.377-0.169-0.433-0.376-0.122c-0.207,0.31-0.686,0.563-1.062,0.563h-4.128
		c-0.378,0-0.687-0.309-0.687-0.686v-1.646c0-0.377,0.309-0.686,0.687-0.686h7.621c0.376,0,0.856,0.257,1.066,0.57l1.354,2.031
		c0.209,0.314,0.38,0.262,0.38-0.115V9.857c0-0.377-0.309-0.687-0.685-0.687H549.78z M541.427,9.171
		c-0.376,0-0.684,0.307-0.684,0.682v7.302c0,0.375-0.207,0.456-0.46,0.179l-7.006-7.66c-0.254-0.277-0.77-0.503-1.144-0.503h-6.122
		c-0.376,0-0.683,0.307-0.683,0.682v12.467c0,0.375,0.307,0.682,0.683,0.682h5.914c0.374,0,0.428-0.172,0.117-0.381l-1.987-1.342
		c-0.311-0.21-0.565-0.689-0.565-1.064v-5.235c0-0.375,0.208-0.456,0.46-0.179l7.037,7.698c0.254,0.277,0.768,0.503,1.144,0.503
		h6.09c0.375,0,0.682-0.307,0.682-0.682v-10.35c0-0.375,0.255-0.854,0.566-1.064l2.003-1.353c0.312-0.21,0.257-0.381-0.117-0.381
		H541.427z M522.76,9.552c0.312-0.209,0.26-0.381-0.116-0.381h-7.486c-0.378,0-0.687,0.31-0.687,0.687v12.456
		c0,0.377,0.309,0.686,0.687,0.686h7.486c0.376,0,0.429-0.171,0.116-0.38l-2.031-1.354c-0.315-0.209-0.572-0.689-0.572-1.066v-8.226
		c0-0.377,0.257-0.857,0.572-1.067L522.76,9.552z M500.103,19.974c-0.378,0-0.688-0.309-0.688-0.686v-7.315
		c0-0.377,0.257-0.857,0.572-1.067l2.031-1.354c0.312-0.209,0.261-0.381-0.116-0.381h-7.484c-0.378,0-0.687,0.31-0.687,0.687v12.456
		c0,0.377,0.309,0.686,0.687,0.686h17.328c0.376,0,0.686-0.309,0.686-0.686v-4.806c0-0.377-0.172-0.429-0.38-0.114l-1.339,2.009
		c-0.21,0.314-0.69,0.571-1.066,0.571H500.103z M483.759,13.626c0-0.778-0.767-1.411-1.713-1.411c-0.944,0-5.604,0.001-5.604,0.001
		c-0.378,0.001-0.687,0.31-0.687,0.687v1.421c0,0.377,0.309,0.686,0.687,0.686c0,0,4.968,0,5.772,0
		C483.016,15.009,483.759,14.308,483.759,13.626z M476.441,17.839c-0.378,0-0.687,0.31-0.687,0.688v1.677
		c0,0.377,0.257,0.857,0.571,1.066l2.024,1.349c0.312,0.209,0.26,0.38-0.116,0.38h-7.477c-0.378,0-0.688-0.309-0.688-0.686V9.856
		c0-0.377,0.31-0.686,0.688-0.686l13.498-0.001c2.729,0,4.943,1.824,4.943,4.075c0,1.723-1.298,3.195-3.132,3.792
		c2.469,0,2.526,3.119,3.955,4.835c0.23,0.279,0.824,0.585,1.102,0.67c0.38,0.118,0.404,0.456,0.237,0.457c-0.233,0-6.074,0-6.074,0
		c-2.334,0-2.413-5.159-4.779-5.159L476.441,17.839z M467.83,9.552c0.313-0.209,0.261-0.381-0.115-0.381h-7.486
		c-0.378,0-0.687,0.31-0.687,0.687v12.456c0,0.377,0.309,0.686,0.687,0.686h7.486c0.376,0,0.429-0.171,0.115-0.38l-2.032-1.355
		c-0.315-0.21-0.572-0.69-0.572-1.067v-8.222c0-0.377,0.257-0.857,0.572-1.067L467.83,9.552z M457.471,22.619
		c0.315,0.209,0.263,0.38-0.113,0.38h-8.047c-0.378,0-0.847-0.263-1.045-0.585l-1.576-2.588c-0.196-0.322-0.667-0.586-1.043-0.586
		h-6.172c-0.378,0-0.848,0.264-1.043,0.587l-0.287,0.471c-0.197,0.323-0.1,0.758,0.215,0.967l2.031,1.354
		c0.312,0.209,0.261,0.38-0.115,0.38h-6.908c-0.378,0-0.524-0.263-0.329-0.586l7.71-12.656c0.197-0.322,0.666-0.586,1.044-0.586
		h5.255c0.376,0,0.847,0.264,1.042,0.586l6.422,10.541c0.197,0.323,0.614,0.758,0.929,0.967L457.471,22.619z M443.928,16.42
		c0.376,0,0.525-0.264,0.328-0.586l-1.339-2.199c-0.195-0.321-0.518-0.321-0.715,0l-1.339,2.199
		c-0.195,0.322-0.049,0.586,0.33,0.586H443.928z M406.089,9.171c-0.376,0-0.683,0.307-0.683,0.682v7.302
		c0,0.375-0.207,0.456-0.46,0.179l-7.007-7.66c-0.253-0.277-0.769-0.503-1.143-0.503h-6.12c-0.376,0-0.684,0.307-0.684,0.682v12.467
		c0,0.375,0.308,0.682,0.684,0.682h5.913c0.374,0,0.429-0.171,0.117-0.381l-1.988-1.342c-0.311-0.21-0.565-0.689-0.565-1.064v-5.235
		c0-0.375,0.208-0.456,0.461-0.179l7.038,7.698c0.253,0.277,0.768,0.503,1.144,0.503h6.09c0.374,0,0.682-0.307,0.682-0.682v-10.35
		c0-0.375,0.255-0.854,0.565-1.064l2.002-1.353c0.311-0.21,0.257-0.381-0.117-0.381H406.089z M387.266,22.619
		c0.314,0.209,0.263,0.38-0.113,0.38h-8.045c-0.378,0-0.848-0.263-1.045-0.585l-1.577-2.588c-0.195-0.322-0.666-0.586-1.042-0.586
		h-6.173c-0.378,0-0.847,0.264-1.042,0.587l-0.287,0.471c-0.197,0.323-0.101,0.758,0.214,0.967l2.031,1.354
		c0.313,0.209,0.261,0.38-0.115,0.38h-6.909c-0.378,0-0.525-0.263-0.329-0.586l7.71-12.656c0.197-0.322,0.666-0.586,1.044-0.586
		h5.254c0.377,0,0.848,0.264,1.043,0.586l6.422,10.541c0.197,0.323,0.614,0.758,0.929,0.967L387.266,22.619z M373.725,16.42
		c0.376,0,0.525-0.264,0.327-0.586l-1.338-2.199c-0.196-0.321-0.518-0.321-0.716,0l-1.338,2.199
		c-0.195,0.322-0.049,0.586,0.329,0.586H373.725z M360.515,9.552c0.312-0.209,0.261-0.381-0.115-0.381h-7.483
		c-0.378,0-0.687,0.31-0.687,0.687v4.467c0,0.377-0.31,0.686-0.686,0.686h-6.788c-0.378,0-0.688-0.309-0.688-0.686v-2.352
		c0-0.377,0.257-0.857,0.572-1.067l2.031-1.354c0.314-0.209,0.263-0.381-0.114-0.381h-7.486c-0.378,0-0.687,0.31-0.687,0.687v12.456
		c0,0.377,0.309,0.686,0.687,0.686h7.486c0.377,0,0.429-0.171,0.114-0.38l-2.031-1.354c-0.315-0.209-0.572-0.689-0.572-1.066v-1.684
		c0-0.377,0.31-0.686,0.688-0.686h6.788c0.376,0,0.686,0.309,0.686,0.686v3.799c0,0.377,0.309,0.686,0.687,0.686h7.483
		c0.376,0,0.428-0.171,0.113-0.38l-2.027-1.353c-0.314-0.209-0.572-0.689-0.572-1.066v-8.228c0-0.377,0.258-0.857,0.572-1.067
		L360.515,9.552z M327.234,9.056c-6.986,0-9.743,1.412-10.439,3.676c-0.233,0.753-0.341,1.871-0.341,3.346
		c0,1.407,0.099,2.517,0.357,3.305c0.84,2.564,4.619,3.715,10.32,3.715c5.018,0,7.118-1.788,7.118-1.788
		c0.287-0.244,0.692-0.188,0.903,0.126l0.663,0.994c0.208,0.313,0.38,0.262,0.38-0.115v-5.664c0-0.377-0.31-0.686-0.686-0.686
		h-6.811c-0.378,0-0.427,0.166-0.108,0.368c0,0,1.387,0.885,1.949,1.395c0.437,0.397-0.16,1.43-0.841,1.832
		c-0.545,0.32-1.447,0.512-2.567,0.512c-1.447,0-4.458-0.095-4.798-1.59c-0.103-0.446-0.196-1.241-0.196-2.403
		c0-1.164,0.078-1.959,0.196-2.396c0.326-1.227,2.71-1.614,4.379-1.614c5.437,0,8.946,2.744,8.946,2.744
		c0.299,0.232,0.54,0.114,0.54-0.263v-0.231c0-0.377,0-0.995,0-1.372l-0.002-2.577c-0.001-0.377-0.204-0.454-0.454-0.17l-0.203,0.23
		c-0.247,0.284-0.707,0.343-1.02,0.132C334.52,10.56,332.298,9.056,327.234,9.056z M296.275,9.171c-0.378,0-0.687,0.31-0.687,0.687
		v12.456c0,0.377,0.309,0.686,0.687,0.686h7.485c0.378,0,0.43-0.171,0.115-0.38l-2.031-1.354c-0.314-0.209-0.571-0.689-0.571-1.066
		v-1.684c0-0.377,0.309-0.686,0.687-0.686h6.033c0.377,0,0.855,0.254,1.062,0.565c0.207,0.311,0.376,0.256,0.376-0.121v-3.705
		c0-0.377-0.169-0.433-0.376-0.122c-0.207,0.31-0.685,0.563-1.062,0.563h-6.033c-0.378,0-0.687-0.309-0.687-0.686v-1.646
		c0-0.377,0.309-0.686,0.687-0.686h9.528c0.377,0,0.857,0.257,1.068,0.57l1.353,2.031c0.209,0.314,0.381,0.262,0.381-0.115V9.857
		c0-0.377-0.309-0.687-0.686-0.687H296.275z M293.244,22.619c0.313,0.209,0.261,0.38-0.116,0.38h-8.045
		c-0.377,0-0.847-0.263-1.042-0.586l-1.577-2.586c-0.197-0.323-0.667-0.587-1.044-0.587h-6.17c-0.378,0-0.847,0.264-1.044,0.587
		l-0.287,0.471c-0.196,0.323-0.1,0.758,0.214,0.967l2.031,1.354c0.315,0.209,0.263,0.38-0.115,0.38h-6.908
		c-0.377,0-0.525-0.263-0.33-0.586l7.712-12.656c0.196-0.322,0.666-0.586,1.043-0.586h5.254c0.377,0,0.847,0.264,1.043,0.586
		l6.423,10.541c0.195,0.323,0.613,0.758,0.927,0.967L293.244,22.619z M279.701,16.42c0.378,0,0.527-0.264,0.33-0.586l-1.339-2.199
		c-0.197-0.321-0.518-0.321-0.715,0l-1.338,2.199c-0.198,0.322-0.048,0.586,0.33,0.586H279.701z M248.098,22.619
		c0.314,0.209,0.262,0.38-0.116,0.38h-8.045c-0.377,0-0.847-0.263-1.042-0.586l-1.577-2.586c-0.196-0.323-0.667-0.587-1.043-0.587
		h-6.171c-0.377,0-0.847,0.264-1.042,0.587l-0.288,0.471c-0.197,0.323-0.1,0.758,0.214,0.967l2.03,1.354
		c0.315,0.209,0.263,0.38-0.115,0.38h-6.908c-0.378,0-0.526-0.263-0.33-0.586l7.711-12.656c0.197-0.322,0.666-0.586,1.044-0.586
		h5.254c0.377,0,0.847,0.264,1.043,0.586l6.422,10.541c0.196,0.323,0.613,0.758,0.928,0.967L248.098,22.619z M234.555,16.42
		c0.377,0,0.526-0.264,0.33-0.586l-1.34-2.199c-0.196-0.321-0.518-0.321-0.714,0l-1.339,2.199c-0.197,0.322-0.048,0.586,0.33,0.586
		H234.555z M217.908,9.171c-0.375,0-0.682,0.307-0.682,0.682v7.302c0,0.375-0.207,0.456-0.46,0.179l-7.007-7.66
		c-0.253-0.277-0.768-0.503-1.142-0.503h-6.122c-0.375,0-0.683,0.307-0.683,0.682v12.467c0,0.375,0.307,0.682,0.683,0.682h5.913
		c0.375,0,0.428-0.172,0.117-0.381l-1.986-1.342c-0.311-0.21-0.566-0.689-0.566-1.064v-5.235c0-0.375,0.208-0.456,0.461-0.179
		l7.037,7.698c0.253,0.277,0.768,0.503,1.143,0.503h6.09c0.375,0,0.682-0.307,0.682-0.682v-10.35c0-0.375,0.254-0.854,0.565-1.064
		l2.002-1.353c0.311-0.21,0.258-0.381-0.116-0.381H217.908z M199.636,22.619c0.314,0.209,0.262,0.38-0.115,0.38h-8.045
		c-0.377,0-0.847-0.263-1.044-0.586l-1.577-2.586c-0.196-0.323-0.666-0.587-1.043-0.587h-6.172c-0.377,0-0.847,0.264-1.042,0.587
		l-0.288,0.471c-0.196,0.323-0.1,0.758,0.214,0.967l2.031,1.354c0.314,0.209,0.262,0.38-0.115,0.38h-6.909
		c-0.378,0-0.526-0.263-0.33-0.586l7.712-12.656c0.195-0.322,0.666-0.586,1.042-0.586h5.254c0.378,0,0.847,0.264,1.043,0.586
		l6.423,10.541c0.196,0.323,0.614,0.758,0.928,0.967L199.636,22.619z M186.094,16.42c0.377,0,0.525-0.264,0.33-0.586l-1.341-2.199
		c-0.195-0.321-0.518-0.321-0.713,0l-1.34,2.199c-0.196,0.322-0.048,0.586,0.329,0.586H186.094z M172.407,9.552
		c0.313-0.209,0.262-0.381-0.116-0.381h-7.485c-0.377,0-0.686,0.31-0.686,0.687v12.456c0,0.377,0.309,0.686,0.686,0.686h7.485
		c0.377,0,0.429-0.171,0.116-0.38l-2.031-1.354c-0.315-0.209-0.572-0.689-0.572-1.066v-8.224c0-0.377,0.257-0.857,0.572-1.067
		L172.407,9.552z M154.58,13.626c0-0.778-0.766-1.411-1.712-1.411c-0.945,0-5.604,0.001-5.604,0.001
		c-0.378,0.001-0.687,0.31-0.687,0.687v1.421c0,0.377,0.309,0.686,0.687,0.686c0,0,4.966,0,5.771,0
		C153.838,15.009,154.58,14.308,154.58,13.626z M147.264,17.839c-0.378,0-0.687,0.31-0.687,0.688v1.677
		c0,0.377,0.257,0.857,0.571,1.066l2.023,1.349c0.314,0.209,0.262,0.38-0.115,0.38h-7.478c-0.377,0-0.686-0.309-0.686-0.686V9.856
		c0-0.377,0.309-0.686,0.686-0.686l13.499-0.001c2.73,0,4.944,1.824,4.944,4.075c0,1.723-1.298,3.195-3.131,3.792
		c2.469,0,2.525,3.119,3.954,4.835c0.231,0.279,0.826,0.585,1.102,0.67c0.38,0.118,0.405,0.456,0.236,0.457
		c-0.231,0-6.073,0-6.073,0c-2.335,0-2.412-5.16-4.779-5.16H147.264z M138.521,22.619c0.315,0.21,0.263,0.381-0.115,0.381h-8.045
		c-0.378,0-0.847-0.263-1.044-0.586l-1.577-2.587c-0.197-0.323-0.666-0.587-1.044-0.587h-6.172c-0.377,0-0.847,0.264-1.042,0.587
		l-0.288,0.471c-0.197,0.323-0.1,0.758,0.214,0.967l2.031,1.354c0.314,0.21,0.262,0.381-0.115,0.381h-6.909
		c-0.378,0-0.527-0.263-0.33-0.586l7.712-12.659c0.195-0.322,0.666-0.585,1.042-0.585h5.254c0.378,0,0.847,0.263,1.044,0.585
		l6.423,10.543c0.196,0.323,0.614,0.758,0.927,0.967L138.521,22.619z M124.978,16.42c0.378,0,0.526-0.264,0.33-0.586l-1.34-2.199
		c-0.196-0.321-0.518-0.321-0.714,0l-1.34,2.199c-0.196,0.322-0.048,0.586,0.329,0.586H124.978z"/>
</g>
</svg>
