<svg id="Layer_1" data-name="Layer 1" xmlns="http://www.w3.org/2000/svg" viewBox="0 0 446.91 152.95"><defs><style>.cls-1{fill:#002663;}.cls-2{fill:#ffb608;}</style></defs><title>aaww_logo_ko</title><path class="cls-1" d="M64.85,134.09h4.49L72.57,148h0l3-13.9h3.78l-4.71,18.48h-4.4l-3.32-14.09h-.06l-3.59,14.09H58.8l-4.5-18.48h4.1L61.23,148h0Z"/><path class="cls-1" d="M86,143.33c0-5.45,2.76-9.62,8.88-9.62s8.88,4.17,8.88,9.62S101,153,94.89,153,86,148.79,86,143.33Zm4.22,0c0,3.17.74,6.75,4.65,6.75s4.67-3.58,4.67-6.75-.75-6.76-4.67-6.76S90.23,140.16,90.23,143.33Z"/><path class="cls-1" d="M117,152.58h-4V134.09h7.86c3.16,0,6.41,1.05,6.41,4.81a4.44,4.44,0,0,1-3.84,4.47v.06c3,.33,3,2.2,3.38,4.76.17,1.17.32,3.35,1.07,4.38h-4.38c-.33-1.64-.51-3.31-.69-5-.1-1-.37-2.44-1.66-2.49H117ZM117,142h3.32c1.74,0,2.77-.89,2.77-2.53s-1-2.33-2.77-2.35H117Z"/><path class="cls-1" d="M139.15,152.58V134.09h4v15.4h8v3.08Z"/><path class="cls-1" d="M160.17,134.09h6.29c5.77,0,9.34,2.81,9.34,9.24s-3.57,9.29-9.34,9.25h-6.29Zm4,15.4h2c4.71.05,5.4-3.22,5.4-6.16s-.69-6.22-5.4-6.16h-2Z"/><path class="cls-1" d="M194,134.09h4.49l3.22,13.9h0l3-13.9h3.8l-4.72,18.48h-4.39l-3.34-14.09h0l-3.59,14.09h-4.51l-4.49-18.48h4.09l2.84,13.9h.06Z"/><path class="cls-1" d="M221.68,152.58h-4V134.09h4Z"/><path class="cls-1" d="M233.43,134.09h6.3c5.75,0,9.34,2.81,9.34,9.24s-3.59,9.29-9.34,9.25h-6.3Zm4,15.4h2.05c4.71.05,5.41-3.22,5.41-6.16s-.69-6.22-5.41-6.16h-2.05Z"/><path class="cls-1" d="M258.49,134.09h12.39v3.08h-8.43v4.32h7.89v3.07h-7.89v4.93h8.71v3.08H258.49Z"/><path class="cls-2" d="M328.13.11c1,39.8,24.64,63.17,32.73,64,.47.05-.51-.88-.51-.88-9.69-7.72-26-22.06-27.73-63.15Z"/><path class="cls-2" d="M405.26,63l0-4.06-4.06-3.31,1.34,1.09c1.52.87,2.36,1.81,2.36,2.79a2.8,2.8,0,0,1-.32,1.5A64.78,64.78,0,0,1,392,65.44a2.52,2.52,0,0,0-2.18-.92c-1.93,0-4.25,2.22-4.56,2.54a2.23,2.23,0,0,0-2.78-.94l-.38.15.18.39a4.58,4.58,0,0,1,.27.89,4.27,4.27,0,0,0-2.45-2.85,8,8,0,0,0-4-.13,4.79,4.79,0,0,0-2.11,1.37,1.89,1.89,0,0,0-.76-.16,3.1,3.1,0,0,0-2,1.27.25.25,0,0,1-.1.08.65.65,0,0,1-.2-.22,3.07,3.07,0,0,0-1.61-1.29,6.83,6.83,0,0,0-2.41-.24,4.25,4.25,0,0,0-1.19.3,5.39,5.39,0,0,1-1.88.23,7,7,0,0,1-1.66-.2A65.88,65.88,0,0,1,348.65,61a1.92,1.92,0,0,1-.44-1.54l-.48-.53a19,19,0,0,0-.77,1.82c-1.44-.73-3.47-1.57-4.84-2.39-.65.54-.64.54-1.28,1.08a21.92,21.92,0,0,0,1.7,2.37c.83.52,1.6.22,2.14.37a3.62,3.62,0,0,1,1.63,1.1,13.74,13.74,0,0,1,1.76,2c.88,1.27,2.24,2,4,3a4.83,4.83,0,0,0,2.55.8,5.48,5.48,0,0,1,1.42.25,2.82,2.82,0,0,1,1.3,1,8.49,8.49,0,0,0,2.6,2,10.08,10.08,0,0,0,2.1.81,3.39,3.39,0,0,1,1.15.49,4.39,4.39,0,0,1,1.18,1.49,3.92,3.92,0,0,0,1.11,1.39,4.84,4.84,0,0,0,2.33.82h0c0,1.8.84,2.82,2.3,2.86h0c0,1.48.6,1.75,1.35,1.91a1.67,1.67,0,0,0,.25,1.15,1,1,0,0,0,.55.39.44.44,0,0,0,0,.07,2.34,2.34,0,0,0,.27,1.68,1,1,0,0,0,.77.32h0v0c.13.22.29.45.43.67a8,8,0,0,1,1.8,5,13,13,0,0,1-1.13,4.66,11.07,11.07,0,0,0-1,3.75,9.59,9.59,0,0,0,.53,3.15l0,.12c-1.08-1.23-1.64-3.76-1.66-7.56a37.4,37.4,0,0,1,1-8.38.48.48,0,0,1,0-.15c.12-.59-.11-.92-.38-1s-.74,0-1.13.62a24.46,24.46,0,0,0-2.39,10.18c0,4.26,1.28,8.26,3.08,9.78h3.9a4.55,4.55,0,0,0,1.11-1.57h0a9.36,9.36,0,0,0,.3-2.4,31.29,31.29,0,0,1,.93-3.63,30,30,0,0,0,1.64-4.87c0,.11.07.23.1.33a39.13,39.13,0,0,1,.77,4.1c0,.34.18,1.25.76,1.26s.78-.86.84-1.23a28.09,28.09,0,0,0-.18-6.14,6.15,6.15,0,0,0-.36-1.2,10.48,10.48,0,0,1-.79-4.28,23.88,23.88,0,0,1,.44-4c.09-.48.15-.85.18-1.13a2.81,2.81,0,0,0-.26-1.6,1.74,1.74,0,0,0,.57,0,1.57,1.57,0,0,0,.34-.13.48.48,0,0,1,.21-.05,1.74,1.74,0,0,1,.12.92c0,.07,0,.13,0,.21a5.4,5.4,0,0,0,0,1.71,3.24,3.24,0,0,0,.45,1,2.17,2.17,0,0,1,.36.92V85c.38,2.16-.49,11.71-.77,13.13-.12.58-.19,1.09-.26,1.54a9.18,9.18,0,0,1-.34,1.62c-.12.21-.3.47-.51.79-.7,1-1.66,2.42-1.7,3.58a2.38,2.38,0,0,0,.35,1H388a3.83,3.83,0,0,0,.44-.74,1.53,1.53,0,0,0-.58-1.72,7.5,7.5,0,0,0-1.11-.72c-.58-.35-1.25-.73-1.27-1.1a2.53,2.53,0,0,1,.45-1.18,3.09,3.09,0,0,0,.52-1.31,1.13,1.13,0,0,0-.15-.7,1.38,1.38,0,0,0-.28-.32c-.14-.14-.17-.17-.12-.45a7.36,7.36,0,0,1,.25-.82A52.61,52.61,0,0,0,389,83.87a10.5,10.5,0,0,0-1-5,.71.71,0,0,0,.41.23.77.77,0,0,0,.59-.28,7,7,0,0,0,1.7-3.8c.07-.29.13-.59.2-.89a3.68,3.68,0,0,1,.7-.27A8,8,0,0,0,394,72.79a16.07,16.07,0,0,0,2.56-2.63,8.63,8.63,0,0,1,1.34-1.43,1.31,1.31,0,0,1,.86.08,3.2,3.2,0,0,0,1.4.15c2.36-.35,5.82-3.59,8.33-6,.89-.84,1.47-1.78,2-2.15a4.88,4.88,0,0,1,2.72-.74c.32-.1,1-.12,1.25-.42.53-.62,1.59-3.52,4.32-5.36ZM379,79.09c-.71.05.65.57.59,1.56-.05.63-.69.91-1.32,1s.16.44.38.83c.32.55-.42,1.07-1.2,1.11a17.71,17.71,0,0,1-2.54,0c-.84-.11-.69-.61-.22-.75s1.17-.28,1.76-.51c1-.38.36-.62.07-.67s-1.13-.16-2.17-.39c-.68-.16-.89-.7-.68-1.09.11-.21.42-.27.72-.3a24.7,24.7,0,0,0,2.69-.28c.67-.15,1-.83,0-.91-.75-.06-2.17,0-3.55-.2a4.38,4.38,0,0,1-3.2-1.73c-.88-1.08-1-3.34-1.84-4.64a3,3,0,0,0-2.31-1.36,2.28,2.28,0,0,0-1.2.22c-.27.12-.3.25,0,.38.81.38.95,1.76.77,1.71a14.29,14.29,0,0,0-5.19-2.88,10,10,0,0,1-2.25-1.39c-.41-.24-2-1.35-2.66-1.33a3.91,3.91,0,0,1-4.14-2.33c-.37-.65.51-.41.78-.3A20.38,20.38,0,0,0,356.77,67c2,.63,2.71.43,4.22,1,1.07.43,1.93,1.74,3.1,1.69,1.37-.06,1.47-.85,3.45-1.17a8.28,8.28,0,0,1,2.05.09c.94.3.9.42,1.36.42.64,0,1.26-.47,1.63-.51a.54.54,0,0,1,.59.51c0,.24-.08,1.24-.05,1.67a2.8,2.8,0,0,0,1.48,2.65,6.58,6.58,0,0,0,3.08,1.08v1.12a18.31,18.31,0,0,1-1.92-.31c-.22,0-.31,0-.35.11s-.15.48.18.59,1.07.25,1.33.37.72.83,1.05,1.1.59.19.55-.23a.69.69,0,0,1,.75-.78c1,0,1.94.07,1.94,1.32S380.14,79,379,79.09ZM395.79,66.9A5.57,5.57,0,0,0,392.46,68c-.1.08-.18.2-.29.29-.37.32-.44.12-.47,0s-.34-.38-.62.11c-1.45,2.55-2.5,3.17-4,3.81-.34.16-.46.14-.37-.14a7.29,7.29,0,0,0,.31-1.92,4.7,4.7,0,0,0-.4-1.78c-.08-.2-.26-.3-.06-.37a8.1,8.1,0,0,1,3.36-.89c.84,0,1,.56,1.34.64s.4-.18.48-.3a2.33,2.33,0,0,1,1.55-1,5.15,5.15,0,0,1,2.49.21C396,66.79,395.94,66.9,395.79,66.9Z"/><path class="cls-2" d="M357.75,62.79c.76.46,2.28,1.19,2.89,1,.38-.12-.86-1.21-1.47-1.65"/><path class="cls-2" d="M306,0c0,11.69,12.37,69,70.87,69,54.42,0,70-52.18,70-69h-2.4c0,10.51-12.21,67.28-67.72,67.28-46.46,0-68.08-43.52-68.08-67.28Z"/><path class="cls-2" d="M357.33,0c1.42,38.19,9.55,63,14.35,64.07.49.11-.73-2.88-.73-2.88-3.16-9.48-5.63-20.51-8.13-61.22Z"/><path class="cls-2" d="M396.09,0c-1.42,38.19-9.55,63-14.34,64.07-.48.11.72-2.88.72-2.88,3.15-9.48,5.63-20.51,8.14-61.22Z"/><path class="cls-2" d="M424.89.11c-1,39.8-24.64,63.17-32.74,64-.47.05.51-.88.51-.88,9.69-7.72,26-22.06,27.74-63.15Z"/><path class="cls-2" d="M314.19,25.34c3.42-10.83,41.22-19,61.65-19,23.09,0,62,9.5,62.53,18.34l-.66,3.54c-1.66-10-34-17.46-62-17.46-25.08,0-58.88,6.63-60.21,17.68Z"/><path class="cls-2" d="M327.12,45.44c3.65-10.27,28.4-14.2,48.83-14.2,23.1,0,49.5,5.59,50.05,14.43l-1.66,2.54C423.57,38.37,403.68,34,375.73,34c-25.08,0-44.41,4-47,14.13Z"/><path class="cls-2" d="M346.67,60.8c.78-7.18,15-10.33,29.28-10.33,12.93,0,30.72,1.93,30.05,10.44l-1.33,1.21c1.88-4.19-4.63-9.34-28.95-9.34-25.08,0-27.95,5.58-27.62,8.67Z"/><path class="cls-1" d="M272.32,77.29h14.42l-13.42,29.43H258.9Z"/><path class="cls-1" d="M313.34,93.78l6.29,12.93h-16.3l-3.8-12.15-.1,0-5.52,12.13H279.47l13.42-29.43h22.32c8.34,0,12.21,2,9.25,9.52-2.18,5.6-6.25,6.61-11.13,7l0,.08m-11.85-3.59h3a5.27,5.27,0,0,0,5-3.16c1-2.11-.45-2.76-2.65-2.76h-2.62Z"/><path class="cls-1" d="M59.55,76.37H99.24L95.9,83.6H83.21l-10.7,23.11H57.2L67.89,83.6H56Z"/><path class="cls-1" d="M98.66,76.38H114L103.28,99.49h14.21l-3.35,7.22H84.61Z"/><path class="cls-1" d="M136.44,76.47H158.8l-2.85,30.24h-16.7l.91-4.35h-9.09l-3.18,4.35H111.1Zm-.64,19h6l2.36-11.3h-.12Z"/><path class="cls-1" d="M190.46,85.32a2.57,2.57,0,0,0,0-2.18c-.32-.54-1-.86-2.22-.86-2.41,0-3.65.75-4.41,2.5C181.42,90.21,207.43,84,202,96.48c-3.11,7.1-10.19,10.7-25.31,10.69-8.24,0-20.05-1.3-16.46-9.45h16.46a2.25,2.25,0,0,0-.16,2.13c.33.54,1.12.82,2.38.82,2.55,0,4.19-1.2,4.65-2.24,2.24-5.12-22.48-.87-17.33-12.61,2.94-6.68,9.51-9.94,23.87-9.94,12.1,0,19.47,1.63,16,9.45Z"/><path class="cls-1" d="M237.65,77.43h21.71l-2.8,29.28H240.38l.89-4.17h-8.83l-3.09,4.17H213.06ZM237,95.89h5.85l2.33-11h-.13Z"/><path class="cls-1" d="M28.45,71.76H53.3l-3.47,34.87H31.29l1.07-4.94H22.24l-3.58,5H0Zm-.88,22h6.71l2.72-13h-.13Z"/><rect class="cls-1" x="0.03" y="118.86" width="319.61" height="3.08"/></svg>