<?xml version="1.0" encoding="UTF-8"?>
<svg width="302.6" height="84.95" version="1.1" viewBox="0 0 302.6 84.95" xmlns="http://www.w3.org/2000/svg">
 <g transform="scale(2)" fill="#455cc7">
  <path d="m120.3 6.075c0.9-0.4 2 0.1 2.3 1 0.4 0.9-0.1 2-1 2.3-0.9 0.4-2-0.1-2.3-1s0.1-1.9 1-2.3"/>
  <path d="m122.3 15.375c0 0.1 0.1 0.1 0.2 0l0.2-0.9c0-0.1 0.1-0.1 0.1 0l0.6 0.8c0 0.1 0.1 0 0.2-0.1v-1s0-0.1 0.1-0.1h0.1l0.7 0.7c0.1 0.1 0.2 0 0.1-0.1l-0.1-1c0-0.1 0.1-0.1 0.1-0.1l0.8 0.5c0.1 0 0.1 0 0.1-0.1l-0.3-1.1-2.4-2.7h-0.1c-0.1 0.1-0.3 0.2-0.4 0.2-0.2 0.1-0.3 0.1-0.5 0.1 0 0-0.1 0-0.1 0.1l0.2 3.6z"/>
  <path d="m119.6 0.075c0-0.1-0.1-0.1-0.2 0l-0.1 0.9c0 0.1-0.1 0.1-0.1 0l-0.6-0.7c0-0.1-0.1 0-0.1 0.1v1.1h-0.1l-0.8-0.8c-0.1-0.1-0.2 0-0.1 0.1l0.1 1c0 0.1-0.1 0.1-0.1 0.1l-0.9-0.6c-0.1 0-0.1 0-0.1 0.1l0.3 1.1 2.4 2.7h0.1c0.1-0.1 0.3-0.2 0.4-0.3 0.2-0.1 0.3-0.1 0.5-0.1 0 0 0.1 0 0.1-0.1l-0.2-3.6z"/>
  <path d="m128.7 6.375c0.1 0 0-0.1 0-0.2l-1-0.2c-0.1 0-0.1-0.1 0-0.1l0.8-0.6c0.1-0.1 0-0.1 0-0.1h-1s-0.1 0-0.1-0.1v-0.1l0.7-0.7c0.1-0.1 0-0.1-0.1-0.1l-1 0.1c-0.1 0-0.1-0.1-0.1-0.1l0.5-0.8c0-0.1 0-0.1-0.1-0.1l-1.1 0.3-2.6 2.5v0.1c0.1 0.1 0.2 0.3 0.3 0.4 0.1 0.2 0.1 0.3 0.1 0.5 0 0 0 0.1 0.1 0.1l3.6-0.2z"/>
  <path d="m113.3 9.075c-0.1 0-0.1 0.1 0 0.2l0.9 0.2c0.1 0 0.1 0.1 0 0.1l-0.8 0.6c-0.1 0 0 0.1 0.1 0.1h1s0.1 0 0.1 0.1v0.1l-0.7 0.7c-0.1 0.1 0 0.1 0.1 0.1l1-0.1c0.1 0 0.1 0.1 0.1 0.1l-0.5 0.8c0 0.1 0 0.1 0.1 0.1l1.1-0.3 2.7-2.4v-0.1c-0.1-0.1-0.2-0.3-0.3-0.4-0.1-0.2-0.1-0.3-0.1-0.5 0 0 0-0.1-0.1-0.1l-3.6 0.2z"/>
  <path d="m127.4 12.175c0.1 0 0.1-0.1 0.1-0.1l-0.5-0.8c0-0.1 0-0.1 0.1-0.1l0.9 0.1c0.1 0 0.1-0.1 0.1-0.1l-0.7-0.7v-0.1s0-0.1 0.1-0.1h1c0.1 0 0.1-0.1 0-0.1l-0.8-0.6c-0.1 0 0-0.1 0-0.1l0.9-0.2c0.1 0 0.1-0.1 0-0.2l-1-0.5-3.6-0.2s-0.1 0-0.1 0.1c0 0.2-0.1 0.3-0.1 0.5-0.1 0.2-0.2 0.3-0.3 0.4v0.1l2.7 2.4z"/>
  <path d="m114.6 3.275c-0.1 0-0.1 0.1-0.1 0.1l0.5 0.8c0 0.1 0 0.1-0.1 0.1l-0.9-0.1c-0.1 0-0.1 0.1-0.1 0.1l0.7 0.7v0.1s0 0.1-0.1 0h-1c-0.1 0-0.1 0.1 0 0.2l0.8 0.6c0.1 0 0 0.1 0 0.1l-0.9 0.2c-0.1 0-0.1 0.1 0 0.2l1 0.5 3.6 0.2s0.1 0 0.1-0.1c0-0.2 0.1-0.3 0.1-0.5 0.1-0.2 0.2-0.3 0.3-0.4v-0.1l-2.7-2.4z"/>
  <path d="m125.5 1.375c0-0.1-0.1-0.1-0.1-0.1l-0.8 0.5c-0.1 0-0.1 0-0.1-0.1l0.1-0.9c0-0.1-0.1-0.1-0.1-0.1l-0.7 0.7h-0.1s-0.1 0 0-0.1v-1c0-0.1-0.1-0.1-0.2 0l-0.6 0.8c0 0.1-0.1 0-0.1 0l-0.2-1c0-0.1-0.1-0.1-0.2 0l-0.5 1-0.3 3.6s0 0.1 0.1 0.1c0.2 0 0.3 0.1 0.5 0.1 0.2 0.1 0.3 0.2 0.4 0.3h0.1l2.4-2.7z"/>
  <path d="m116.5 14.075c0 0.1 0.1 0.1 0.1 0.1l0.8-0.5c0.1 0 0.1 0 0.1 0.1l-0.1 0.9c0 0.1 0.1 0.1 0.1 0.1l0.7-0.7h0.1s0.1 0 0.1 0.1v1c0 0.1 0.1 0.1 0.2 0l0.6-0.8c0-0.1 0.1 0 0.2 0l0.2 1c0 0.1 0.1 0.1 0.2 0l0.5-1 0.2-3.6s0-0.1-0.1-0.1c-0.2 0-0.3-0.1-0.5-0.1-0.2-0.1-0.3-0.2-0.4-0.3h-0.1l-2.4 2.7z"/>
  <path d="m25.8 33.975c0 4.6-3.6 8.1-10.8 8.1h-15v-30.8h14.2c7.5 0 10 4.4 10 8.1 0 4-2 5.9-4.3 6.9 2.7 0.9 5.9 3.1 5.9 7.7m-22.3-8.9h10.6c3.3 0 6.4-1.6 6.4-5.3 0-2.6-1.7-5.1-6-5.1h-11zm18.7 8.6c0-2.9-2.2-5.5-7.2-5.5h-11.5v10.6h11.8c4.4 0 6.9-1.9 6.9-5.1"/>
  <path d="m48.5 35.375h3.9c-1.7 4.2-5.2 7.1-10.9 7.1-7.3 0-12.1-5.3-12.1-12 0-6.6 4.5-12 11.9-12s11.9 5.3 11.9 12v1.4h-20.1c0.5 4.1 3.6 7.4 8.5 7.4 3.3 0 5.6-1.6 6.9-3.9m-15.4-6.8h16.3c-0.7-4-3.5-7-8.1-7-4.7 0-7.5 3.1-8.2 7"/>
  <path d="m57.5 9.575h3.6v32.5h-3.6z"/>
  <path d="m86 22.575v-3.8h3.6v23.2h-3.6v-3.7c-1.8 2.5-4.6 4.1-8.6 4.1-7 0-11.6-5.3-11.6-12 0-6.6 4.6-12 11.6-12 4 0.1 6.8 1.7 8.6 4.2m0.2 7.9c0-4.8-3-8.8-8.3-8.8s-8.5 4-8.5 8.8 3.2 8.8 8.5 8.8 8.3-4 8.3-8.8"/>
  <path d="m111.9 18.875h4l-9.4 23.2h-4.2l-9.4-23.2h4l7.5 19.5z"/>
  <path d="m119.2 18.875h3.6v23.2h-3.6z"/>
  <path d="m147.7 22.575v-3.8h3.6v23.2h-3.6v-3.7c-1.8 2.5-4.6 4.1-8.6 4.1-7 0-11.6-5.3-11.6-12 0-6.6 4.6-12 11.6-12 4 0.1 6.8 1.7 8.6 4.2m0.2 7.9c0-4.8-3-8.8-8.3-8.8s-8.5 4-8.5 8.8 3.2 8.8 8.5 8.8 8.3-4 8.3-8.8"/>
 </g>
</svg>
