<?xml version="1.0" encoding="UTF-8"?>
<svg width="93px" height="22px" viewBox="0 0 93 22" version="1.1" xmlns="http://www.w3.org/2000/svg" xmlns:xlink="http://www.w3.org/1999/xlink">
    <title>logo/brussels-airlines/brussels_ailines_logo_full_colored</title>
    <g id="Page-1" stroke="none" stroke-width="1" fill="none" fill-rule="evenodd">
        <g id="BAIR_the_loft" transform="translate(-172.000000, -33.000000)" fill-rule="nonzero">
            <g id="logo/brussels-airlines/brussels_ailines_logo_full_colored" transform="translate(172.142857, 33.587159)">
                <g id="brussels_ailines_text" transform="translate(0.000000, 0.149984)" fill="#051446">
                    <path d="M36.2667492,19.8180518 L35.6387181,19.8180518 L35.2829078,18.8608501 L33.6473638,18.8608501 L33.2908138,19.8180518 L32.6857143,19.8180518 L34.1082159,16.0652987 L34.8383298,16.0652987 L36.2667492,19.8180518 Z M33.8596664,18.28699 L35.0683859,18.28699 L34.4610673,16.6675829 L33.8596664,18.28699 Z M37.8638272,19.8180518 L37.8638272,16.0652987 L38.4474745,16.0652987 L38.4474745,19.8195882 L37.8638272,19.8180518 Z M41.9486185,16.0652987 C42.7800755,16.0652987 43.2290918,16.4494085 43.2290918,17.1515613 C43.2290918,17.7899518 42.759363,18.2132409 42.0233313,18.2401286 L43.2135575,19.8195882 L42.4908409,19.8195882 L41.3405601,18.2385921 L41.0446679,18.2385921 L41.0446679,19.8180518 L40.4610206,19.8180518 L40.4610206,16.0652987 L41.9486185,16.0652987 Z M41.0446679,16.6322448 L41.0446679,17.6893151 L41.9323444,17.6893151 C42.4020732,17.6893151 42.6217732,17.5118563 42.6217732,17.1515613 C42.6217732,16.7912663 42.3894978,16.6337812 41.9323444,16.6337812 L41.0446679,16.6322448 Z M47.717776,19.8180518 L45.1331579,19.8180518 L45.1331579,16.0652987 L45.7168052,16.0652987 L45.7168052,19.2457281 L47.717776,19.2457281 L47.717776,19.8180518 Z M49.3370458,19.8180518 L49.3370458,16.0652987 L49.9214329,16.0652987 L49.9214329,19.8195882 L49.3370458,19.8180518 Z M54.4367473,19.8180518 L52.4202422,17.101627 L52.4202422,19.8180518 L51.8373346,19.8180518 L51.8373346,16.0652987 L52.3625432,16.0652987 L54.3812675,18.7817235 L54.3812675,16.0652987 L54.9649148,16.0652987 L54.9649148,19.8195882 L54.4367473,19.8180518 Z M59.7243403,19.8180518 L57.0879411,19.8180518 L57.0879411,16.0652987 L59.6903127,16.0652987 L59.6903127,16.6337812 L57.6715884,16.6337812 L57.6715884,17.6447583 L59.620778,17.6447583 L59.620778,18.2132409 L57.6715884,18.2132409 L57.6715884,19.2511057 L59.7243403,19.2511057 L59.7243403,19.8180518 Z M63.0664423,17.6670367 L62.8156737,17.6324668 C62.3459448,17.5625588 62.0641076,17.4419483 62.0641076,17.1308194 C62.0641076,16.7874252 62.394767,16.5707872 62.877811,16.5707872 C63.2759747,16.5909307 63.6700099,16.6639948 64.0502837,16.7881934 L64.0502837,16.2051147 C63.672668,16.0757535 63.2783494,16.0065961 62.8807699,16 C62.0981352,16 61.4553094,16.4179115 61.4553094,17.171535 C61.4553094,17.8690785 61.9901345,18.1318096 62.5264391,18.2093998 L62.8082763,18.2493472 C63.3379233,18.3261692 63.6219798,18.4613758 63.6219798,18.7563722 C63.6219798,19.1020711 63.2521146,19.3110268 62.7772077,19.3110268 C62.2756705,19.3110268 61.7371467,19.0759516 61.4871178,18.9507318 L61.4871178,19.5591618 C61.8861045,19.7757137 62.3299809,19.887792 62.7801666,19.8857143 C63.5620616,19.8857143 64.2285714,19.4669754 64.2285714,18.7025968 C64.2307779,18.0058216 63.6523087,17.755382 63.0664423,17.6701096 L63.0664423,17.6670367 Z" id="BA-AIRLINES"></path>
                    <path d="M0,0.0133392759 L1.87763486,0.0133392759 L1.87763486,4.23744331 C2.53358686,3.53120275 3.62363561,3.105087 4.84827654,3.105087 C7.36855209,3.105087 9.29795317,4.97406776 9.29795317,7.61598546 C9.29795317,10.2445639 7.34340849,12.0876076 4.65526248,12.0876076 C2.08322072,12.0883482 0,10.3742513 0,7.08834299 L0,0.0133392759 Z M4.60423578,10.2712424 C6.24966215,10.2712424 7.3818634,9.17593967 7.3818634,7.59078905 C7.3818634,6.04417412 6.31400017,4.92293387 4.70702871,4.92293387 C3.11188952,4.92293387 1.94197288,6.01823664 1.94197288,7.66489614 C1.94197288,9.25597532 3.02240791,10.2712424 4.60423578,10.2712424 Z M14.4804916,3.19623872 C15.0560233,3.19651819 15.6311536,3.22669557 16.2035673,3.28664936 L16.2035673,5.01334452 C15.7147463,4.96146956 15.1105605,4.93923743 14.7762986,4.93923743 C13.1301327,4.93923743 12.654623,5.67363868 12.654623,7.19431613 L12.654623,11.9749644 L10.7769881,11.9749644 L10.7769881,6.31466499 C10.7769881,4.87179998 11.7413189,3.19623872 14.4804916,3.19623872 Z M21.4504438,12.07575 C18.6084781,12.07575 17.4252502,10.2586442 17.4252502,8.2740564 L17.4252502,3.19623872 L19.301406,3.19623872 L19.301406,7.93909236 C19.301406,8.94472555 19.430082,10.2593853 21.4460067,10.2593853 C23.3620964,10.2593853 23.5906073,8.9995648 23.5906073,7.93909236 L23.5906073,3.19623872 L25.4683101,3.19623872 L25.4683101,8.2740564 C25.4756374,10.2586442 24.2798376,12.07575 21.4504438,12.07575 L21.4504438,12.07575 Z M30.5294998,12.1142857 C29.3595831,12.1142857 28.0890921,11.908268 27.2016712,11.5599647 L27.2016712,9.91034091 C27.8672369,10.1941711 29.2079821,10.4513227 30.3815963,10.4513227 C31.5256298,10.4513227 32.2459198,10.1037604 32.2459198,9.44643054 C32.2459198,8.94398448 31.8598917,8.66015433 29.8927752,8.23477965 C28.2207262,7.8746192 27.1565606,7.25582501 27.1565606,5.70921008 C27.1565606,3.96917565 28.5194913,3.07989059 30.8600641,3.07989059 C31.6446921,3.07989059 32.8146088,3.18364051 33.7537959,3.45413138 L33.7537959,5.09041589 C32.9403267,4.89699639 31.78594,4.71988045 30.9244021,4.71988045 C29.882422,4.71988045 29.0852222,4.94220171 29.0852222,5.67363868 C29.0852222,6.17608473 29.6258094,6.42063812 31.3488851,6.78153964 C33.162182,7.15578044 34.178279,7.90277989 34.178279,9.37528773 C34.1694048,11.1086525 32.7288247,12.1142857 30.5294998,12.1142857 Z M38.9659151,12.1142857 C37.7952589,12.1142857 36.5255074,11.908268 35.6380865,11.5599647 L35.6380865,9.91034091 C36.3036522,10.1941711 37.6443974,10.4513227 38.8180116,10.4513227 C39.9627846,10.4513227 40.6830747,10.1037604 40.6830747,9.44643054 C40.6830747,8.94398448 40.2970465,8.66015433 38.3291905,8.23477965 C36.6578811,7.8746192 35.5929759,7.25582501 35.5929759,5.70921008 C35.5929759,3.96917565 36.9566461,3.07989059 39.2972189,3.07989059 C40.0811074,3.07989059 41.2517636,3.18364051 42.1902113,3.45413138 L42.1902113,5.09041589 C41.376742,4.89699639 40.2230948,4.71988045 39.3608174,4.71988045 C38.3195768,4.71988045 37.522377,4.94220171 37.522377,5.67363868 C37.522377,6.17608473 38.0622247,6.42063812 39.7853004,6.78153964 C41.5985973,7.15578044 42.6146943,7.90277989 42.6146943,9.37528773 C42.6050806,11.1086525 41.1645005,12.1142857 38.9659151,12.1142857 Z M51.4911225,9.84883203 L51.4911225,11.5532951 C50.707234,11.9008573 49.7813581,12.106875 48.6876118,12.106875 C45.4729293,12.106875 43.8267634,10.0452158 43.8267634,7.6352533 C43.8267634,4.96739812 45.6016054,3.07322095 48.3533499,3.07322095 C50.4239988,3.07322095 52.1603858,4.38788069 52.1603858,6.28205787 C52.1603858,7.59671762 51.3373029,8.35705634 49.626799,8.35705634 L45.819763,8.35705634 C46.11557,9.64577861 47.1701219,10.3579477 48.8939371,10.3579477 C49.524006,10.3483138 50.5526748,10.1941711 51.4911225,9.84883203 Z M49.626799,6.81785212 C50.0764256,6.81785212 50.3596608,6.54662017 50.3596608,6.17312045 C50.3596608,5.4898531 49.6134876,4.75545185 48.379233,4.75545185 C47.1449783,4.75545185 46.0771151,5.37424604 45.8071912,6.81785212 L49.626799,6.81785212 Z M55.5296274,0 L55.5296274,11.9468037 L53.6519926,11.9468037 L53.6519926,0 L55.5296274,0 Z M60.5834898,12.1142857 C59.4128337,12.1142857 58.1430822,11.908268 57.2556612,11.5599647 L57.2556612,9.91034091 C57.9212269,10.1941711 59.2612326,10.4513227 60.4318887,10.4513227 C61.5766618,10.4513227 62.2962123,10.1037604 62.2962123,9.44643054 C62.2962123,8.94398448 61.9109237,8.66015433 59.9430677,8.23477965 C58.2710187,7.8746192 57.206853,7.25582501 57.206853,5.70921008 C57.206853,3.96917565 58.5697837,3.07989059 60.9103565,3.07989059 C61.6949846,3.07989059 62.8656407,3.18364051 63.8040884,3.45413138 L63.8040884,5.09041589 C62.9906192,4.89699639 61.8362324,4.71988045 60.9746946,4.71988045 C59.933454,4.71988045 59.1362541,4.94220171 59.1362541,5.67363868 C59.1362541,6.17608473 59.6761019,6.42063812 61.3991776,6.78153964 C63.2124744,7.15578044 64.2285714,7.90277989 64.2285714,9.37528773 C64.2226553,11.1086525 62.7850333,12.1142857 60.5834898,12.1142857 L60.5834898,12.1142857 Z" id="BA-brussels"></path>
                </g>
                <g id="brussels_airlines_symbols" transform="translate(71.530016, 0.000000)" fill="#E5002B">
                    <path d="M2.07863505,19.5399387 C2.89879994,19.5399387 3.56366072,18.8750779 3.56366072,18.0549129 C3.56366072,17.2347506 2.89879994,16.5698765 2.07863505,16.5698765 C1.25847282,16.5698765 0.59359881,17.2347506 0.59359881,18.0549129 C0.59359881,18.8750779 1.25847282,19.5399387 2.07863505,19.5399387 Z" id="Vector"></path>
                    <path d="M17.907548,19.507767 C18.7099429,19.507767 19.3604067,18.8573031 19.3604067,18.0549083 C19.3604067,17.2525134 18.7099429,16.6020443 17.907548,16.6020443 C17.1051532,16.6020443 16.454684,17.2525134 16.454684,18.0549083 C16.454684,18.8573031 17.1051532,19.507767 17.907548,19.507767 Z" id="Vector"></path>
                    <path d="M9.99360859,20.5029764 C11.3456445,20.5029764 12.4416825,19.4069395 12.4416825,18.0549023 C12.4416825,16.7028731 11.3456445,15.6068388 9.99360859,15.6068388 C8.64157799,15.6068388 7.54553992,16.7028731 7.54553992,18.0549023 C7.54553992,19.4069395 8.64157799,20.5029764 9.99360859,20.5029764 Z" id="Vector"></path>
                    <path d="M2.0786343,12.21856 C3.22662455,12.21856 4.15725802,11.2879058 4.15725802,10.1399226 C4.15725802,8.99193149 3.22662455,8.06130118 2.0786343,8.06130118 C0.93063611,8.06130118 0,8.99193149 0,10.1399226 C0,11.2879058 0.93063611,12.21856 2.0786343,12.21856 Z" id="Vector"></path>
                    <path d="M17.9075588,12.5713968 C19.2504122,12.5713968 20.3390207,11.4827888 20.3390207,10.1399359 C20.3390207,8.79706969 19.2504122,7.70846432 17.9075588,7.70846432 C16.5646921,7.70846432 15.4760862,8.79706969 15.4760862,10.1399359 C15.4760862,11.4827888 16.5646921,12.5713968 17.9075588,12.5713968 Z" id="Vector"></path>
                    <path d="M9.99360719,12.9418756 C11.541088,12.9418756 12.7955527,11.6874111 12.7955527,10.1399306 C12.7955527,8.59245799 11.541088,7.33798556 9.99360719,7.33798556 C8.44613689,7.33798556 7.19166168,8.59245799 7.19166168,10.1399306 C7.19166168,11.6874111 8.44613689,12.9418756 9.99360719,12.9418756 Z" id="Vector"></path>
                    <path d="M17.9075434,4.45198122 C19.1369303,4.45198122 20.133534,3.45537758 20.133534,2.22599061 C20.133534,0.99660893 19.1369303,0 17.9075434,0 C16.6781617,0 15.6815528,0.99660893 15.6815528,2.22599061 C15.6815528,3.45537758 16.6781617,4.45198122 17.9075434,4.45198122 Z" id="Vector"></path>
                    <path d="M9.99360969,3.84489115 C10.8877038,3.84489115 11.6125115,3.12008342 11.6125115,2.22598935 C11.6125115,1.33189528 10.8877038,0.60708754 9.99360969,0.60708754 C9.09951569,0.60708754 8.37470791,1.33189528 8.37470791,2.22598935 C8.37470791,3.12008342 9.09951569,3.84489115 9.99360969,3.84489115 Z" id="Vector"></path>
                    <path d="M2.07862522,3.67885221 C2.88101982,3.67885221 3.53148341,3.02838866 3.53148341,2.22599414 C3.53148341,1.42359961 2.88101982,0.77313078 2.07862522,0.77313078 C1.27623062,0.77313078 0.62576174,1.42359961 0.62576174,2.22599414 C0.62576174,3.02838866 1.27623062,3.67885221 2.07862522,3.67885221 Z" id="Vector"></path>
                </g>
            </g>
        </g>
    </g>
</svg>