<?xml version="1.0" encoding="utf-8"?>
<!-- Generator: Adobe Illustrator 21.0.0, SVG Export Plug-In . SVG Version: 6.00 Build 0)  -->
<svg version="1.1" id="Layer_1" xmlns="http://www.w3.org/2000/svg" xmlns:xlink="http://www.w3.org/1999/xlink" x="0px" y="0px"
	 viewBox="0 0 237 41" style="enable-background:new 0 0 237 41;" xml:space="preserve">
<g>
	<path d="M159.3,39h9V25.1c-0.2-3.5,2.6-6.5,6.1-6.6c0.2,0,0.4,0,0.7,0c1.2,0,2.3,0.2,3.4,0.5v-8.4c-0.7-0.2-1.4-0.2-2.1-0.2
		c-3.9,0-6.9,1.9-8.2,5.4H168V11h-8.7L159.3,39z M126.8,25c0,8.4,5.9,14.8,14.4,14.8s14.5-6.4,14.5-14.8s-6-14.8-14.5-14.8
		S126.8,16.6,126.8,25 M135.8,25c0-3.6,1.3-7.8,5.4-7.8c4.2,0,5.5,4.3,5.5,7.8s-1.3,7.8-5.5,7.8S135.8,28.6,135.8,25 M123.4,0.5h-9
		V14h-0.1c-1.8-2.5-4.7-4-7.8-3.8c-7.8,0-11.6,6.9-11.6,14.2c0,7.9,3.6,15.4,12.3,15.4c3.1,0.1,5.9-1.5,7.6-4h0.1V39h8.6V0.5z
		 M109.4,17.2c3.9,0,5.3,3.7,5.3,7.8c0,3.6-1,7.8-5.3,7.8c-4.1,0-5.5-4.3-5.5-8.1C103.9,21.1,105.2,17.2,109.4,17.2 M64.1,39h9V23.7
		c0-3.1,1.5-6,4.9-6c4.9,0,4.5,3.9,4.5,7.7V39h9V21c0-4-0.7-10.8-9.9-10.8c-3.5,0-6.7,1.7-8.6,4.6h-0.1V11h-8.7L64.1,39z M31.7,25
		c0,8.4,5.9,14.8,14.4,14.8S60.6,33.4,60.6,25s-6-14.8-14.5-14.8S31.7,16.6,31.7,25 M40.7,25c0-3.6,1.3-7.8,5.4-7.8s5.5,4.3,5.5,7.8
		s-1.3,7.8-5.5,7.8S40.7,28.6,40.7,25 M29.6,20.5C28.9,12.8,22.6,9,15.5,9c-9.2,0-15,6.6-15,15.9c0,8.9,6.4,14.9,15,14.9
		c7.6,0,13.5-4.5,14.4-12.3h-9.1c-0.4,3.1-2.1,5-5.3,5c-4,0-5.6-3.9-5.6-7.6c0-4,0.8-8.6,6.1-8.6c2.4-0.1,4.4,1.8,4.6,4.2L29.6,20.5
		z"/>
	<path d="M194.4,20.5c-0.2-10.9,8.6-19.9,19.5-20c0.1,0,0.3,0,0.4,0c10.9-0.1,19.8,8.7,19.9,19.6c0,0.1,0,0.3,0,0.4
		c0.1,10.9-8.6,19.8-19.4,20c-0.2,0-0.3,0-0.5,0c-10.9,0.1-19.8-8.6-19.9-19.5C194.4,20.9,194.4,20.7,194.4,20.5z M196.3,20.6
		c-0.1,9.9,7.7,18,17.6,18.2c0.1,0,0.3,0,0.4,0c9.9,0.1,18-7.8,18.1-17.7c0-0.1,0-0.3,0-0.4c0.2-9.9-7.8-18.1-17.7-18.2
		c-0.1,0-0.3,0-0.4,0c-9.9-0.1-18,7.9-18.1,17.9C196.3,20.3,196.3,20.4,196.3,20.6L196.3,20.6z M198.6,14.6h9.6v1.7l-1.9,0.5l6.2,4
		c0,0-3.3-2.9-2.2-5.1c0.5-0.8,1.4-1.2,2.4-1.1h17.5l-10.5,8.3l-1.2-1.2l5.1-4.9h-9.7c-0.1,0-0.6,0-0.7,0.3c-0.7,1.5,5,7.2,10.6,11
		l2.4,1.6v2.8L198.6,14.6z"/>
</g>
</svg>
