<?xml version="1.0" encoding="UTF-8" standalone="no"?>
<!-- Created with Inkscape (http://www.inkscape.org/) -->

<svg
   xmlns:dc="http://purl.org/dc/elements/1.1/"
   xmlns:cc="http://creativecommons.org/ns#"
   xmlns:rdf="http://www.w3.org/1999/02/22-rdf-syntax-ns#"
   xmlns:svg="http://www.w3.org/2000/svg"
   xmlns="http://www.w3.org/2000/svg"
   xmlns:sodipodi="http://sodipodi.sourceforge.net/DTD/sodipodi-0.dtd"
   xmlns:inkscape="http://www.inkscape.org/namespaces/inkscape"
   width="161"
   height="83"
   id="svg2"
   version="1.1"
   inkscape:version="0.48.0 r9654"
   sodipodi:docname="New document 1">
  <defs
     id="defs4" />
  <sodipodi:namedview
     id="base"
     pagecolor="#ffffff"
     bordercolor="#666666"
     borderopacity="1.0"
     inkscape:pageopacity="0.0"
     inkscape:pageshadow="2"
     inkscape:zoom="0.98994949"
     inkscape:cx="119.16121"
     inkscape:cy="59.875597"
     inkscape:document-units="px"
     inkscape:current-layer="layer1"
     showgrid="false"
     fit-margin-top="0"
     fit-margin-left="0"
     fit-margin-right="0"
     fit-margin-bottom="0"
     inkscape:window-width="1440"
     inkscape:window-height="838"
     inkscape:window-x="-8"
     inkscape:window-y="-8"
     inkscape:window-maximized="1" />
  <metadata
     id="metadata7">
    <rdf:RDF>
      <cc:Work
         rdf:about="">
        <dc:format>image/svg+xml</dc:format>
        <dc:type
           rdf:resource="http://purl.org/dc/dcmitype/StillImage" />
        <dc:title></dc:title>
      </cc:Work>
    </rdf:RDF>
  </metadata>
  <g
     inkscape:label="Layer 1"
     inkscape:groupmode="layer"
     id="layer1"
     transform="translate(-431.00336,-288.06452)">
    <g
       id="g2996"
       transform="translate(334.36049,34.345186)">
      <path
         style="fill:#fdf8ed"
         d="m 96.642868,295.21933 0,-41.5 80.500002,0 80.5,0 0,41.5 0,41.5 -80.5,0 -80.500002,0 0,-41.5 z"
         id="path3000"
         inkscape:connector-curvature="0" />
      <path
         style="fill:#fec328"
         d="m 96.642868,295.21933 0,-41.5 80.500002,0 80.5,0 0,41.5 0,41.5 -80.5,0 -80.500002,0 0,-41.5 z m 99.250002,22.28369 c 1.51391,-1.73474 1.75,-4.21627 1.75,-18.39447 0,-15.6557 -0.0884,-16.38922 -1.97582,-16.38922 -1.87821,0 -1.98937,0.8275 -2.25,16.75 l -0.27418,16.75 -3.75,0.31036 c -2.35215,0.19468 -3.75,0.81968 -3.75,1.67668 0,3.04334 7.42488,2.53385 10.25,-0.70335 z m -51,-9.45704 c 0.4125,-0.24457 0.75,-4.95274 0.75,-10.46259 0,-9.73909 -0.0814,-10.09926 -2.92308,-12.94098 -3.20452,-3.20453 -7.30881,-3.78401 -12.9277,-1.82525 -2.40389,0.838 -3.14922,1.69167 -3.14922,3.60698 0,1.98666 0.36442,2.36505 1.75,1.8171 6.25896,-2.4752 11.25,-1.36311 11.25,2.5067 0,1.3812 -1.12405,1.93831 -4.98114,2.4688 -6.55901,0.90209 -10.01886,3.6372 -10.01886,7.92018 0,5.76884 5.72267,8.89135 14.5,7.91177 2.75,-0.30691 5.3375,-0.75813 5.75,-1.00271 z m -13.21013,-4.77861 c -2.35341,-2.83568 -0.83282,-5.02555 3.71875,-5.35554 l 4.24138,-0.3075 0,3.5575 c 0,3.37448 -0.17376,3.5575 -3.37756,3.5575 -1.85765,0 -3.91981,-0.65338 -4.58257,-1.45196 z m 30.85335,5.45196 c 2.85045,0 6.10678,-3.78845 6.10678,-7.1047 0,-4.71629 -1.57186,-6.59236 -7.04704,-8.41092 -4.2117,-1.39891 -5.01438,-2.04542 -4.75952,-3.83353 0.24946,-1.75022 0.95849,-2.1373 3.80656,-2.07811 1.925,0.04 4.2875,0.42565 5.25,0.85699 1.42202,0.63727 1.75,0.29102 1.75,-1.84749 0,-3.26272 -3.76512,-4.97906 -9.32762,-4.25202 -5.25124,0.68636 -7.67238,3.11695 -7.67238,7.70232 0,4.24674 1.40902,5.76963 7.39426,7.99185 2.85847,1.0613 4.20141,2.18976 4.42066,3.71465 0.43101,2.99767 -3.42671,3.86783 -8.23698,1.85797 l -3.70611,-1.54851 0.31409,2.72575 c 0.24206,2.10072 1.11665,2.99975 3.81408,3.92065 1.925,0.6572 4.0993,0.9947 4.83179,0.75 0.73248,-0.24469 2.11013,-0.4449 3.06143,-0.4449 z m 25.10208,-0.5666 c 1.25029,-0.35436 2.0047,-1.42201 2.0047,-2.8371 0,-2.01619 -0.4734,-2.2593 -4.25,-2.18261 l -4.25,0.0863 -0.29094,-7.68719 -0.29093,-7.6872 3.79093,-0.3128 c 3.29358,-0.27177 3.79094,-0.6408 3.79094,-2.81281 0,-2.16705 -0.49943,-2.54134 -3.75,-2.81036 -3.4125,-0.28244 -3.75,-0.57494 -3.75,-3.25 0,-2.5996 -0.34702,-2.93964 -3,-2.93964 -2.66667,0 -3,0.33333 -3,3 0,2.33333 -0.44445,3 -2,3 -1.55556,0 -2,0.66667 -2,3 0,2.33333 0.44444,3 2,3 1.83161,0 2,0.66667 2,7.91821 0,4.35502 0.29235,8.68006 0.64966,9.6112 0.79477,2.07115 6.20775,4.54224 8.59564,3.92401 0.95991,-0.24852 2.64741,-0.70753 3.75,-1.02002 z m 36.2547,-0.5869 c 0.9625,-0.50428 1.75,-1.62418 1.75,-2.48867 0,-1.1291 -0.4929,-1.35089 -1.75,-0.78745 -0.9625,0.4314 -3.86598,0.97153 -6.45217,1.20028 -4.01417,0.35506 -5.07495,0.0431 -7.25,-2.13192 -1.40131,-1.40131 -2.54783,-3.69329 -2.54783,-5.09328 l 0,-2.54546 9.5,0 9.5,0 0,-2.95295 c 0,-4.48255 -1.92519,-7.78367 -5.53969,-9.49886 -4.03809,-1.9162 -5.60307,-1.93321 -9.97053,-0.10837 -6.60046,2.75785 -9.59974,12.57928 -5.97943,19.5802 3.05771,5.91296 12.18104,8.26271 18.73965,4.82648 z m -16.25,-15.71164 c 0,-0.47583 0.93266,-2.05083 2.07258,-3.5 3.70397,-4.70884 12.92742,-2.9704 12.92742,2.43657 0,1.73333 -0.75926,1.92857 -7.5,1.92857 -4.125,0 -7.5,-0.38931 -7.5,-0.86514 z m 37.25,16.16787 c 0.4125,-0.23142 0.75,-0.97885 0.75,-1.66095 0,-0.83603 -1.17807,-1.10265 -3.61506,-0.81814 -2.36231,0.27579 -3.91643,-0.0537 -4.48469,-0.9508 -0.47829,-0.75506 -0.87652,-5.28318 -0.88494,-10.06248 l -0.0153,-8.68963 3.6727,-0.31037 c 5.27539,-0.4458 5.62088,-2.81036 0.41063,-2.81036 -4.01596,0 -4.08333,-0.059 -4.08333,-3.57332 0,-2.86279 -0.34798,-3.50741 -1.75,-3.24181 -1.15255,0.21833 -1.85698,1.43827 -2.06336,3.57332 -0.23507,2.43192 -0.79718,3.24181 -2.25,3.24181 -2.54604,0 -2.49834,2.04035 0.0634,2.71025 1.78219,0.46606 2.01086,1.40877 2.09968,8.65638 0.12454,10.16172 0.84734,12.79862 3.92945,14.33521 2.13964,1.06673 5.93659,0.88239 8.22087,-0.39911 z m -128.25,-9.73937 0,-10.43664 3.25,-0.31336 c 2.71644,-0.26191 3.25,-0.72379 3.25,-2.81336 0,-2.08957 -0.53356,-2.55145 -3.25,-2.81336 -2.92505,-0.28203 -3.24847,-0.63198 -3.23469,-3.5 0.0234,-4.87396 1.21933,-6.07253 5.38461,-5.39659 3.31675,0.53823 3.60008,0.39046 3.60008,-1.87767 0,-4.58326 -8.80319,-5.49731 -12.5947,-1.30773 -0.93332,1.0313 -1.91357,4.12965 -2.17835,6.88522 -0.38998,4.05863 -0.83708,5.01013 -2.35418,5.01013 -1.41419,0 -1.87277,0.7346 -1.87277,3 0,2.33333 0.44444,3 2,3 1.87301,0 2,0.66667 2,10.5 l 0,10.5 3,0 3,0 0,-10.43664 z M 198.311,273.29687 c -0.74882,-1.95138 -3.03691,-2.04305 -4.58021,-0.18349 -0.89517,1.07862 -0.77741,1.7736 0.52042,3.07143 1.48795,1.48795 1.84608,1.50867 3.17126,0.18349 0.82164,-0.82164 1.22148,-2.20378 0.88853,-3.07143 z"
         id="path2998"
         inkscape:connector-curvature="0" />
    </g>
  </g>
</svg>
