<?xml version="1.0" encoding="UTF-8" standalone="no"?>
<svg
   xmlns:dc="http://purl.org/dc/elements/1.1/"
   xmlns:cc="http://creativecommons.org/ns#"
   xmlns:rdf="http://www.w3.org/1999/02/22-rdf-syntax-ns#"
   xmlns:svg="http://www.w3.org/2000/svg"
   xmlns="http://www.w3.org/2000/svg"
   width="500"
   height="120"
   viewBox="0 0 132.29166 31.750001"
   version="1.1"
   id="svg8">
  <defs
     id="defs2" />
  <metadata
     id="metadata5">
    <rdf:RDF>
      <cc:Work
         rdf:about="">
        <dc:format>image/svg+xml</dc:format>
        <dc:type
           rdf:resource="http://purl.org/dc/dcmitype/StillImage" />
        <dc:title></dc:title>
      </cc:Work>
    </rdf:RDF>
  </metadata>
  <g
     id="layer1">
    <g
       aria-label="RONTIER"
       transform="matrix(0.63260588,0,0,0.63091124,-55.055845,-77.317693)"
       id="text835"
       style="font-style:normal;font-variant:normal;font-weight:normal;font-stretch:normal;font-size:37.4754px;line-height:1.25;font-family:Arson;-inkscape-font-specification:Arson;fill:#288067;fill-opacity:1;stroke-width:0.936886">
      <path
         d="m 124.17025,125.28324 h 9.8935 q 6.29587,0 9.03157,2.73571 2.02368,2.02367 2.02368,5.35898 0,7.1578 -7.86984,9.2939 l 4.04734,8.84419 h -8.01973 l -3.48521,-7.94478 h -3.22289 l -2.13609,7.94478 h -7.30771 z m 8.05721,12.59174 q 2.47337,0 3.93492,-0.97436 1.46154,-0.97436 1.46154,-2.66076 0,-1.04931 -0.67456,-1.76134 -0.89941,-0.89941 -3.22289,-0.89941 h -3.93491 l -1.72387,6.29587 z"
         style="font-style:normal;font-variant:normal;font-weight:normal;font-stretch:normal;font-family:Arson;-inkscape-font-specification:Arson;fill:#288067;fill-opacity:1;stroke-width:0.936886"
         id="path897" />
      <path
         d="m 159.02234,152.0032 q -5.54636,0 -9.06904,-3.37278 -3.44774,-3.33531 -3.44774,-8.39449 0,-6.18344 4.38462,-10.71797 4.572,-4.7219 11.24262,-4.7219 5.54636,0 9.06905,3.37279 3.44773,3.33531 3.44773,8.39449 0,6.18344 -4.38462,10.71796 -4.572,4.7219 -11.24262,4.7219 z m 0.63708,-6.52072 q 3.29784,0 5.50889,-2.7357 2.06115,-2.47338 2.06115,-5.62131 0,-2.5858 -1.46155,-4.15977 -1.57396,-1.64892 -4.27219,-1.64892 -3.26036,0 -5.50888,2.69823 -2.06115,2.54833 -2.06115,5.65879 0,2.5858 1.46154,4.15976 1.57397,1.64892 4.27219,1.64892 z"
         style="font-style:normal;font-variant:normal;font-weight:normal;font-stretch:normal;font-family:Arson;-inkscape-font-specification:Arson;fill:#288067;fill-opacity:1;stroke-width:0.936886"
         id="path899" />
      <path
         d="m 181.62,125.28324 h 6.78305 l 6.78304,14.57793 3.93492,-14.57793 h 7.23275 l -7.04537,26.23278 h -6.37082 l -7.08285,-15.10258 -4.04734,15.10258 h -7.23275 z"
         style="font-style:normal;font-variant:normal;font-weight:normal;font-stretch:normal;font-family:Arson;-inkscape-font-specification:Arson;fill:#288067;fill-opacity:1;stroke-width:0.936886"
         id="path901" />
      <path
         d="m 216.41031,131.65406 h -7.86983 l 1.72387,-6.37082 h 22.97242 l -1.68639,6.37082 h -7.86984 l -5.3215,19.86196 h -7.30771 z"
         style="font-style:normal;font-variant:normal;font-weight:normal;font-stretch:normal;font-family:Arson;-inkscape-font-specification:Arson;fill:#288067;fill-opacity:1;stroke-width:0.936886"
         id="path903" />
      <path
         d="m 236.84717,125.28324 h 7.27023 l -7.04538,26.23278 h -7.27022 z"
         style="font-style:normal;font-variant:normal;font-weight:normal;font-stretch:normal;font-family:Arson;-inkscape-font-specification:Arson;fill:#288067;fill-opacity:1;stroke-width:0.936886"
         id="path905" />
      <path
         d="m 247.53926,125.28324 h 21.0237 l -1.6864,6.18344 h -13.79094 l -1.08679,3.9724 h 12.51678 l -1.53649,5.73373 h -12.51678 l -1.12426,4.15977 h 14.0158 l -1.64892,6.18344 h -21.21108 z"
         style="font-style:normal;font-variant:normal;font-weight:normal;font-stretch:normal;font-family:Arson;-inkscape-font-specification:Arson;fill:#288067;fill-opacity:1;stroke-width:0.936886"
         id="path907" />
      <path
         d="m 272.61025,125.28324 h 9.89351 q 6.29586,0 9.03157,2.73571 2.02367,2.02367 2.02367,5.35898 0,7.1578 -7.86984,9.2939 l 4.04735,8.84419 h -8.01974 l -3.48521,-7.94478 h -3.22288 l -2.1361,7.94478 h -7.30771 z m 8.05721,12.59174 q 2.47338,0 3.93492,-0.97436 1.46154,-0.97436 1.46154,-2.66076 0,-1.04931 -0.67456,-1.76134 -0.89941,-0.89941 -3.22288,-0.89941 h -3.93492 l -1.72387,6.29587 z"
         style="font-style:normal;font-variant:normal;font-weight:normal;font-stretch:normal;font-family:Arson;-inkscape-font-specification:Arson;fill:#288067;fill-opacity:1;stroke-width:0.936886"
         id="path909" />
    </g>
    <g
       aria-label="AIRLINES"
       id="text853"
       style="font-size:14.8112px;line-height:1.25;font-family:'Arson Pro';-inkscape-font-specification:'Arson Pro';letter-spacing:1.42875px;fill:#9e9996;fill-opacity:1;stroke-width:0.37028"
       transform="matrix(0.63175799,0,0,0.63175799,-55.055845,-77.317693)">
      <path
         d="m 213.64904,159.02305 h 2.7697 l 4.41374,10.4419 h -3.08073 l -0.75538,-1.8514 h -3.99902 l -0.74056,1.8514 h -3.02148 z m 2.51791,6.35401 -1.15528,-2.94743 -1.17008,2.94743 z"
         style="fill:#9e9996;fill-opacity:1;stroke-width:0.37028"
         id="path912" />
      <path
         d="m 223.3276,159.09711 h 2.88819 v 10.36784 h -2.88819 z"
         style="fill:#9e9996;fill-opacity:1;stroke-width:0.37028"
         id="path914" />
      <path
         d="m 229.54037,159.09711 h 4.9025 q 2.26612,0 3.37696,1.11084 0.91829,0.91829 0.91829,2.45866 0,2.28092 -2.13281,3.18441 l 2.47347,3.61393 h -3.31771 l -2.08838,-3.13997 h -1.25895 v 3.13997 h -2.87337 z m 4.7692,4.97656 q 1.54037,0 1.54037,-1.25895 0,-1.22933 -1.55518,-1.22933 h -1.88102 v 2.48828 z"
         style="fill:#9e9996;fill-opacity:1;stroke-width:0.37028"
         id="path916" />
      <path
         d="m 241.61837,159.09711 h 2.87337 v 7.84994 h 5.021 v 2.5179 h -7.89437 z"
         style="fill:#9e9996;fill-opacity:1;stroke-width:0.37028"
         id="path918" />
      <path
         d="m 252.23005,159.09711 h 2.88818 v 10.36784 h -2.88818 z"
         style="fill:#9e9996;fill-opacity:1;stroke-width:0.37028"
         id="path920" />
      <path
         d="m 258.44282,159.09711 h 2.68082 l 4.26563,5.48014 v -5.48014 h 2.84375 v 10.36784 h -2.51791 l -4.42854,-5.6875 v 5.6875 h -2.84375 z"
         style="fill:#9e9996;fill-opacity:1;stroke-width:0.37028"
         id="path922" />
      <path
         d="m 271.49835,159.09711 h 8.33871 v 2.44385 h -5.49496 v 1.56999 h 4.97657 v 2.26611 h -4.97657 v 1.64404 h 5.56902 v 2.44385 h -8.41277 z"
         style="fill:#9e9996;fill-opacity:1;stroke-width:0.37028"
         id="path924" />
      <path
         d="m 286.87925,169.64268 q -2.93261,0 -4.85807,-1.71809 l 1.59961,-1.91065 q 1.55517,1.24414 3.36214,1.24414 1.1849,0 1.1849,-0.74056 0,-0.32584 -0.34066,-0.5332 -0.37028,-0.22217 -1.40706,-0.45915 -1.95508,-0.44433 -2.78451,-1.02197 -1.12565,-0.785 -1.12565,-2.26612 0,-1.4663 1.08122,-2.3846 1.09603,-0.9331 2.93261,-0.9331 2.54753,0 4.26563,1.37744 l -1.43669,2.02913 q -1.45149,-1.02197 -2.90299,-1.02197 -1.03679,0 -1.03679,0.69613 0,0.35546 0.35547,0.56282 0.37028,0.20736 1.43669,0.44434 1.95508,0.42952 2.82894,1.08121 1.03678,0.785 1.03678,2.17725 0,1.56999 -1.15527,2.48828 -1.12565,0.88867 -3.0363,0.88867 z"
         style="fill:#9e9996;fill-opacity:1;stroke-width:0.37028"
         id="path926" />
    </g>
    <path
       style="fill:#288067;fill-opacity:1;stroke:none;stroke-width:0.167152px;stroke-linecap:butt;stroke-linejoin:miter;stroke-opacity:1"
       d="m 7.4622259,1.613966 c -0.8532976,0 -1.5972836,0.46052 -1.8655438,1.3463774 L 4.4320014,6.8063723 C 4.3230023,7.1123392 4.5454222,6.9752793 4.6430629,6.9171765 5.3438013,6.5002098 6.0554849,6.336755 6.8064493,6.336755 H 18.003291 c 1.440067,0 2.249412,-0.7676175 2.564406,-1.8045788 L 21.454155,1.613966 Z"
       id="path855" />
    <path
       style="fill:#288067;fill-opacity:1;stroke:none;stroke-width:0.167152px;stroke-linecap:butt;stroke-linejoin:miter;stroke-opacity:1"
       d="m 5.7514786,7.6652411 c -0.8532979,0 -1.5972839,0.46052 -1.8655441,1.3463774 L 2.7212539,12.857647 C 2.6122548,13.163614 2.8346746,13.026554 2.9323154,12.968451 3.6330538,12.551485 4.3447373,12.38803 5.0957018,12.38803 H 15.722682 c 1.440067,0 2.249406,-0.767617 2.564407,-1.804579 l 0.886457,-2.9182099 z"
       id="path855-2" />
    <path
       style="fill:#288067;fill-opacity:1;stroke:none;stroke-width:0.167152px;stroke-linecap:butt;stroke-linejoin:miter;stroke-opacity:1"
       d="m 7.1746623,18.361081 c 1.4400664,0 2.2494116,-0.767618 2.5644061,-1.804579 l 0.8864576,-2.91821 -6.3936939,6e-6 c -0.8532979,0 -1.5972826,0.460514 -1.8655441,1.346371 l -1.0201786,3.36885 z"
       id="path855-5" />
  </g>
</svg>
