<?xml version="1.0" encoding="UTF-8" standalone="no"?>
<!-- Created with Inkscape (http://www.inkscape.org/) -->

<svg
   xmlns:dc="http://purl.org/dc/elements/1.1/"
   xmlns:cc="http://creativecommons.org/ns#"
   xmlns:rdf="http://www.w3.org/1999/02/22-rdf-syntax-ns#"
   xmlns:svg="http://www.w3.org/2000/svg"
   xmlns="http://www.w3.org/2000/svg"
   xmlns:sodipodi="http://sodipodi.sourceforge.net/DTD/sodipodi-0.dtd"
   xmlns:inkscape="http://www.inkscape.org/namespaces/inkscape"
   width="106.45653"
   height="33.74609"
   viewBox="0 0 28.166623 8.9286534"
   version="1.1"
   id="svg18182"
   inkscape:version="0.92.0 r15299"
   sodipodi:docname="jazeera.svg">
  <defs
     id="defs18176">
    <clipPath
       id="clipPath16977"
       clipPathUnits="userSpaceOnUse">
      <path
         inkscape:connector-curvature="0"
         id="path16975"
         d="M 0,0 H 566.929 V 765.354 H 0 Z" />
    </clipPath>
    <clipPath
       id="clipPath16961"
       clipPathUnits="userSpaceOnUse">
      <path
         inkscape:connector-curvature="0"
         id="path16959"
         d="M 0,0 H 566.929 V 765.354 H 0 Z" />
    </clipPath>
    <clipPath
       id="clipPath16927"
       clipPathUnits="userSpaceOnUse">
      <path
         inkscape:connector-curvature="0"
         id="path16925"
         d="M 0,0 H 566.929 V 765.354 H 0 Z" />
    </clipPath>
  </defs>
  <sodipodi:namedview
     id="base"
     pagecolor="#ffffff"
     bordercolor="#666666"
     borderopacity="1.0"
     inkscape:pageopacity="0.0"
     inkscape:pageshadow="2"
     inkscape:zoom="3.7689076"
     inkscape:cx="106.96768"
     inkscape:cy="-17.528711"
     inkscape:document-units="mm"
     inkscape:current-layer="layer1"
     showgrid="false"
     fit-margin-top="0"
     fit-margin-left="0"
     fit-margin-right="0"
     fit-margin-bottom="0"
     units="px"
     inkscape:window-width="1280"
     inkscape:window-height="744"
     inkscape:window-x="-4"
     inkscape:window-y="-4"
     inkscape:window-maximized="1" />
  <metadata
     id="metadata18179">
    <rdf:RDF>
      <cc:Work
         rdf:about="">
        <dc:format>image/svg+xml</dc:format>
        <dc:type
           rdf:resource="http://purl.org/dc/dcmitype/StillImage" />
        <dc:title></dc:title>
      </cc:Work>
    </rdf:RDF>
  </metadata>
  <g
     inkscape:label="Layer 1"
     inkscape:groupmode="layer"
     id="layer1"
     transform="translate(-63.912075,-208.4928)">
    <g
       id="g18421"
       transform="translate(0.13229098,-0.13228855)">
      <path
         d="m 66.64328,211.81237 h -1.300692 v 3.48297 c 0,0.36654 -0.0695,0.62795 -0.208139,0.78352 -0.138994,0.15558 -0.367241,0.23354 -0.683683,0.23354 -0.03457,0 -0.06809,-0.003 -0.101953,-0.004 l -0.436738,1.06045 c 0.192616,0.0349 0.405694,0.0526 0.638527,0.0526 0.411339,0 0.75177,-0.0543 1.021645,-0.16298 0.269169,-0.10795 0.483305,-0.25541 0.641702,-0.44168 0.158398,-0.18591 0.269523,-0.40428 0.333375,-0.6544 0.06385,-0.25012 0.09596,-0.51682 0.09596,-0.8001 z"
         style="fill:#38a5e3;fill-opacity:1;fill-rule:nonzero;stroke:none;stroke-width:0.35277778"
         id="path16887"
         inkscape:connector-curvature="0" />
      <path
         d="m 87.857307,212.80107 c -0.144639,0 -0.287514,0.007 -0.428978,0.0208 -0.142169,0.0138 -0.27693,0.0307 -0.404636,0.0501 -0.06703,0.0102 -0.131586,0.0212 -0.193322,0.0328 v 10e-4 c -0.0381,0.007 -0.07585,0.0141 -0.113595,0.0219 -0.09454,0.0194 -0.176741,0.043 -0.243416,0.0705 v 1.02553 c 0.103364,-0.0254 0.339019,-0.13512 0.942975,-0.13512 0.04551,0 0.09278,7.1e-4 0.142522,0.002 0.07761,0.002 0.170744,0.007 0.279047,0.0208 0.108656,0.0141 0.1905,0.0293 0.246239,0.0462 l 0.02505,0.007 c 0.116417,0.0321 0.207434,0.0808 0.273403,0.14675 0.127706,0.12806 0.191911,0.21273 0.191911,0.42404 v 0.10372 c -0.268464,-0.0176 -0.593372,-0.0374 -0.733778,-0.0374 -0.23883,0 -0.469547,0.0236 -0.69215,0.0709 -0.22225,0.0469 -0.419452,0.12383 -0.591608,0.22931 -0.172155,0.10548 -0.309739,0.2473 -0.41275,0.4251 -0.102658,0.1778 -0.154164,0.39475 -0.154164,0.65017 0,0.2667 0.04445,0.49177 0.13335,0.67521 0.0889,0.18345 0.216959,0.33232 0.38347,0.44591 0.166511,0.11395 0.365477,0.19615 0.596194,0.24624 0.230364,0.0501 0.487539,0.0748 0.771172,0.0748 0.449792,0 0.833614,-0.0265 1.150409,-0.079 0.316441,-0.0529 0.564091,-0.0988 0.741891,-0.13723 v -2.6095 c 0,-0.27199 -0.03069,-0.51964 -0.09172,-0.74154 -0.06103,-0.2226 -0.165453,-0.41134 -0.312914,-0.56691 -0.147108,-0.15593 -0.3429,-0.27517 -0.587375,-0.35878 -0.244828,-0.0832 -0.550333,-0.12488 -0.917222,-0.12488 m 0.100189,3.65936 c -0.228247,0 -0.407458,-0.0377 -0.537633,-0.11289 -0.130528,-0.0748 -0.196145,-0.20955 -0.196145,-0.40428 0,-0.0998 0.02222,-0.18309 0.06703,-0.25012 0.0441,-0.0663 0.10548,-0.11959 0.183092,-0.15804 0.04621,-0.0229 0.247297,-0.06 0.514702,-0.06 0.175331,0 0.378884,0.0159 0.585964,0.0621 v 0.88971 c -0.06668,0.0113 -0.155928,0.0198 -0.267053,0.025 -0.111125,0.006 -0.227894,0.008 -0.349955,0.008"
         style="fill:#5eb9e8;fill-opacity:1;fill-rule:nonzero;stroke:none;stroke-width:0.35277778"
         id="path16891"
         inkscape:connector-curvature="0" />
      <path
         d="m 81.409094,209.71634 c -0.146756,-0.01 -0.226131,-0.0222 -0.302683,-0.0222 -0.130881,0 -0.255411,0.005 -0.376767,0.0303 -0.121708,0.0258 -0.229658,0.0677 -0.32385,0.12559 -0.09419,0.0575 -0.169333,0.13512 -0.225778,0.23248 -0.05609,0.0974 -0.08431,0.2159 -0.08431,0.3556 0,0.14605 0.02434,0.26917 0.07303,0.36936 0.04868,0.10054 0.118534,0.18168 0.20955,0.24412 0.09137,0.0621 0.200025,0.1069 0.32632,0.13441 0.125941,0.0275 0.246591,0.0413 0.401814,0.0413 0.245886,0 0.300919,-0.0148 0.474133,-0.0438 0.173214,-0.0286 0.308328,-0.0536 0.405694,-0.0748 v -1.3155 z m -0.335139,0.98637 c -0.12453,0 -0.222603,-0.0205 -0.293864,-0.0617 -0.07161,-0.0409 -0.107244,-0.11465 -0.107244,-0.22119 0,-0.0547 0.01199,-0.10019 0.03634,-0.13653 0.02434,-0.0367 0.05786,-0.0656 0.100542,-0.0868 0.02505,-0.0123 0.135113,-0.0328 0.281163,-0.0328 0.09596,0 0.207434,0.009 0.320675,0.0342 v 0.48648 c -0.03634,0.006 -0.08537,0.0106 -0.14605,0.0138 -0.06068,0.003 -0.12453,0.005 -0.191558,0.005"
         style="fill:#5eb9e8;fill-opacity:1;fill-rule:nonzero;stroke:none;stroke-width:0.35277778"
         id="path16895"
         inkscape:connector-curvature="0" />
      <path
         d="m 74.46611,212.91936 h -3.484739 v 1.03364 h 1.867253 c -0.149931,0.1778 -0.313972,0.37677 -0.49142,0.59619 -0.178505,0.21943 -0.357363,0.44627 -0.537986,0.6791 -0.180622,0.23389 -0.35313,0.46602 -0.516819,0.69638 -0.164042,0.23072 -0.304447,0.44591 -0.420864,0.64594 v 0.73378 h 3.626203 v -1.03364 h -2.121959 c 0.161573,-0.23354 0.341137,-0.47519 0.539045,-0.72531 0.197555,-0.25012 0.394053,-0.48895 0.589139,-0.7172 0.194733,-0.22754 0.377119,-0.43603 0.547158,-0.62512 0.169686,-0.18874 0.304447,-0.33867 0.404989,-0.45015 z"
         style="fill:#1f5596;fill-opacity:1;fill-rule:nonzero;stroke:none;stroke-width:0.35277778"
         id="path16899"
         inkscape:connector-curvature="0" />
      <path
         d="m 76.671756,212.80273 c -0.2667,0 -0.526344,0.0497 -0.779286,0.14993 -0.253295,0.0998 -0.476603,0.2473 -0.671336,0.44168 -0.194381,0.19473 -0.351367,0.4378 -0.470959,0.72954 -0.119238,0.2921 -0.179211,0.63218 -0.179211,1.02129 0,0.32244 0.04586,0.62266 0.137584,0.90065 0.09172,0.27763 0.233539,0.51823 0.425097,0.72072 0.191911,0.2032 0.433564,0.36266 0.725311,0.47943 0.291747,0.11677 0.635,0.17497 1.029758,0.17497 0.155223,0 0.31115,-0.008 0.466725,-0.0247 0.155575,-0.0169 0.301273,-0.0374 0.437445,-0.0624 0.136525,-0.0254 0.26035,-0.0547 0.371475,-0.0878 0.110772,-0.0332 0.33655,-0.1069 0.500239,-0.20532 v -1.05198 c -0.43427,0.17003 -0.648406,0.23318 -0.938036,0.30268 -0.217664,0.0522 -0.443442,0.0624 -0.671337,0.0624 -0.3556,0 -0.63888,-0.0748 -0.850194,-0.22507 -0.211314,-0.14993 -0.330553,-0.35278 -0.358422,-0.60819 h 2.817989 c 0.0053,-0.067 0.01094,-0.14323 0.01623,-0.22931 0.0056,-0.0864 0.0085,-0.16545 0.0085,-0.23777 0,-0.73907 -0.180622,-1.29893 -0.541867,-1.67957 -0.361244,-0.38065 -0.853369,-0.57115 -1.475669,-0.57115 m -0.825147,1.86725 c 0.01658,-0.10548 0.04269,-0.2099 0.07902,-0.31256 0.03634,-0.10301 0.08749,-0.19297 0.154517,-0.27093 0.06632,-0.0776 0.14993,-0.14041 0.250119,-0.18768 0.09984,-0.0469 0.219075,-0.0706 0.358422,-0.0706 0.144286,0 0.265289,0.0247 0.362656,0.0748 0.09701,0.0501 0.1778,0.11395 0.2413,0.19156 0.06421,0.0783 0.111478,0.16687 0.142169,0.2667 0.03034,0.10019 0.04833,0.2032 0.05397,0.30868 z"
         style="fill:#273976;fill-opacity:1;fill-rule:nonzero;stroke:none;stroke-width:0.35277778"
         id="path16903"
         inkscape:connector-curvature="0" />
      <path
         d="m 81.057939,212.80273 c -0.2667,0 -0.526697,0.0497 -0.779639,0.14993 -0.252942,0.0998 -0.476603,0.2473 -0.670983,0.44168 -0.194734,0.19473 -0.351367,0.4378 -0.470959,0.72954 -0.119591,0.2921 -0.179563,0.63218 -0.179563,1.02129 0,0.32244 0.04586,0.62266 0.137936,0.90065 0.09172,0.27763 0.233186,0.51823 0.424744,0.72072 0.191911,0.2032 0.433564,0.36266 0.725311,0.47943 0.2921,0.11677 0.635353,0.17497 1.029759,0.17497 0.155575,0 0.31115,-0.008 0.467077,-0.0247 0.155575,-0.0169 0.301273,-0.0374 0.437445,-0.0624 0.136172,-0.0254 0.259997,-0.0547 0.371122,-0.0878 0.110772,-0.0332 0.336903,-0.1069 0.500239,-0.20532 v -1.05198 c -0.433917,0.17003 -0.648406,0.23318 -0.938036,0.30268 -0.217311,0.0522 -0.443442,0.0624 -0.670984,0.0624 -0.355952,0 -0.639233,-0.0748 -0.850547,-0.22507 -0.210961,-0.14993 -0.330553,-0.35278 -0.358422,-0.60819 h 2.817989 c 0.0053,-0.067 0.01094,-0.14323 0.01623,-0.22931 0.0056,-0.0864 0.0085,-0.16545 0.0085,-0.23777 0,-0.73907 -0.180622,-1.29893 -0.541866,-1.67957 -0.361245,-0.38065 -0.853017,-0.57115 -1.475317,-0.57115 m -0.8255,1.86725 c 0.01693,-0.10548 0.04304,-0.2099 0.07937,-0.31256 0.03598,-0.10301 0.08749,-0.19297 0.154164,-0.27093 0.06667,-0.0776 0.14993,-0.14041 0.250119,-0.18768 0.100189,-0.0469 0.219428,-0.0706 0.358423,-0.0706 0.144286,0 0.265288,0.0247 0.362655,0.0748 0.09701,0.0501 0.1778,0.11395 0.242006,0.19156 0.0635,0.0783 0.110772,0.16687 0.141464,0.2667 0.03034,0.10019 0.04833,0.2032 0.05397,0.30868 z"
         style="fill:#0d89cb;fill-opacity:1;fill-rule:nonzero;stroke:none;stroke-width:0.35277778"
         id="path16907"
         inkscape:connector-curvature="0" />
      <path
         d="m 85.150197,212.82766 c -0.372181,0 -0.709789,0.0349 -1.012825,0.10407 -0.303036,0.0695 -0.565503,0.14323 -0.788106,0.22119 v 4.15114 h 1.242484 v -3.35104 c 0.05539,-0.0166 0.13723,-0.0318 0.245886,-0.0459 0.108303,-0.0138 0.201436,-0.0201 0.279047,-0.0208 0.01164,0 0.02328,0 0.03493,0 0.490361,0 0.940153,0.10618 1.049161,0.13335 v -1.02553 c -0.06703,-0.0275 -0.147461,-0.0512 -0.242005,-0.0705 -0.09454,-0.0198 -0.188736,-0.0363 -0.283281,-0.0501 -0.09454,-0.0138 -0.189089,-0.0251 -0.283633,-0.0335 -0.09455,-0.008 -0.174978,-0.0123 -0.241653,-0.0123"
         style="fill:#429bdb;fill-opacity:1;fill-rule:nonzero;stroke:none;stroke-width:0.35277778"
         id="path16911"
         inkscape:connector-curvature="0" />
      <path
         d="m 68.705469,212.80107 c -0.144639,0 -0.287514,0.007 -0.428978,0.0208 -0.142169,0.0138 -0.27693,0.0307 -0.404636,0.0501 -0.06703,0.0102 -0.131586,0.0212 -0.193322,0.0328 v 10e-4 c -0.0381,0.007 -0.07585,0.0138 -0.113595,0.0219 -0.09454,0.0194 -0.176741,0.043 -0.243416,0.0705 v 1.02553 c 0.103364,-0.0254 0.339019,-0.13512 0.942975,-0.13512 0.04551,0 0.09278,3.6e-4 0.142522,0.002 0.07761,0.002 0.170744,0.007 0.279047,0.0208 0.108656,0.0141 0.1905,0.0293 0.245886,0.0462 l 0.0254,0.007 c 0.116064,0.0321 0.207434,0.0808 0.273403,0.14675 0.127706,0.12806 0.191558,0.21273 0.191558,0.42404 v 0.10372 c -0.268111,-0.0176 -0.593019,-0.0374 -0.733425,-0.0374 -0.23883,0 -0.469547,0.0236 -0.69215,0.0709 -0.22225,0.0469 -0.419452,0.12383 -0.591961,0.22931 -0.171802,0.10548 -0.309739,0.2473 -0.412397,0.4251 -0.102658,0.1778 -0.154164,0.39475 -0.154164,0.65017 0,0.2667 0.04445,0.49177 0.13335,0.67521 0.0889,0.18345 0.216606,0.33197 0.38347,0.44591 0.166864,0.11395 0.365477,0.19615 0.596194,0.24624 0.230364,0.0501 0.487539,0.0748 0.771172,0.0748 0.449792,0 0.833614,-0.0265 1.150409,-0.079 0.316441,-0.0529 0.564091,-0.0988 0.741891,-0.13758 v -2.60915 c 0,-0.27199 -0.03069,-0.51964 -0.09172,-0.74154 -0.06138,-0.2226 -0.165453,-0.41134 -0.312561,-0.56726 -0.147461,-0.15558 -0.343253,-0.27482 -0.587728,-0.35843 -0.244828,-0.0832 -0.550333,-0.12488 -0.917222,-0.12488 m 0.100189,3.65901 c -0.228247,0 -0.407458,-0.0374 -0.537633,-0.11254 -0.130528,-0.0748 -0.196145,-0.20955 -0.196145,-0.40428 0,-0.0998 0.02223,-0.18344 0.06703,-0.25012 0.04445,-0.0663 0.10548,-0.11959 0.183092,-0.15804 0.04586,-0.0229 0.247297,-0.06 0.514702,-0.06 0.175331,0 0.378884,0.0159 0.585611,0.0621 v 0.88971 c -0.06632,0.0113 -0.155575,0.0194 -0.266347,0.025 -0.111478,0.006 -0.228247,0.008 -0.350308,0.008"
         style="fill:#0d89cb;fill-opacity:1;fill-rule:nonzero;stroke:none;stroke-width:0.35277778"
         id="path16915"
         inkscape:connector-curvature="0" />
      <path
         d="m 90.091502,216.43607 0.861131,0.86113 0.861483,-0.86113 -0.861483,-0.86113 z"
         style="fill:#0d89cb;fill-opacity:1;fill-rule:nonzero;stroke:none;stroke-width:0.35277778"
         id="path16919"
         inkscape:connector-curvature="0" />
      <path
         d="m 86.699792,211.57188 c -0.151694,0 -0.276578,0.12488 -0.276578,0.27658 0,0.15169 0.124884,0.27658 0.276578,0.27658 0.151694,0 0.276578,-0.12489 0.276578,-0.27658 0,-0.1517 -0.124884,-0.27658 -0.276578,-0.27658"
         style="fill:#1f5596;fill-opacity:1;fill-rule:nonzero;stroke:none;stroke-width:0.35277778"
         id="path16931"
         inkscape:connector-curvature="0" />
      <path
         d="m 81.608468,209.42575 c 0.151694,0 0.276578,-0.12488 0.276578,-0.27658 0,-0.15169 -0.124884,-0.27658 -0.276578,-0.27658 -0.151694,0 -0.276578,0.12489 -0.276578,0.27658 0,0.1517 0.124884,0.27658 0.276578,0.27658"
         style="fill:#5eb9e8;fill-opacity:1;fill-rule:nonzero;stroke:none;stroke-width:0.35277778"
         id="path16935"
         inkscape:connector-curvature="0" />
      <path
         d="m 81.014285,209.42575 c 0.151694,0 0.276578,-0.12488 0.276578,-0.27658 0,-0.15169 -0.124884,-0.27658 -0.276578,-0.27658 -0.151694,0 -0.276578,0.12489 -0.276578,0.27658 0,0.1517 0.124884,0.27658 0.276578,0.27658"
         style="fill:#5eb9e8;fill-opacity:1;fill-rule:nonzero;stroke:none;stroke-width:0.35277778"
         id="path16939"
         inkscape:connector-curvature="0" />
      <path
         d="m 83.461434,211.57181 c -0.151694,0 -0.276578,0.12488 -0.276578,0.27658 0,0.15169 0.124884,0.27658 0.276578,0.27658 0.151694,0 0.276578,-0.12489 0.276578,-0.27658 0,-0.1517 -0.124884,-0.27658 -0.276578,-0.27658"
         style="fill:#3c7fca;fill-opacity:1;fill-rule:nonzero;stroke:none;stroke-width:0.35277778"
         id="path16943"
         inkscape:connector-curvature="0" />
      <path
         d="m 84.055582,211.57181 c -0.151694,0 -0.276578,0.12488 -0.276578,0.27658 0,0.15169 0.124884,0.27658 0.276578,0.27658 0.151694,0 0.276578,-0.12489 0.276578,-0.27658 0,-0.1517 -0.124884,-0.27658 -0.276578,-0.27658"
         style="fill:#3c7fca;fill-opacity:1;fill-rule:nonzero;stroke:none;stroke-width:0.35277778"
         id="path16947"
         inkscape:connector-curvature="0" />
      <path
         d="m 88.709461,208.75738 h -0.576792 v 1.30704 0.35419 c 0,0.28822 -0.104069,0.45191 -0.395816,0.45191 h -0.006 v -0.41945 c 0,-0.53517 -0.276577,-0.79693 -0.84455,-0.79693 h -0.136877 c -0.19932,0 -0.425098,0.0148 -0.615597,0.0892 v 0.45509 c 0.04762,-0.012 0.151694,-0.0596 0.419452,-0.0596 h 0.19932 c 0.178152,0 0.451908,0.0476 0.451908,0.28539 v 0.44627 c 0,-0.003 -1.094669,0 -1.094669,0 h -0.08326 c -0.09701,0 -0.191205,-0.009 -0.288572,-0.0176 l -0.0035,0.46214 c 0.108656,0.009 0.219428,0.0134 0.333728,0.0134 h 0.04163 0.02999 1.284816 0.306211 0.04762 c 0.597959,0 0.930981,-0.3122 0.930981,-0.91298 v -0.35102 z"
         style="fill:#1f5596;fill-opacity:1;fill-rule:nonzero;stroke:none;stroke-width:0.35277778"
         id="path16951"
         inkscape:connector-curvature="0" />
      <path
         inkscape:connector-curvature="0"
         id="path16953"
         style="fill:#56bbe9;fill-opacity:1;fill-rule:nonzero;stroke:none;stroke-width:0.35277778"
         d="m 89.173858,211.32854 h 0.57679 v -2.57104 h -0.57679 z" />
      <path
         d="M 83.458329,211.32839 H 83.08121 c -0.04163,0.52493 -0.370417,0.79692 -0.928159,0.79692 h -0.07126 v -0.49036 h 0.02963 c 0.291395,0 0.395464,-0.16369 0.395464,-0.45226 v -0.30938 -0.0624 -0.0744 -0.11889 -0.93662 h 0.575028 v 1.18956 h 0.349603 0.0695 0.08079 c 0.291747,0 0.395817,-0.16333 0.395817,-0.4519 v -0.35419 -0.38559 h 0.576792 v 0.38559 0.35101 c 0,0.60078 -0.333023,0.91299 -0.930981,0.91299 z"
         style="fill:#0d89cb;fill-opacity:1;fill-rule:nonzero;stroke:none;stroke-width:0.35277778"
         id="path16965"
         inkscape:connector-curvature="0" />
      <path
         d="m 79.764444,210.89705 -0.404989,0.40499 -0.404989,-0.40499 0.404989,-0.40499 z"
         style="fill:#0d89cb;fill-opacity:1;fill-rule:nonzero;stroke:none;stroke-width:0.35277778"
         id="path16969"
         inkscape:connector-curvature="0" />
      <path
         d="m 85.429687,209.42575 c 0.151694,0 0.276578,-0.12488 0.276578,-0.27658 0,-0.15169 -0.124884,-0.27658 -0.276578,-0.27658 -0.151694,0 -0.276578,0.12489 -0.276578,0.27658 0,0.1517 0.124884,0.27658 0.276578,0.27658"
         style="fill:#273976;fill-opacity:1;fill-rule:nonzero;stroke:none;stroke-width:0.35277778"
         id="path16981"
         inkscape:connector-curvature="0" />
      <path
         d="m 85.166232,209.68078 v 0.93698 0.11888 0.0744 0.0624 0.30903 c 0,0.28893 -0.104069,0.45227 -0.395464,0.45227 h -0.02999 v 0.49071 h 0.07161 c 0.56268,0 0.892528,-0.27693 0.929217,-0.81068 v -1.63407 z"
         style="fill:#273976;fill-opacity:1;fill-rule:nonzero;stroke:none;stroke-width:0.35277778"
         id="path16985"
         inkscape:connector-curvature="0" />
    </g>
  </g>
</svg>
