<svg xmlns="http://www.w3.org/2000/svg" width="672" height="80" viewBox="0 0 168 20"><path fill="#002f87" d="M52.91756 1.38915s-8.324.62-12.813.207c0 0-.532-.147-.679.472 0 0-.295.473.176.798.474.324 1.832 1.121 1.832 4.074v5.698s.265 3.13-1.89 4.31c0 0-.442.148-.207.768 0 0 .031.562.65.473.62-.09 4.105-.355 8.887-.03 0 0 .414.03.53-.236.118-.265.149-.294.149-.294s.413-.415-.207-.828-1.653-1.033-1.742-3.662c-.09-2.627 0-2.685 0-2.685h.385s1.328-.118 2.213 1.889c0 0 1.714 4.132 1.978 4.635.266.502.767 1.564 2.628 1.387 1.86-.176 10.539-.796 19.751.031 0 0 1.004.146 1.387-.827 0 0 1.595-4.283 1.978-4.961 0 0 3.367-.089 5.197-.059 0 0 .679 1.151.679 2.538 0 1.388-1.21 1.714-1.21 1.714s-.503.206-.265.828c0 0 .087.589.678.53.59-.06 5.876-.561 13.846-.06 0 0 .533.208.709-.501 0 0 .325-.561-.237-.826 0 0-2.097-.472-2.097-3.809 0-3.336.032-5.697.032-5.697s1.593 2.272 3.483 5.668c1.89 3.394 2.893 4.842 2.893 4.842s.945 1.83 2.804.856c1.861-.974 3.869-2.097 5.021-2.894 0 0 .442-.206.205-.767l-.176-.355s-.029-.207-.651-.265c0 0-1.388.324-1.416-1.655-.03-1.977-.119-4.782 0-7.645 0 0 .059-1.772 1.682-2.274 0 0 .59-.059.324-.768l-.177-.354s0-.295-.413-.236c-.412.059-2.716.266-5.167.059 0 0-.53 0-.59.59 0 0-.148.532.265.709.414.177 1.863.709 1.95 2.983.088 2.272.118 5.431.118 5.431s-3.366-4.96-5.52-8.768c0 0-.356-1.034-1.625-.945-1.269.089-4.309.236-6.524.03 0 0-.621-.089-.709.621 0 0-.177.619.355.885 0 0 1.771 1.121 1.771 1.504 0 .385-.031 8.238-.031 8.238s.15 3.218-.708 2.805c0 0-.502.323-1.711-1.889-1.211-2.215-2.775-5.373-5.315-11.514 0 0-.531-1.713-1.623-1.713 0 0-.65.031-1.329.412-.678.386-2.835 1.596-5.077 2.244 0 0-.593.178-.414.769 0 0-.089.443.561.679.649.236 1.21.502 1.386.826 0 0-.678 2.185-1.919 4.429-1.239 2.243-2.833 5.964-7.409 5.964h-1.802s-.471.059-.471-.592v-4.753h1.179s1.921-.412 2.835 2.068c0 0 .178.767.827.472 0 0 .737-.089.679-.827-.06-.737-.118-2.745.031-4.517 0 0 .058-.532-.533-.65 0 0-.472-.236-.826.149-.354.383-1.092 1.299-2.776 1.299h-1.387v-4.43s-.029-.294.176-.323c.207-.031 2.775-.65 4.283.56 1.504 1.21 1.593 1.713 1.917 2.155 0 0 .296.739 1.063.236 0 0 .592-.089.296-1.003-.296-.916-.384-1.241-.885-3.544 0 0-.091-.973-1.094-.884-1.003.087-7.291.825-13.196.352 0 0-.62-.147-.738.504 0 0-.267.443.236.856 0 0 1.741.797 1.741 3.866v5.136s.296 4.076-1.15 4.076c0 0-.621.265-1.682-1.829-1.063-2.098-1.123-2.156-1.123-2.156s-.858-2.747-4.546-2.865c0 0 5.105-.856 4.635-4.693 0 0-.089-2.923-3.927-3.042zm-5.343 7.233v-2.892s.029-2.157 1.742-2.157c1.711 0 1.496 2.096 1.51 2.364.015.266-.093 2.685-3.252 2.685m31.236 1.948s1.092-2.568 1.564-3.304c0 0 1.329 1.829 1.802 3.335 0 0-1.507.236-3.366-.031"/><path fill="#002f87" d="M135.90836 11.84195s.118 3.868-1.329 3.601c0 0-.501.325-1.712-1.889-1.21-2.216-2.776-5.373-5.315-11.515 0 0-.531-1.713-1.622-1.713 0 0-.649.031-1.329.414-.68.384-2.833 1.594-5.08 2.244 0 0-.588.178-.412.767 0 0-.089.443.561.679.649.237 1.211.502 1.388.827 0 0-.679 2.184-1.92 4.428-1.24 2.244-2.331 5.521-5.255 6.999 0 0-.565.118-.383.796.207.768.59.561.59.561 3.396-.354 4.428-.06 5.195 0 .769.058.65-.561.65-.561.207-.384-.058-.62-.058-.62l-.324-.413s-1.271-.324.53-3.956c0 0 3.366-.088 5.198-.059 0 0 .678 1.15.678 2.539 0 1.388-1.21 1.713-1.21 1.713s-.502.205-.266.827c0 0 .088.588.678.53.591-.06 10.393-.472 18.366.029 0 0 .56.029.709-.472 0 0 .322-.62-.239-.975 0 0-1.564-.708-1.682-3.217-.119-2.509-.089-7.264-.089-7.264s-.118-2.656 1.566-3.483c0 0 .444-.205.205-.798 0 0-.118-.559-.649-.501-.53.059-6.109.354-8.739.029 0 0-.591-.029-.708.472 0 0-.295.473.207.856.501.385 1.8 1.27 1.8 4.017Zm-13.374-4.784c1.595 2.274 1.801 3.335 1.801 3.335-1.269.207-3.365-.028-3.365-.028.618-1.652 1.564-3.307 1.564-3.307"/><path fill="#002f87" d="M159.40876 1.15405s-6.495.767-12.518.178c0 0-.767-.209-.856.589 0 0-.059.532.267.739.324.206 1.653 1.003 1.741 3.779.089 2.775.149 1.977.089 5.756 0 0 .235 3.632-1.83 4.518 0 0-.532.118-.236.886 0 0 .176.59.678.383 0 0 4.841-.325 9.033.03 0 0 .473.177.621-.444 0 0 .384-.413-.206-.855-.591-.444-1.654-1.211-1.772-3.072-.118-1.86-.089-3.335-.089-3.335h.414s1.388-.179 2.333 2.008c.945 2.185 1.594 3.778 1.594 3.778s.619 1.743 1.622 2.303c0 0 .414.383 1.95.207 0 0 2.508-.148 4.989-1.299 0 0 .562-.118.385-.769 0 0 .118-.501-.592-.649-.707-.147-1.24-.826-1.74-1.829-.504-1.005-1.271-2.481-1.271-2.481s-1.034-2.569-4.399-2.597c0 0 4.636-.798 4.636-4.282s-4.134-3.542-4.134-3.542Zm-5.078 7.351v-2.894s.06-2.153 1.684-2.153c1.623 0 1.651 1.826 1.566 2.42-.084.595-.237 2.627-3.25 2.627"/><path fill="#fff" d="M39.21346 10.00135c0 5.404-4.383 9.785-9.786 9.785-5.406 0-9.786-4.381-9.786-9.785 0-5.405 4.38-9.786 9.786-9.786 5.403 0 9.786 4.381 9.786 9.786"/><path fill="#e1251b" d="M33.63106 4.10245c2.981.919 5.147 3.694 5.147 6.976 0 .479-.046.947-.133 1.399l-.011.063c-.228 1.287-.75 2.474-1.495 3.486l-.014.016c1.309-1.665 2.089-3.765 2.089-6.045 0-5.408-4.384-9.792-9.792-9.792-2.463 0-4.713.911-6.435 2.412l-.021.02c-1.356 1.243-2.205 3.032-2.205 5.015 0 .823.146 1.611.412 2.341l.014.033c.68 1.494 2.184 2.53 3.932 2.53 2.385 0 4.32-1.932 4.32-4.317l-.013-1.858c0-.855.477-1.599 1.178-1.979l.007-.006c.55-.302 1.18-.474 1.85-.474.407 0 .798.062 1.166.18z"/><path fill="#002f87" d="M21.92976 16.29755c1.796 2.138 4.489 3.497 7.501 3.497 2.463 0 4.714-.909 6.435-2.41l.022-.02c1.356-1.243 2.207-3.031 2.207-5.017 0-.821-.147-1.611-.415-2.339l-.013-.034c-.68-1.493-2.186-2.531-3.933-2.531-2.384 0-4.318 1.935-4.318 4.319l.012 1.858c0 .855-.476 1.597-1.178 1.98l-.008.006c-.549.301-1.179.475-1.849.475-.407 0-.798-.064-1.167-.182l-.003-.002c-2.981-.917-5.147-3.694-5.147-6.973 0-.479.046-.947.133-1.399l.011-.065c.228-1.287.751-2.473 1.495-3.486l.014-.014c-1.309 1.664-2.089 3.762-2.089 6.044 0 1.572.371 3.058 1.03 4.375l-.081.06s-.383.294-1.151-.59c-.768-.887-5.285-6.349-5.285-6.349s2.864-3.07 5.669-4.31c0 0 .738-.235.561-.886l-.118-.383s-.029-.413-.679-.325c-.651.088-3.72.325-6.79.03 0 0-.473 0-.651.383 0 0-.294.502 0 .798.296.294 1.36 1.033 1.36 2.035 0 0 .235.739-1.389 1.92-1.624 1.182-2.627 1.95-3.307 2.303l.029-2.775s-.087-2.332 1.595-3.425c0 0 .413-.178.265-.561l-.117-.295s-.089-.472-.591-.413c0 0-2.923.325-8.739.06 0 0-.383-.03-.531.265l-.118.236s-.207.53.118.768c.324.237 1.683 1.033 1.743 3.483 0 0 .147 4.635-.06 6.436-.207 1.802-.354 2.835-1.801 4.104 0 0-.385.295-.207.738l.207.383s.148.296.649.237c.502-.059 4.134-.413 8.739-.059 0 0 .324.118.473-.206l.207-.413s.234-.415-.207-.738c-.444-.327-1.625-1.27-1.654-3.101-.028-1.83-.028-2.982-.028-2.982s.797.325 5.049 6.613c0 0 1.504 2.717 4.693 1.034 0 0 2.331-1.269 3.307-2.096z"/></svg>