<?xml version="1.0" encoding="UTF-8" standalone="no"?>
<svg
   xmlns:dc="http://purl.org/dc/elements/1.1/"
   xmlns:cc="http://creativecommons.org/ns#"
   xmlns:rdf="http://www.w3.org/1999/02/22-rdf-syntax-ns#"
   xmlns:svg="http://www.w3.org/2000/svg"
   xmlns="http://www.w3.org/2000/svg"
   xmlns:sodipodi="http://sodipodi.sourceforge.net/DTD/sodipodi-0.dtd"
   xmlns:inkscape="http://www.inkscape.org/namespaces/inkscape"
   width="100"
   height="11"
   viewBox="0 0 80 8.8"
   version="1.1"
   id="svg2"
   sodipodi:version="0.32"
   inkscape:version="0.92.4 (5da689c313, 2019-01-14)"
   sodipodi:docname="LASER (airline) logo.svg">
  <title
     id="title4296">LASER Airlines logo</title>
  <metadata
     id="metadata59">
    <rdf:RDF>
      <cc:Work
         rdf:about="">
        <dc:format>image/svg+xml</dc:format>
        <dc:type
           rdf:resource="http://purl.org/dc/dcmitype/StillImage" />
        <dc:title>LASER Airlines logo</dc:title>
        <cc:license
           rdf:resource="http://scripts.sil.org/OFL" />
        <dc:date>16 mrz 2020 </dc:date>
        <dc:creator>
          <cc:Agent>
            <dc:title>EEIM</dc:title>
          </cc:Agent>
        </dc:creator>
      </cc:Work>
      <cc:License
         rdf:about="http://scripts.sil.org/OFL">
        <cc:permits
           rdf:resource="http://scripts.sil.org/pub/OFL/Reproduction" />
        <cc:permits
           rdf:resource="http://scripts.sil.org/pub/OFL/Distribution" />
        <cc:permits
           rdf:resource="http://scripts.sil.org/pub/OFL/Embedding" />
        <cc:permits
           rdf:resource="http://scripts.sil.org/pub/OFL/DerivativeWorks" />
        <cc:requires
           rdf:resource="http://scripts.sil.org/pub/OFL/Notice" />
        <cc:requires
           rdf:resource="http://scripts.sil.org/pub/OFL/Attribution" />
        <cc:requires
           rdf:resource="http://scripts.sil.org/pub/OFL/ShareAlike" />
        <cc:requires
           rdf:resource="http://scripts.sil.org/pub/OFL/DerivativeRenaming" />
        <cc:requires
           rdf:resource="http://scripts.sil.org/pub/OFL/BundlingWhenSelling" />
      </cc:License>
    </rdf:RDF>
  </metadata>
  <defs
     id="defs57">
    <pattern
       y="0"
       x="0"
       height="6"
       width="6"
       patternUnits="userSpaceOnUse"
       id="EMFhbasepattern" />
  </defs>
  <sodipodi:namedview
     inkscape:window-height="705"
     inkscape:window-width="1366"
     inkscape:pageshadow="2"
     inkscape:pageopacity="0"
     guidetolerance="1"
     gridtolerance="1"
     objecttolerance="1"
     borderopacity="1.0"
     bordercolor="#666666"
     pagecolor="#ffffff"
     id="base"
     inkscape:zoom="1"
     inkscape:cx="49.431548"
     inkscape:cy="7.6387399"
     inkscape:window-x="-8"
     inkscape:window-y="-8"
     inkscape:current-layer="svg2"
     showgrid="false"
     showguides="false"
     inkscape:showpageshadow="false"
     units="px"
     inkscape:window-maximized="1" />
  <g
     id="#ffffffff"
     transform="translate(0,-1132.2)" />
  <g
     id="#2acbffff-4"
     transform="matrix(0.74035173,0,0,0.75447038,-840.95699,-818.35387)"
     style="fill:#00ff00" />
  <path
     inkscape:connector-curvature="0"
     style="fill:#00af40;fill-opacity:1;fill-rule:nonzero;stroke:none;stroke-width:0.35213655"
     d="m 8.6885727,1.939227 c -0.060095,-3.64e-4 -0.09233,0.0021 -0.09233,0.0021 H 7.8978186 C 7.7703426,1.937227 7.6981941,1.940331 7.6981941,1.940331 L 6.633016,1.941327 H 0.73300638 0.66594494 0.4673524 l 0.15010693,0.03662 0.23676417,0.04953 0.2053004,0.0392 0.268228,0.04901 c 1.2451517,0.221846 2.2613764,0.482812 2.2613764,0.482812 2.1459206,0.627158 3.5063828,1.928991 3.9476098,2.42902 0.4405226,0.49933 1.351459,1.469586 1.351459,1.469586 1.9406269,2.234301 3.9986759,2.087027 3.9986759,2.087027 h 0.698425 c 0.128179,0.0041 0.20014,9.96e-4 0.20014,9.96e-4 l 1.062604,-9.96e-4 5.803545,-0.0056 0.06861,-5.28e-4 0.294022,-5.28e-4 -0.136697,-0.02992 -0.248625,-0.04952 -0.205302,-0.03869 -0.268227,-0.04952 C 18.910562,8.188359 17.895017,7.927032 17.895017,7.927032 15.748744,7.300224 14.388288,5.998559 13.947407,5.498528 13.506187,4.998849 12.594916,4.028944 12.594916,4.028944 10.89718,2.073929 9.1090642,1.941777 8.6885737,1.939336 Z m 10.7637203,0 c -0.06004,-3.64e-4 -0.09233,0.0021 -0.09233,0.0021 h -0.698429 c -0.127822,-0.0041 -0.20014,-9.96e-4 -0.20014,-9.96e-4 l -1.065178,9.96e-4 H 11.49621 11.42915 11.230557 l 0.150102,0.03662 0.237279,0.04953 0.204785,0.0392 0.268227,0.04901 c 1.245158,0.221846 2.261377,0.482812 2.261377,0.482812 2.145921,0.627158 3.506735,1.928991 3.947609,2.42902 0.440875,0.49933 1.351977,1.469586 1.351977,1.469586 1.940274,2.234301 3.998159,2.087027 3.998159,2.087027 h 0.698946 c 0.127822,0.0041 0.200141,9.96e-4 0.200141,9.96e-4 l 1.062081,-9.96e-4 5.804062,-0.0056 0.06861,-5.28e-4 0.293499,-5.28e-4 -0.136174,-0.02992 -0.248632,-0.04952 -0.205295,-0.03869 -0.268227,-0.04952 C 29.673926,8.18829 28.658223,7.926964 28.658223,7.926964 26.511951,7.300176 25.151488,5.998511 24.710614,5.498481 24.269739,4.9988 23.358121,4.028895 23.358121,4.028895 21.660379,2.073881 19.872714,1.941729 19.452291,1.939288 Z"
     id="path8080" />
  <path
     inkscape:connector-curvature="0"
     id="path8084"
     style="fill:#fddb00;fill-opacity:1;fill-rule:nonzero;stroke:none;stroke-width:0.35213655"
     d="m 25.149687,7.330136 0.303194,-3.31e-4 -0.140502,-0.03064 -0.256707,-0.05111 -0.211638,-0.04052 -0.276781,-0.05111 C 23.28266,6.92788 22.234706,6.65885 22.234706,6.65885 20.020467,6.011619 18.616854,4.668575 18.161897,4.153393 17.706932,3.637505 16.766728,2.636389 16.766728,2.636389 14.765184,0.331296 12.641798,0.48307 12.641798,0.48307 h -0.72082 c -0.1317,-0.0041 -0.206356,-9.71e-4 -0.206356,-9.71e-4 l -1.09831,9.71e-4 H 4.5289247 l -0.069375,3.63e-4 H 4.2549601 l 0.155291,0.03764 0.2440306,0.05111 0.2116382,0.04013 0.2767752,0.0507 c 1.2845983,0.228884 2.3329061,0.497924 2.3329061,0.497924 2.2138868,0.646871 3.6171458,1.989916 4.0721108,2.505797 0.454959,0.515531 1.395514,1.516298 1.395514,1.516298 2.001896,2.305442 4.12493,2.153669 4.12493,2.153669 h 0.72082 c 0.132053,0.0041 0.206356,9.71e-4 0.206356,9.71e-4 l 1.096199,-9.71e-4 5.987732,-0.007 z" />
  <path
     inkscape:connector-curvature="0"
     style="fill:#65646a;fill-opacity:1;fill-rule:nonzero;stroke:none;stroke-width:0.35213655"
     d="m 65.361754,1.646238 v 5.625588 h 0.697393 V 1.646238 Z m -22.36205,0.198076 c -1.259593,0 -2.02049,0.697362 -2.02049,1.608343 0,0.776457 0.578592,1.267534 1.465981,1.576361 0.641592,0.229942 0.894953,0.42034 0.894953,0.753105 0,0.348266 -0.293233,0.578755 -0.847499,0.578755 -0.515179,0 -1.014065,-0.166666 -1.339083,-0.333222 l -0.245529,0.998121 c 0.301075,0.166567 0.903172,0.32497 1.513428,0.32497 1.465592,0 2.155117,-0.76032 2.155117,-1.655798 0,-0.75252 -0.444383,-1.243738 -1.387052,-1.592352 -0.689489,-0.261284 -0.989871,-0.412079 -0.989871,-0.752588 0,-0.277486 0.25304,-0.51531 0.776316,-0.51531 0.522572,0 0.902827,0.150614 1.117281,0.253785 L 44.362515,2.113575 C 44.04559,1.970955 43.601856,1.844314 42.999704,1.844314 Z m 8.233083,0.04745 c -0.641592,0 -1.219771,0.04712 -1.607826,0.110903 V 7.271819 H 50.82116 V 5.1719 h 0.364174 c 0.491582,0.0081 0.721389,0.190566 0.864005,0.855754 0.158459,0.657792 0.285092,1.093454 0.372422,1.24417 h 1.235404 C 53.554345,7.065465 53.387855,6.36828 53.221292,5.766125 53.087132,5.2749 52.881146,4.91871 52.508935,4.768004 v -0.02424 c 0.459542,-0.166209 0.942928,-0.633617 0.942928,-1.315354 0,-0.491226 -0.174303,-0.863223 -0.491575,-1.116761 -0.38031,-0.301073 -0.935195,-0.419882 -1.727501,-0.419882 z m 10.001329,0.03198 c -0.253883,0 -0.436384,0.189913 -0.436384,0.435357 0,0.237686 0.174439,0.428133 0.419878,0.428133 0.277486,0 0.451595,-0.190447 0.443613,-0.428133 0,-0.245444 -0.165818,-0.435357 -0.427107,-0.435357 z m 6.346714,0 c -0.253889,0 -0.435356,0.189913 -0.435356,0.435357 0,0.237686 0.173922,0.428133 0.419361,0.428133 0.27714,0 0.451601,-0.190447 0.443613,-0.428133 0,-0.245444 -0.166322,-0.435357 -0.427618,-0.435357 z m -35.761631,0.0078 V 7.27188 h 3.33532 V 6.257714 H 33.030871 V 1.93149 Z m 5.340337,0 -1.632071,5.340336 h 1.251386 l 0.380685,-1.371063 h 1.528901 l 0.412144,1.371063 h 1.299368 L 38.744147,1.931542 Z m 8.233599,0 V 7.27188 h 3.406508 V 6.280981 h -2.19432 V 5.01357 h 1.964775 V 4.030924 H 46.605323 V 2.9219 h 2.083928 V 1.931514 Z m 12.099703,0 -1.814158,5.340336 h 0.712873 l 0.579788,-1.788882 h 1.851292 L 59.41016,7.27188 h 0.736596 L 58.324871,1.931542 Z m 0.38842,0.610222 h 0.01596 c 0.07888,0.308816 0.15849,0.625776 0.277517,0.974392 l 0.480229,1.427804 h -1.541286 l 0.498291,-1.435541 c 0.102819,-0.324669 0.190033,-0.649733 0.269259,-0.966655 z m -6.513322,0.245532 c 0.554613,0.0081 0.886697,0.2531 0.886697,0.744335 0,0.467638 -0.355729,0.769095 -0.957881,0.769095 H 50.82116 V 2.827014 c 0.08733,-0.01588 0.253446,-0.03972 0.546776,-0.03972 z m -13.471805,0.04693 h 0.01602 c 0.07922,0.317273 0.174351,0.713697 0.269775,1.030619 l 0.33271,1.132751 h -1.180722 l 0.317235,-1.132751 c 0.08697,-0.309166 0.166139,-0.713346 0.245015,-1.030619 z M 64.4343,3.349538 c -0.467289,0 -0.886747,0.325456 -1.061057,0.840279 h -0.032 l -0.02318,-0.752588 h -0.610741 c 0.02361,0.35637 0.032,0.744759 0.032,1.196197 v 2.638445 h 0.689143 v -2.04473 c 0,-0.118674 0.01567,-0.229426 0.03145,-0.324453 0.09472,-0.522919 0.444311,-0.894957 0.93519,-0.894957 0.09508,0 0.166667,0.0074 0.237795,0.02322 V 3.373275 c -0.06338,-0.01557 -0.119006,-0.02372 -0.198591,-0.02372 z m 6.56129,0 c -0.633845,0 -1.077737,0.356667 -1.267897,0.721124 h -0.01548 l -0.0397,-0.633433 h -0.617959 c 0.02392,0.316923 0.032,0.641176 0.032,1.037325 v 2.797317 h 0.696878 V 4.966134 c 0,-0.118664 0.01579,-0.237629 0.04747,-0.32497 0.118669,-0.388053 0.475653,-0.712871 0.93519,-0.712871 0.657441,0 0.887219,0.514915 0.887219,1.133267 v 2.210311 h 0.697398 V 4.981609 c 0,-1.315226 -0.824055,-1.632071 -1.355071,-1.632071 z m 4.010029,0 c -1.117331,0 -1.798685,0.911519 -1.798685,2.067943 0,1.156764 0.704981,1.933312 1.885342,1.933312 0.610249,0 1.030198,-0.126352 1.275631,-0.23728 L 76.24927,6.614164 c -0.261284,0.110918 -0.562243,0.198076 -1.061565,0.198076 -0.697235,0 -1.299515,-0.388681 -1.315359,-1.331343 h 2.693638 c 0.0077,-0.07149 0.02373,-0.182349 0.02373,-0.32497 0,-0.704977 -0.332255,-1.80642 -1.584096,-1.80642 z m 3.61335,5.29e-4 c -0.823994,0 -1.323091,0.50702 -1.323091,1.125013 0,0.459544 0.32463,0.839853 1.014112,1.085297 0.515173,0.190153 0.713389,0.372192 0.713389,0.704616 0,0.317273 -0.238288,0.571019 -0.745369,0.571019 -0.348614,0 -0.71269,-0.142649 -0.918683,-0.277513 l -0.174346,0.531299 c 0.269728,0.15846 0.657813,0.261007 1.07755,0.261007 0.910985,0 1.433994,-0.475109 1.433994,-1.148742 0,-0.570112 -0.340831,-0.903456 -1.006372,-1.156996 -0.499328,-0.189804 -0.728856,-0.333016 -0.728856,-0.649939 0,-0.284882 0.229334,-0.522531 0.641689,-0.522531 0.356354,0 0.633846,0.126379 0.784566,0.221804 L 79.561899,3.587346 C 79.347809,3.460928 79.007024,3.350069 78.618969,3.350069 Z m -17.734063,0.08666 v 3.834644 h 0.6974 V 3.436716 Z m 6.347226,0 V 7.271371 H 67.92953 V 3.436716 Z m 7.717776,0.412145 c 0.784214,0 0.974442,0.689059 0.966659,1.132751 h -2.035958 c 0.0553,-0.48313 0.364324,-1.132751 1.069299,-1.132751 z"
     id="path8092" />
</svg>
