<?xml version="1.0" encoding="UTF-8" standalone="no"?>
<svg
   xmlns:dc="http://purl.org/dc/elements/1.1/"
   xmlns:cc="http://creativecommons.org/ns#"
   xmlns:rdf="http://www.w3.org/1999/02/22-rdf-syntax-ns#"
   xmlns:svg="http://www.w3.org/2000/svg"
   xmlns="http://www.w3.org/2000/svg"
   xmlns:sodipodi="http://sodipodi.sourceforge.net/DTD/sodipodi-0.dtd"
   xmlns:inkscape="http://www.inkscape.org/namespaces/inkscape"
   width="250"
   height="47.179623"
   viewBox="0 0 200 37.743697"
   version="1.1"
   id="svg4019"
   inkscape:version="0.91 r"
   sodipodi:docname="Lufthansa_Cargo logo with claim.svg">
  <metadata
     id="metadata11556">
    <rdf:RDF>
      <cc:Work
         rdf:about="">
        <dc:format>image/svg+xml</dc:format>
        <dc:type
           rdf:resource="http://purl.org/dc/dcmitype/StillImage" />
        <dc:title></dc:title>
      </cc:Work>
    </rdf:RDF>
  </metadata>
  <sodipodi:namedview
     pagecolor="#ffffff"
     bordercolor="#666666"
     borderopacity="1"
     objecttolerance="10"
     gridtolerance="10"
     guidetolerance="10"
     inkscape:pageopacity="0"
     inkscape:pageshadow="2"
     inkscape:window-width="1215"
     inkscape:window-height="776"
     id="namedview11554"
     showgrid="false"
     fit-margin-top="1"
     fit-margin-left="1"
     fit-margin-right="1"
     fit-margin-bottom="1"
     inkscape:zoom="3.5751086"
     inkscape:cx="126.7416"
     inkscape:cy="31.068423"
     inkscape:window-x="65"
     inkscape:window-y="24"
     inkscape:window-maximized="1"
     inkscape:current-layer="svg4019"
     units="px" />
  <defs
     id="defs4021">
    <clipPath
       id="clip8">
      <path
         d="m 409,765.60937 13,0 0,13.39063 -13,0 z m 0,0"
         id="path4647"
         inkscape:connector-curvature="0" />
    </clipPath>
    <clipPath
       id="clip9">
      <path
         d="m 512,769 7.19141,0 0,8 L 512,777 Z m 0,0"
         id="path4650"
         inkscape:connector-curvature="0" />
    </clipPath>
    <clipPath
       id="clip10">
      <path
         d="m 459,781 4,0 0,4.68359 -4,0 z m 0,0"
         id="path4653"
         inkscape:connector-curvature="0" />
    </clipPath>
  </defs>
  <g
     id="g15125"
     transform="matrix(0.99199995,0,0,0.99199995,0.79999762,0.80002338)">
    <g
       transform="matrix(1.8150236,0,0,1.8150236,-742.34465,-1389.5991)"
       clip-path="url(#clip8)"
       id="g11490"
       style="clip-rule:nonzero">
      <path
         style="fill:#f8b00a;fill-opacity:1;fill-rule:nonzero;stroke:none"
         d="m 413.94531,771.70703 -0.0742,0.15234 c -0.29297,-0.0625 -0.82812,-0.26562 -1.38281,-0.51953 l -0.0781,0.14063 0.23046,0.125 c 0.8125,0.41797 1.07813,0.50781 1.54688,0.50781 0.9375,0 1.64844,-0.53125 1.97656,-1.46875 0.58203,-0.11719 1.33203,-0.16797 2.21875,-0.16797 0.76172,0 1.42188,0.0391 2.26953,0.14063 l -0.21484,0.26562 c -0.39453,-0.0508 -1.11719,-0.10156 -1.63672,-0.10156 -0.62109,0 -1.01562,0.0156 -1.21484,0.0273 l -0.10547,0.22657 c 0.52344,-0.0234 0.71094,-0.0234 1.11719,-0.0234 0.6875,0 1.23046,0.0234 1.67578,0.0625 l -0.21875,0.27734 c -0.79688,-0.0234 -1.16407,-0.0351 -1.76172,-0.0351 -0.32813,0 -0.57031,0.0117 -0.96094,0.0234 l -0.10156,0.22657 c 0.33984,-0.0234 0.80859,-0.0352 1.30469,-0.0352 0.46875,0 1.02734,0.0117 1.35546,0.0234 l -0.21484,0.28125 c -0.22656,-0.0156 -0.67187,-0.0156 -1.01562,-0.0156 -0.54297,0 -1.23047,0.0274 -1.58204,0.0781 l -0.10156,0.20312 c 0.64453,-0.0625 1.05078,-0.0898 1.76172,-0.0898 0.27734,0 0.45703,0 0.77344,0.0273 l -0.24219,0.28906 c -0.42969,-0.0234 -0.57031,-0.0234 -0.73437,-0.0234 -1.20313,0 -1.99219,0.17578 -2.77735,0.62109 0.72266,0.72266 1.92578,1.21484 3.00391,1.21484 0.0898,0 0.14062,0 0.37109,-0.0117 l -0.52344,0.51953 c -2.86328,-0.7461 -3.37109,-0.94922 -5.99609,-2.50782 -1.03906,-0.59765 -1.88672,-1.0039 -2.57422,-1.20703 l 0.0899,-0.3164 c 0.16406,0.0273 0.51953,0.1289 0.84765,0.24218 l 0.15625,-0.34375 z m -4.32422,0.25391 c 0,3.14453 2.5625,5.70703 5.70703,5.70703 3.16797,0 5.73047,-2.55078 5.73047,-5.69531 0,-3.21875 -2.53515,-5.74219 -5.76953,-5.74219 -3.10547,0 -5.66797,2.58594 -5.66797,5.73047 z m 12.0586,0 c 0,3.51172 -2.82813,6.32812 -6.35157,6.32812 -3.48828,0 -6.32812,-2.82812 -6.32812,-6.3164 0,-3.5625 2.83984,-6.36329 6.44141,-6.36329 3.42187,0 6.23828,2.87891 6.23828,6.35157"
         id="path11492"
         inkscape:connector-curvature="0" />
    </g>
    <path
       style="fill:#f8b00a;fill-opacity:1;fill-rule:nonzero;stroke:none"
       d="m 130.9653,13.896249 c -0.46085,0.141754 -0.62392,0.184352 -0.9926,0.30487 -0.38994,0.06389 -0.82952,0.15591 -1.31872,0.297791 -1.16275,0.297773 -1.74413,0.758607 -1.74413,1.474706 0,0.708985 0.55302,1.120197 1.4747,1.120197 1.75123,0 2.58075,-0.77988 2.58075,-2.410569 z m -6.9056,-2.226235 c 0.0212,-2.4885607 1.9781,-3.9845394 5.26783,-3.9845394 3.43152,0 5.11183,1.4250839 5.11183,4.3248564 l 0,5.636501 c 0,0.942959 0,0.942959 0.29778,1.545602 l -3.36063,0 -0.18433,-0.921687 c -1.33292,1.084767 -2.1128,1.382539 -3.58751,1.382539 -2.4673,0 -4.23269,-1.453434 -4.23269,-3.452792 0,-1.659058 1.07767,-2.828895 3.19755,-3.431538 0.31906,-0.0922 1.38254,-0.319044 3.19756,-0.638089 0.75863,-0.162989 1.07767,-0.418309 1.07767,-0.950056 0,-0.616818 -0.64518,-1.035126 -1.58814,-1.035126 -1.16984,0 -1.88592,0.58137 -1.88592,1.524329 z m -5.04094,-0.0709 c -0.0922,-1.035126 -0.53175,-1.425084 -1.63069,-1.425084 -0.90042,0 -1.45344,0.340317 -1.45344,0.914609 0,0.531747 0.53175,0.857889 1.72994,1.042223 l 1.24075,0.226878 c 2.62327,0.43958 3.84275,1.538504 3.84275,3.452792 0,2.346771 -1.99938,3.842749 -5.13312,3.842749 -3.70804,0 -5.72867,-1.474706 -5.72867,-4.140522 l 3.5237,0 0,0.134675 c 0,0.921687 0.75863,1.495978 1.97809,1.495978 1.0564,0 1.70158,-0.389957 1.70158,-1.013872 0,-0.645186 -0.60264,-1.013854 -2.00645,-1.262004 l -1.14857,-0.184334 c -2.62327,-0.460852 -3.75058,-1.403812 -3.75058,-3.155019 0,-2.3893151 2.00646,-3.8427497 5.29619,-3.8427497 2.29714,0 3.72221,0.6239143 4.45956,1.9568132 0.32615,0.5530195 0.36869,0.7373535 0.46086,1.9568315 z m -15.23627,-3.4527918 0.12052,1.240732 c 0.85079,-1.0776703 1.86466,-1.559795 3.19756,-1.559795 1.53852,0 2.78635,0.6664585 3.43154,1.8150236 0.45375,0.8507922 0.54592,1.3329172 0.54592,3.1550372 l 0,6.395109 -3.60877,0 0,-6.260416 c 0,-1.630672 -0.46086,-2.29713 -1.58815,-2.29713 -1.17693,0 -1.7725,0.779897 -1.7725,2.29713 l 0,6.260416 -3.61585,0 0,-11.0461068 z m -8.025817,5.7499218 c -0.460835,0.141754 -0.602643,0.184352 -0.97131,0.30487 -0.432502,0.113439 -0.822442,0.205606 -1.311645,0.297791 -1.169837,0.297773 -1.744129,0.758607 -1.744129,1.474706 0,0.708985 0.55302,1.120197 1.446356,1.120197 1.751207,0 2.580728,-0.77988 2.580728,-2.410569 z m -6.88433,-2.226235 c 0,-2.5098328 1.956831,-3.9845394 5.225289,-3.9845394 3.43152,0 5.133105,1.4250839 5.133105,4.3248564 l 0,5.636501 c 0,0.971328 0,0.971328 0.297791,1.545602 l -3.339372,0 -0.205605,-0.921687 c -1.148565,1.013854 -2.134069,1.382539 -3.587503,1.382539 -2.438938,0 -4.211418,-1.453434 -4.211418,-3.452792 0,-1.659058 1.07767,-2.828895 3.197564,-3.431538 0.319044,-0.0922 1.382521,-0.297772 3.197545,-0.638089 0.779897,-0.162989 1.084767,-0.418309 1.084767,-0.950056 0,-0.616818 -0.645187,-1.035126 -1.609418,-1.035126 -1.176934,0 -1.864646,0.553019 -1.893015,1.524329 z m -8.515002,-7.8272893 0,5.5443345 c 0.673537,-1.0776703 1.616496,-1.559795 3.020308,-1.559795 1.517251,0 2.736711,0.6381079 3.403169,1.8150236 0.482107,0.8507922 0.55302,1.3116452 0.55302,3.1550372 l 0,6.395109 -3.5946,0 0,-6.260416 c 0,-1.588146 -0.482125,-2.29713 -1.588146,-2.29713 -1.191109,0 -1.793751,0.779897 -1.793751,2.29713 l 0,6.260416 -3.608775,0 0,-15.3497093 z m -6.622005,0.8507924 0,3.4528101 2.041902,0 0,2.4389378 -2.041902,0 0,4.374479 c 0.02124,1.609418 0.113439,1.701585 1.495979,1.701585 l 0.708984,0 0,2.531105 -2.715438,0 c -2.141165,0 -3.105397,-0.992582 -3.105397,-3.247186 l 0,-5.359983 -1.517251,0 0,-2.4389378 1.517251,0 0,-3.4528101 z m -5.551413,1.5881456 -0.595564,0 c -1.332898,0 -1.680312,0.3261416 -1.680312,1.5456015 l 0,0.319063 2.141165,0 0,2.4389378 -2.141165,0 0,8.607169 -3.608775,0 0,-8.607169 -1.566874,0 0,-2.4389378 1.566874,0 0,-0.319063 c 0,-2.8997724 1.07767,-3.9845395 3.913644,-3.9845395 l 1.971007,0 z M 56.705315,19.192434 56.591876,18.114764 c -0.900434,0.942959 -1.914288,1.375461 -3.176292,1.375461 -1.566873,0 -2.828895,-0.645187 -3.474082,-1.751226 -0.489203,-0.82952 -0.553001,-1.240732 -0.553001,-3.055755 l 0,-6.5369168 3.608775,0 0,6.3951088 c 0,1.609418 0.460834,2.282973 1.588145,2.282973 1.198188,0 1.793752,-0.786994 1.793752,-2.282973 l 0,-6.3951088 3.615872,0 0,11.0461068 z M 42.185126,3.8427247 l 0,12.3081293 6.487293,0 0,3.04158 -10.330043,0 0,-15.3497093"
       id="path11494"
       inkscape:connector-curvature="0" />
    <path
       style="fill:#f8b00a;fill-opacity:1;fill-rule:nonzero;stroke:none"
       d="m 155.24124,13.874995 c -0.0496,1.339996 -0.38994,2.346753 -1.19821,3.360626 -1.24073,1.609417 -3.19756,2.417665 -5.74994,2.417665 -2.29713,0 -4.05543,-0.623914 -5.43087,-1.935559 -1.60942,-1.517233 -2.46021,-3.637126 -2.46021,-6.097336 0,-2.5098325 0.89333,-4.8566036 2.46021,-6.3242317 1.31162,-1.2478287 3.19756,-1.914269 5.52306,-1.914269 2.50983,0 4.37448,0.8295202 5.65775,2.5311048 0.74445,0.992582 1.08477,1.9780853 1.19821,3.318081 l -3.89237,0 c -0.26942,-1.7724795 -1.46763,-2.8572465 -3.14794,-2.8572465 -2.30423,0 -3.7293,1.9142872 -3.7293,4.9913154 0,3.225932 1.42507,5.11185 3.86401,5.11185 1.72995,0 2.76508,-0.900415 3.01323,-2.602"
       id="path11496"
       inkscape:connector-curvature="0" />
    <path
       style="fill:#f8b00a;fill-opacity:1;fill-rule:nonzero;stroke:none"
       d="m 163.38757,13.896249 c -0.43958,0.141754 -0.59554,0.184352 -0.99258,0.30487 -0.13467,0.02124 -0.13467,0.02124 -1.28329,0.319045 -1.17692,0.276519 -1.75121,0.758625 -1.75121,1.474706 0,0.687731 0.55302,1.127312 1.47471,1.127312 0.96423,0 1.90719,-0.418309 2.27587,-1.013873 0.19143,-0.297772 0.2765,-0.716081 0.2765,-1.425065 z m -6.88433,-2.226235 c 0,-2.4885607 1.98519,-3.9845394 5.24657,-3.9845394 2.26168,0 3.8711,0.7160812 4.62972,2.0277262 0.36867,0.6664402 0.48211,1.2194602 0.48211,2.2971302 l 0,6.125705 c 0,0.432483 0.0212,0.52465 0.29779,1.056398 l -3.33228,0 -0.2127,-0.921687 c -1.262,1.056398 -2.09152,1.382539 -3.5875,1.382539 -2.46021,0 -4.21142,-1.453434 -4.21142,-3.452792 0,-1.68033 1.08475,-2.828895 3.19755,-3.431538 0.27652,-0.0922 1.33291,-0.297772 3.20466,-0.638089 0.75862,-0.162989 1.08476,-0.439581 1.08476,-0.971328 0,-0.623915 -0.65228,-1.013854 -1.63778,-1.013854 -1.17694,0 -1.84338,0.553019 -1.86465,1.524329"
       id="path11498"
       inkscape:connector-curvature="0" />
    <path
       style="fill:#f8b00a;fill-opacity:1;fill-rule:nonzero;stroke:none"
       d="m 171.39212,8.1463272 0.12052,1.1769158 c 0.73027,-0.9713099 1.74412,-1.4959788 2.94233,-1.4959788 0.13468,0 0.43956,0.021236 0.75863,0.063889 l 0,3.0132298 c -0.27652,-0.04247 -0.38996,-0.06389 -0.59557,-0.06389 -1.01385,0 -1.84337,0.411212 -2.37512,1.169837 -0.38996,0.602642 -0.5034,1.106039 -0.5034,2.37514 l 0,4.806963 -3.60877,0 0,-11.0461066"
       id="path11500"
       inkscape:connector-curvature="0" />
    <path
       style="fill:#f8b00a;fill-opacity:1;fill-rule:nonzero;stroke:none"
       d="m 178.68766,13.229809 c 0,1.65904 0.97131,2.786333 2.37512,2.786333 1.42509,0 2.20498,-0.985503 2.20498,-2.757982 0,-1.77248 -0.82954,-2.786334 -2.24752,-2.786334 -1.41089,0 -2.33258,1.106021 -2.33258,2.757983 z m 8.14633,-5.0834818 0,10.1456918 c 0,1.82212 -0.13467,2.275876 -0.89333,3.133747 -1.1273,1.191109 -2.65164,1.722857 -5.01967,1.722857 -1.75122,0 -2.99196,-0.411212 -3.97746,-1.311645 -0.69481,-0.645169 -1.01385,-1.290355 -1.07767,-2.254586 l 3.65132,0 c 0.25523,0.779879 0.73735,1.084748 1.75121,1.084748 1.40381,0 2.11989,-0.737353 2.11989,-2.162419 l 0,-0.786994 c -0.95006,0.716081 -1.75121,0.985503 -2.92814,0.985503 -3.12667,0 -5.26782,-2.15534 -5.26782,-5.352903 0,-3.204642 2.16242,-5.5017907 5.18275,-5.5017907 1.3329,0 2.25459,0.3686857 3.07703,1.2620222 l 0.12051,-0.9642313"
       id="path11502"
       inkscape:connector-curvature="0" />
    <g
       transform="matrix(1.8150236,0,0,1.8150236,-742.34465,-1389.5991)"
       clip-path="url(#clip9)"
       id="g11504"
       style="clip-rule:nonzero">
      <path
         style="fill:#f8b00a;fill-opacity:1;fill-rule:nonzero;stroke:none"
         d="m 514.42187,773.12891 c 0,1.16406 0.46875,1.78515 1.3711,1.78515 0.89844,0 1.38281,-0.62109 1.38281,-1.77344 0,-1.1914 -0.46875,-1.80078 -1.39453,-1.80078 -0.89063,0 -1.35938,0.63282 -1.35938,1.78907 z m 4.76954,0.0117 c 0,2.07813 -1.24219,3.29688 -3.38672,3.29688 -2.11719,0 -3.3711,-1.21875 -3.3711,-3.28516 0,-2.11718 1.24219,-3.30859 3.42188,-3.30859 2.09375,0 3.33594,1.24219 3.33594,3.29687"
         id="path11506"
         inkscape:connector-curvature="0" />
    </g>
    <path
       style="fill:#7a7878;fill-opacity:1;fill-rule:nonzero;stroke:none"
       d="m 40.107777,26.835389 2.006436,3.615872 c 0.255247,0.453756 0.517572,0.914591 0.74445,1.389618 0.08512,0.184352 0.162989,0.375765 0.241053,0.545923 -0.03539,-0.389939 -0.05681,-0.779879 -0.06371,-1.184012 -0.01452,-0.340317 0,-0.680634 0,-1.013854 l 0,-3.353547 1.588145,0 0,7.699675 -1.7654,0 -2.091525,-3.750583 c -0.19143,-0.33322 -0.375764,-0.673537 -0.538844,-1.028029 -0.170068,-0.333238 -0.241053,-0.446677 -0.361589,-0.80117 0.03539,0.914609 0.04973,1.822121 0.04973,2.743808 l 0,2.835974 -1.588146,0 0,-7.699675"
       id="path11508"
       inkscape:connector-curvature="0" />
    <path
       style="fill:#7a7878;fill-opacity:1;fill-rule:nonzero;stroke:none"
       d="m 49.665001,31.082254 c 0,-0.03539 0,-0.141753 -0.03539,-0.241053 -0.10636,-0.517554 -0.553019,-0.808248 -1.056398,-0.808248 -0.52465,0 -0.93588,0.290694 -1.113117,0.786976 -0.04247,0.10636 -0.06389,0.241071 -0.07805,0.269422 z m -2.268779,1.155662 c 0.01452,0.24815 0.07805,0.460853 0.219781,0.687731 0.326142,0.503378 0.815345,0.531747 1.020951,0.531747 0.588467,-0.01452 0.843714,-0.319045 0.985503,-0.524651 l 1.659059,0 c -0.609739,1.694488 -2.098621,1.815024 -2.70836,1.815024 -0.510476,-0.01452 -0.872065,-0.113439 -1.056398,-0.177328 -1.176934,-0.425405 -1.779577,-1.545601 -1.779577,-2.750904 0,-0.311948 0.04247,-1.254907 0.645187,-2.013533 0.290676,-0.397036 0.97131,-1.028047 2.204963,-1.028047 0.191431,0 0.652283,0.01452 1.141487,0.219799 0.560098,0.241053 1.276179,0.794073 1.531426,2.134068 0.02124,0.155911 0.08512,0.4963 0.08512,0.907512 0,0.06389 0,0.134675 -0.0073,0.184334"
       id="path11510"
       inkscape:connector-curvature="0" />
    <path
       style="fill:#7a7878;fill-opacity:1;fill-rule:nonzero;stroke:none"
       d="m 54.039499,27.253698 0,1.729935 1.006757,0 0,1.212381 -1.006757,0 0,2.041902 c 0.01452,0.219799 0,0.425405 0.01452,0.645186 0.0073,0.120518 0.0073,0.283598 0.127596,0.354493 0.134675,0.0922 0.347414,0.07805 0.652283,0.07805 l 0.233957,0 0,1.219478 -0.907512,0 c -0.141753,0 -0.269404,-0.0073 -0.404115,-0.0073 -0.148832,-0.0073 -0.88624,0.0073 -1.169837,-0.588467 -0.148832,-0.30487 -0.141754,-0.588467 -0.148832,-1.226557 l 0,-2.51693 -0.772801,0 0,-1.212381 0.772801,0 0,-1.729935"
       id="path11512"
       inkscape:connector-curvature="0" />
    <path
       style="fill:#7a7878;fill-opacity:1;fill-rule:nonzero;stroke:none"
       d="m 57.378852,28.983633 0.489203,1.978104 c 0.06389,0.24815 0.120518,0.503378 0.177328,0.751528 0.06371,0.30487 0.127596,0.609739 0.19143,0.900415 0.05681,-0.340317 0.120518,-0.694809 0.198509,-1.042204 0.05681,-0.205624 0.113439,-0.425406 0.163171,-0.631012 l 0.489203,-1.956831 1.417988,0 0.517554,1.985182 c 0.127596,0.581388 0.269422,1.155662 0.368685,1.73705 0.04247,-0.283597 0.08513,-0.567195 0.141754,-0.850792 0.06389,-0.326142 0.134674,-0.645186 0.205606,-0.957153 l 0.460852,-1.914287 1.701585,0 -1.623593,5.551431 -1.552699,0 -0.588466,-2.360946 c -0.120518,-0.517572 -0.24815,-1.028048 -0.333221,-1.538523 -0.0922,0.517572 -0.212702,1.035126 -0.333238,1.545601 l -0.567195,2.353868 -1.524329,0 -1.644865,-5.551431"
       id="path11514"
       inkscape:connector-curvature="0" />
    <path
       style="fill:#7a7878;fill-opacity:1;fill-rule:nonzero;stroke:none"
       d="m 65.908047,31.755809 c 0,1.27618 0.701906,1.659041 1.318723,1.659041 0.09928,0 0.347414,-0.01452 0.602643,-0.134675 0.368685,-0.19143 0.716081,-0.652265 0.716081,-1.566874 0,-0.09928 0,-0.460852 -0.10636,-0.7728 -0.09928,-0.283598 -0.382861,-0.872065 -1.212382,-0.864968 -0.609739,0.01452 -1.318723,0.375764 -1.318723,1.680313 z m 3.296827,-2.311323 c 0.652265,0.553019 0.978407,1.439259 0.978407,2.282955 0,1.254925 -0.687731,2.424762 -1.907191,2.828895 -0.205606,0.07805 -0.545923,0.170068 -1.070592,0.170068 -0.205606,0 -0.66644,-0.01452 -1.176915,-0.198527 -1.169856,-0.446659 -1.744129,-1.559777 -1.744129,-2.757983 0,-1.084767 0.453756,-1.77248 0.737353,-2.098621 0.340317,-0.361589 1.042223,-0.879143 2.240411,-0.879143 0.326141,0.0073 1.191109,0.02831 1.942656,0.652265"
       id="path11516"
       inkscape:connector-curvature="0" />
    <path
       style="fill:#7a7878;fill-opacity:1;fill-rule:nonzero;stroke:none"
       d="m 72.834921,28.983633 c 0,0.425405 -0.02124,0.850792 -0.05681,1.269101 0.04247,-0.226878 0.0922,-0.404115 0.184334,-0.623915 0.361589,-0.751528 1.063495,-0.815344 1.793751,-0.815344 l 0,1.538522 c -0.141753,-0.01452 -0.283597,-0.03539 -0.43958,-0.03539 -0.127597,0 -0.510476,0.0073 -0.857871,0.262325 -0.609739,0.43958 -0.560117,1.191109 -0.560117,2.516929 l 0,1.43926 -1.630689,0 0,-5.551432"
       id="path11518"
       inkscape:connector-curvature="0" />
    <path
       style="fill:#7a7878;fill-opacity:1;fill-rule:nonzero;stroke:none"
       d="m 77.188128,26.835389 0,4.048356 1.722857,-1.900112 2.027726,0 -2.112796,2.084446 2.290051,3.466985 -2.006454,0 -1.396715,-2.353868 -0.524669,0.503397 0,1.850471 -1.595224,0 0,-7.699675"
       id="path11520"
       inkscape:connector-curvature="0" />
    <path
       style="fill:#7a7878;fill-opacity:1;fill-rule:nonzero;stroke:none"
       d="m 83.406,28.983633 0,5.551431 -1.602321,0 0,-5.551431 z m 0,-2.148244 0,1.318724 -1.602321,0 0,-1.318724"
       id="path11522"
       inkscape:connector-curvature="0" />
    <path
       style="fill:#7a7878;fill-opacity:1;fill-rule:nonzero;stroke:none"
       d="m 86.341238,28.983633 -0.01452,0.609739 c 0.262325,-0.269422 0.638089,-0.772801 1.57397,-0.772801 0.262325,0 1.07767,0.03539 1.581049,0.751529 0.368685,0.538844 0.347413,1.169837 0.347413,1.779576 l 0,3.183388 -1.609417,0 0,-2.864343 c 0.0073,-0.680634 -0.03539,-1.013854 -0.297773,-1.269101 -0.09928,-0.0922 -0.262344,-0.212684 -0.588467,-0.212684 -0.08513,0 -0.347414,0.0073 -0.567195,0.170067 -0.43958,0.319045 -0.389958,0.872065 -0.404133,1.318724 l 0,2.857246 -1.602321,0 0,-5.551431"
       id="path11524"
       inkscape:connector-curvature="0" />
    <g
       transform="matrix(1.8150236,0,0,1.8150236,-742.34465,-1389.5991)"
       clip-path="url(#clip10)"
       id="g11526"
       style="clip-rule:nonzero">
      <path
         style="fill:#7a7878;fill-opacity:1;fill-rule:nonzero;stroke:none"
         d="m 460.30859,782.25781 c -0.15234,0.0742 -0.39062,0.27735 -0.39062,0.69922 0,0.62891 0.45703,0.76172 0.6914,0.76172 0.0859,0 0.33594,-0.0195 0.50391,-0.22266 0.0781,-0.0937 0.16797,-0.26953 0.16797,-0.55859 0,-0.0469 0,-0.19922 -0.0586,-0.34375 -0.10157,-0.25781 -0.32422,-0.40234 -0.60157,-0.40234 -0.043,0 -0.1914,0 -0.3125,0.0664 z m 1.85157,-0.67969 0,2.59766 c -0.0117,0.3125 0.0234,0.64063 -0.15235,0.92578 -0.18359,0.30078 -0.61328,0.58203 -1.38281,0.58203 -0.0898,0 -0.62891,0 -0.97656,-0.23437 -0.36328,-0.23438 -0.42969,-0.58985 -0.45313,-0.7461 l 0.94922,0 c 0.0195,0.0781 0.0391,0.10547 0.0664,0.13282 0.0781,0.0859 0.23047,0.15625 0.46875,0.15625 0.29687,0 0.44531,-0.0937 0.51953,-0.21485 0.0703,-0.10937 0.082,-0.25781 0.082,-0.51953 l 0,-0.14062 c -0.24609,0.23828 -0.46094,0.33984 -0.81641,0.33984 -0.10937,0 -0.33593,-0.004 -0.59375,-0.11719 -0.7539,-0.33984 -0.80078,-1.125 -0.80078,-1.35937 0,-0.16797 0.0195,-0.57813 0.29297,-0.96485 0.35156,-0.48437 0.85547,-0.55078 1.07031,-0.55078 0.29688,0 0.59766,0.11328 0.78907,0.35547 0.0469,0.0547 0.0781,0.10547 0.13281,0.23828 -0.0313,-0.15625 -0.0508,-0.21484 -0.0508,-0.48047"
         id="path11528"
         inkscape:connector-curvature="0" />
    </g>
    <path
       style="fill:#7a7878;fill-opacity:1;fill-rule:nonzero;stroke:none"
       d="m 102.78989,27.423856 0,1.694488 0.97841,0 0,1.176934 -0.97841,0 0,1.992279 c 0.0145,0.212684 0,0.418308 0.0145,0.630993 0.007,0.120517 0.007,0.276519 0.1276,0.35451 0.12759,0.08512 0.34031,0.07097 0.63809,0.07097 l 0.21978,0 0,1.191109 -0.87915,0 c -0.14175,0 -0.26942,-0.0073 -0.39703,-0.0073 -0.14883,-0.0073 -0.86497,0.0073 -1.14149,-0.574274 -0.14883,-0.297791 -0.13467,-0.574291 -0.14883,-1.198206 l 0,-2.46021 -0.75153,0 0,-1.176934 0.75153,0 0,-1.694488"
       id="path11530"
       inkscape:connector-curvature="0" />
    <path
       style="fill:#7a7878;fill-opacity:1;fill-rule:nonzero;stroke:none"
       d="m 106.22143,27.019723 0,2.531105 0.17006,-0.170068 c 0.19144,-0.170068 0.61682,-0.467931 1.29036,-0.467931 0.87206,0 1.35419,0.503397 1.53143,0.765722 0.35451,0.524651 0.33323,1.120196 0.33323,1.708663 l 0,3.147941 -1.58106,0 0,-2.864343 c 0,-0.595546 0.0354,-0.815345 -0.17715,-1.106021 -0.2127,-0.297773 -0.51047,-0.297773 -0.63809,-0.297773 -0.43958,0 -0.68063,0.219781 -0.7799,0.354492 -0.16317,0.219782 -0.14883,0.4963 -0.14883,0.751529 l 0,3.162116 -1.58814,0 0,-7.515341"
       id="path11532"
       inkscape:connector-curvature="0" />
    <path
       style="fill:#7a7878;fill-opacity:1;fill-rule:nonzero;stroke:none"
       d="m 114.41031,31.160246 c 0,-0.02831 0,-0.134675 -0.0283,-0.233957 -0.10636,-0.503397 -0.54592,-0.786994 -1.03513,-0.786994 -0.51047,0 -0.9146,0.283597 -1.08476,0.765722 -0.0425,0.10636 -0.0637,0.233957 -0.0781,0.262325 z m -2.21206,1.127311 c 0.007,0.24815 0.071,0.446659 0.21268,0.673537 0.31904,0.489203 0.80117,0.524651 0.99968,0.524651 0.57429,-0.01452 0.82244,-0.311948 0.95715,-0.510476 l 1.62359,0 c -0.59556,1.644865 -2.04899,1.765401 -2.64454,1.765401 -0.4963,-0.01452 -0.85079,-0.10636 -1.03513,-0.170068 -1.14858,-0.418308 -1.73705,-1.510154 -1.73705,-2.687088 0,-0.304869 0.0497,-1.226556 0.63102,-1.971006 0.29069,-0.382843 0.95005,-0.999679 2.15534,-0.999679 0.19143,0 0.63809,0.0073 1.11311,0.212703 0.54593,0.233974 1.24783,0.779897 1.49598,2.091524 0.0212,0.148832 0.0851,0.475028 0.0851,0.879161 0,0.07097 0,0.127596 -0.0145,0.184334"
       id="path11534"
       inkscape:connector-curvature="0" />
    <path
       style="fill:#7a7878;fill-opacity:1;fill-rule:nonzero;stroke:none"
       d="m 121.06066,29.118344 0.48211,1.928463 c 0.0639,0.241071 0.11344,0.489203 0.17007,0.730274 0.0639,0.297773 0.12759,0.602643 0.19143,0.88624 0.0497,-0.340317 0.11343,-0.680634 0.19143,-1.020951 0.0496,-0.205606 0.10636,-0.418308 0.15591,-0.616835 l 0.4821,-1.907191 1.38254,0 0.5034,1.935559 c 0.1276,0.567195 0.26233,1.127293 0.36157,1.694488 0.0425,-0.2765 0.0851,-0.553001 0.14175,-0.82952 0.0639,-0.319045 0.1276,-0.630993 0.19851,-0.942959 l 0.44668,-1.857568 1.66614,0 -1.58815,5.41672 -1.51725,0 -0.57429,-2.311323 c -0.11344,-0.4963 -0.24105,-0.999679 -0.32612,-1.495979 -0.0851,0.510475 -0.20563,1.006775 -0.32615,1.510154 l -0.54592,2.297148 -1.49598,0 -1.60941,-5.41672"
       id="path11536"
       inkscape:connector-curvature="0" />
    <path
       style="fill:#7a7878;fill-opacity:1;fill-rule:nonzero;stroke:none"
       d="m 129.39133,31.819607 c 0,1.247829 0.68063,1.623612 1.29037,1.623612 0.0922,0 0.34032,-0.01452 0.58847,-0.127597 0.36159,-0.19143 0.7019,-0.638089 0.7019,-1.538504 0,-0.0922 0,-0.446678 -0.10636,-0.751547 -0.0993,-0.283598 -0.37576,-0.857871 -1.18401,-0.843696 -0.59556,0.0073 -1.29037,0.361589 -1.29037,1.637769 z m 3.21883,-2.254586 c 0.63809,0.538826 0.95714,1.403794 0.95714,2.226236 0,1.226556 -0.67354,2.375121 -1.86465,2.765079 -0.19852,0.07805 -0.53175,0.162989 -1.04222,0.162989 -0.20561,0 -0.65227,-0.01452 -1.14857,-0.19143 -1.14148,-0.439581 -1.70868,-1.52433 -1.70868,-2.694167 0,-1.056398 0.44668,-1.729953 0.72318,-2.048998 0.33322,-0.347414 1.01386,-0.864968 2.18369,-0.864968 0.32614,0.01452 1.16276,0.03539 1.90011,0.645187"
       id="path11538"
       inkscape:connector-curvature="0" />
    <path
       style="fill:#7a7878;fill-opacity:1;fill-rule:nonzero;stroke:none"
       d="m 136.15512,29.118344 c 0,0.41123 -0.0212,0.82952 -0.0496,1.233653 0.0425,-0.226877 0.0851,-0.397036 0.17733,-0.609739 0.35449,-0.730256 1.03513,-0.794072 1.75121,-0.794072 l 0,1.503075 c -0.14176,-0.01452 -0.2765,-0.03539 -0.42539,-0.03539 -0.13467,0 -0.5034,0.0073 -0.84371,0.255229 -0.59555,0.425405 -0.54593,1.162758 -0.54593,2.46021 l 0,1.403812 -1.59524,0 0,-5.41672"
       id="path11540"
       inkscape:connector-curvature="0" />
    <path
       style="fill:#7a7878;fill-opacity:1;fill-rule:nonzero;stroke:none"
       d="m 138.87058,34.535064 1.56687,0 0,-7.515341 -1.56687,0 z m 0,0"
       id="path11542"
       inkscape:connector-curvature="0" />
    <path
       style="fill:#7a7878;fill-opacity:1;fill-rule:nonzero;stroke:none"
       d="m 143.06073,31.819607 c 0,0.694828 0.19143,1.070592 0.40413,1.304549 0.2127,0.219799 0.44666,0.326141 0.75862,0.326141 0.30487,0 0.51048,-0.113439 0.60265,-0.19143 0.33322,-0.233957 0.54592,-0.666441 0.54592,-1.488882 0,-0.127596 0.0283,-0.900415 -0.44666,-1.311645 -0.10636,-0.09928 -0.31906,-0.248132 -0.68063,-0.248132 -0.5743,0.01452 -1.18403,0.425387 -1.18403,1.609399 z m 3.87819,-4.799884 0,7.515341 -1.55977,0 c 0,-0.02831 0,-0.404133 0.0354,-0.638089 -0.14175,0.248131 -0.24815,0.36157 -0.34032,0.446659 -0.4254,0.375764 -1.04222,0.375764 -1.18403,0.375764 -0.15591,0 -0.59554,-0.01452 -1.01385,-0.212703 -0.62392,-0.297772 -1.39672,-1.056398 -1.39672,-2.644543 0,-0.191431 0.0145,-0.701906 0.19143,-1.226557 0.3474,-1.020951 1.15566,-1.71576 2.26169,-1.71576 0.59556,0 0.9926,0.226878 1.18401,0.375764 0.11344,0.106361 0.17007,0.191431 0.2127,0.24815 l 0,-2.524026"
       id="path11544"
       inkscape:connector-curvature="0" />
    <path
       style="fill:#7a7878;fill-opacity:1;fill-rule:nonzero;stroke:none"
       d="m 148.1513,34.535064 1.56688,0 0,-1.552698 -1.56688,0 z m 0,0"
       id="path11546"
       inkscape:connector-curvature="0" />
  </g>
</svg>
