<svg version="1.1" viewBox="0 0 136.01 38" xmlns="http://www.w3.org/2000/svg">
<path d="m18.88 0c-10.45 0.02-18.9 8.56-18.88 19.03 0.04 10.5 8.52 19 18.96 18.97 10.45-0.03 18.9-8.57 18.87-19.07-0.03-10.47-8.52-18.96-18.95-18.93zm18.14 18.97c0.02 4.8-1.83 9.18-4.88 12.47l-0.02-3.62c0-0.06 0.03-0.06 0.03-0.06-0.03 0-0.03-0.03-0.03-0.03v-0.03c-0.2-0.32-0.4-0.63-0.63-0.95-2.93-4.22-6.78-7.78-11.28-10.33l11.25-0.02 5.38-0.02c0.13 0.86 0.18 1.69 0.18 2.59zm-5.55-6.27-20.8 0.06v3.67c1.92 0.43 3.82 1.03 5.62 1.83-3.32-0.9-6.81-1.27-10.77-1.26h-0.14v4.72l1.09-1.1c9.76 0.21 18.58 4.27 25.03 10.72 0.14 0.12 0.27 0.23 0.38 0.35-0.11 0.15-0.23 0.26-0.37 0.38-3.23 3.15-7.66 5.11-12.52 5.13-10.01 0.03-18.12-8.11-18.16-18.14-0.01-10.05 8.06-18.2 18.08-18.23 4.86-0.02 9.3 1.9 12.54 5.06 1.97 1.86 3.5 4.19 4.48 6.8l-4.46 0.01zm70.9-3.9 0.04 15.9c-0.63 1.18-2.21 1.66-3.44 1.66-3.26 0-4.66-1.02-4.69-5.09l-0.01-12.43-4.64 0.02 0.05 12.85c0 6.66 4.02 8.65 8.98 8.73 3.49 0.06 6.4-1.35 8.06-3.02 0.22-0.22 0.35-0.52 0.35-0.84l-0.05-17.74-4.65-0.04zm33.6 20.02-6.24-19.93h-4.52l-6.84 20.96h4.38l1.15-3.87c1.59 0.15 4.93 0.55 7.88 3.77l0.03 0.09h3.42c0.52 0.01 0.9-0.51 0.74-1.02zm-11.07-6.3 0.33-1.13c0.33-1.05 0.6-1.95 1.11-3.88 0.24-0.96 0.69-2.74 0.99-4 0.39 2.01 0.57 2.53 0.84 3.67 0.24 1.05 0.48 2.1 1.14 4.21l0.86 2.94c-1.81-1.04-3.66-1.52-5.27-1.81zm-13.77 7.33h3.19c0.79 0 1.44-0.65 1.44-1.44v-19.52h-4.63v20.96zm-64.09-0.02h4.22v-9.35h3.22c1.17 0 2.12-0.95 2.12-2.12v-1.32h-5.34v-4.81h4.68c1.14 0 2.1-0.84 2.26-1.97l0.21-1.45h-11.37v21.02zm17.8-21.03h-4.31v21.03h9.07c1.17 0 2.18-0.82 2.42-1.96l0.33-1.55h-7.51v-17.52zm14.42 5.81c-0.36 0.81-0.73 1.68-1.12 2.63-0.26-0.87-0.61-1.76-1.06-2.69l-2.68-5.75h-4.79c-0.12 0-0.2 0.13-0.15 0.24l6.39 12.13v8.65h3.15c0.69 0 1.25-0.56 1.25-1.26v-7.4l6.7-12.38h-4.98l-2.71 5.83z" fill="#173D79"/>
</svg>
