<?xml version="1.0" encoding="UTF-8" standalone="no"?>
<!-- Generator: Adobe Illustrator 17.1.0, SVG Export Plug-In . SVG Version: 6.00 Build 0)  -->

<svg
   xmlns:dc="http://purl.org/dc/elements/1.1/"
   xmlns:cc="http://creativecommons.org/ns#"
   xmlns:rdf="http://www.w3.org/1999/02/22-rdf-syntax-ns#"
   xmlns:svg="http://www.w3.org/2000/svg"
   xmlns="http://www.w3.org/2000/svg"
   xmlns:sodipodi="http://sodipodi.sourceforge.net/DTD/sodipodi-0.dtd"
   xmlns:inkscape="http://www.inkscape.org/namespaces/inkscape"
   version="1.1"
   id="Layer_1"
   x="0px"
   y="0px"
   viewBox="0 0 100 27.000001"
   xml:space="preserve"
   inkscape:version="0.91 r13725"
   sodipodi:docname="Vx-logo.svg"
   width="100"
   height="27"><title
     id="title4161">Virgin America</title><metadata
     id="metadata31"><rdf:RDF><cc:Work
         rdf:about=""><dc:format>image/svg+xml</dc:format><dc:type
           rdf:resource="http://purl.org/dc/dcmitype/StillImage" /><dc:title>Virgin America</dc:title><cc:license
           rdf:resource="http://scripts.sil.org/OFL" /></cc:Work><cc:License
         rdf:about="http://scripts.sil.org/OFL"><cc:permits
           rdf:resource="http://scripts.sil.org/pub/OFL/Reproduction" /><cc:permits
           rdf:resource="http://scripts.sil.org/pub/OFL/Distribution" /><cc:permits
           rdf:resource="http://scripts.sil.org/pub/OFL/Embedding" /><cc:permits
           rdf:resource="http://scripts.sil.org/pub/OFL/DerivativeWorks" /><cc:requires
           rdf:resource="http://scripts.sil.org/pub/OFL/Notice" /><cc:requires
           rdf:resource="http://scripts.sil.org/pub/OFL/Attribution" /><cc:requires
           rdf:resource="http://scripts.sil.org/pub/OFL/ShareAlike" /><cc:requires
           rdf:resource="http://scripts.sil.org/pub/OFL/DerivativeRenaming" /><cc:requires
           rdf:resource="http://scripts.sil.org/pub/OFL/BundlingWhenSelling" /></cc:License></rdf:RDF></metadata><defs
     id="defs29" /><sodipodi:namedview
     pagecolor="#ffffff"
     bordercolor="#666666"
     borderopacity="1"
     objecttolerance="10"
     gridtolerance="10"
     guidetolerance="10"
     inkscape:pageopacity="0"
     inkscape:pageshadow="2"
     inkscape:window-width="1366"
     inkscape:window-height="705"
     id="namedview27"
     showgrid="false"
     inkscape:showpageshadow="false"
     inkscape:zoom="1"
     inkscape:cx="48.118404"
     inkscape:cy="13.290651"
     inkscape:window-x="-8"
     inkscape:window-y="-8"
     inkscape:window-maximized="1"
     inkscape:current-layer="Layer_1" /><g
     id="g3"
     transform="matrix(0.25853266,0,0,0.25983669,-0.09025851,0.28944881)"><path
       d="M 88.77833,3.968 C 85.08233,0.85000003 82.13333,2.935063e-8 77.21733,2.935063e-8 l -74.9869961,0 L 51.36033,96.046 c 1.891,3.695 4.366,5.244 7.869,5.244 l 64.016,0 c 2.973,0 4.746,-1.535 5.951,-4.221 l 8.775,-19.563 10.429,-23.249 -59.622,-50.289 z m 12.391,26.646 c 0.514,-0.068 0.936,-0.152 1.455,-0.08 0.687,0.095 0.72,1.091 0.532,1.599 -0.304,0.82 -1.272,1.918 -2.016,2.378 -0.337,0.208 -0.704,0.046 -1.081,0.067 -0.58,0.032 -0.931,-0.587 -1.117,-1.044 0.234,0.574 -0.395,-0.939 0,0 -0.435,-1.03 1.237,-2.821 2.227,-2.92 z m -4.665,20.604 c 0.024,-1.017 0.28,-1.987 0.306,-3.019 0.043,-1.713 0.357,-3.244 0.477,-4.903 0.068,-0.945 0.168,-2.172 0.68,-2.972 0.439,-0.686 0.734,-1.332 1.535,-1.675 0.327,-0.14 0.783,-0.16 1.135,-0.125 0.711,0.071 0.243,0.58 0.543,0.908 0.033,-0.052 0.076,-0.063 0.131,-0.034 0.002,0.102 0.004,0.204 0.004,0.307 0.352,0.032 -0.028,0.489 -0.012,0.744 0.062,0.576 0.006,1.118 -0.267,1.663 0.069,0.018 0.139,0.024 0.21,0.017 0.002,0.019 -0.051,0.173 -0.062,0.187 -0.202,0.132 -0.168,0.185 -0.141,0.581 0.015,0.222 0.143,0.687 -0.025,0.864 -0.029,0.03 -0.035,0.646 -0.014,0.747 0.03,0.148 -0.022,1.11 -0.008,1.129 0.042,-0.014 0.075,-0.039 0.1,-0.075 -0.039,-0.012 0.058,1.254 -0.034,1.358 -0.133,0.15 -0.298,0.314 -0.259,0.54 0.016,0.096 0.34,0.765 0.242,0.813 -0.094,0.054 -0.166,-0.201 -0.209,-0.201 -0.143,0 0.245,0.542 0.212,0.588 -0.075,0.103 -0.289,-0.361 -0.377,0.027 -0.084,0.371 -0.025,0.785 -0.002,1.16 0.021,0.339 -0.014,0.635 -0.028,0.973 -0.024,0.557 0.187,1.254 -0.072,1.777 -0.594,1.202 -3.266,3.083 -4.15,1.273 0.1,0.214 0.264,0.571 -0.015,-0.025 -0.066,-0.145 -0.048,-0.108 -0.007,-0.023 -0.338,-0.779 0.088,-1.796 0.107,-2.604 z m -20.651,-1.378 c -0.028,-0.191 1.371,-0.644 1.555,-0.696 0.273,-0.077 0.633,-0.026 0.903,0.034 0.607,0.136 0.52,0.382 0.694,0.854 0.191,0.517 0.237,0.613 0.122,1.186 -0.097,0.483 -0.233,0.915 -0.691,1.171 -0.535,0.43 -1.073,0.869 -1.605,1.294 -0.53,0.423 -0.955,0.931 -1.284,1.527 -0.189,0.342 -0.158,0.72 -0.303,1.041 -0.36,0.796 -0.312,1.624 -0.415,2.452 -0.227,1.808 -0.044,3.648 -0.28,5.443 -0.185,1.405 -1.726,3.192 -3.309,3.081 -1.266,-0.089 -1.273,-1.62 -1.247,-2.57 0.015,-0.56 0.126,-1.082 0.184,-1.635 0.061,-0.574 -0.082,-0.974 0.048,-1.557 0.081,-0.362 -0.099,-0.764 -0.025,-1.18 0.04,-0.224 0.047,-0.39 0.094,-0.599 0.157,-0.704 0.186,-1.45 0.241,-2.167 0.124,-1.618 -0.046,-3.321 0.397,-4.891 0.201,-0.711 0.761,-1.204 1.339,-1.637 0.285,-0.193 1.106,-0.221 1.282,-0.482 0.718,0.188 1.753,-0.489 2.419,-0.646 -0.018,-0.075 -0.058,-0.082 -0.119,-0.023 z m -17.708,10.236 c -0.091,0.293 -0.248,0.568 -0.284,0.877 -0.038,0.325 0.065,0.565 -0.055,0.89 -0.109,0.298 -0.175,0.527 -0.2,0.845 -0.05,0.646 -0.278,1.26 -0.362,1.902 -0.029,0.222 -0.13,0.617 0.005,0.825 0.121,0.186 0.279,0.289 0.233,0.544 -0.13,0.718 -0.524,1.317 -0.663,2.022 -0.077,0.387 -0.334,1.388 -0.137,1.741 0.192,0.343 -0.169,1.138 -0.309,1.596 -0.321,1.056 -0.503,2.348 -0.569,3.444 -0.083,1.39 -0.408,2.709 -0.507,4.09 -0.128,1.789 -0.269,3.765 -0.678,5.516 -0.169,0.725 -0.451,1.578 -1.129,1.982 -0.663,0.396 -1.701,0.4 -2.23,-0.203 -0.776,-0.885 -0.85,-2.403 -1.085,-3.496 -0.309,-1.437 -0.372,-2.914 -0.709,-4.347 -0.122,-0.522 -0.024,-1.414 -0.382,-1.834 -0.12,-0.141 -0.238,-0.902 -0.259,-1.104 -0.04,-0.381 0.067,-0.711 -0.01,-1.114 -0.073,-0.38 -0.179,-0.744 -0.272,-1.117 -0.315,-1.269 -0.507,-2.712 -0.645,-4.016 -0.136,-1.282 -0.44,-2.523 -0.553,-3.818 -0.128,-1.464 -0.48,-2.884 -0.639,-4.345 -0.135,-1.233 -0.101,-2.585 -0.572,-3.75 -0.134,-0.331 -0.291,-0.656 -0.294,-1.021 -0.001,-0.116 0.155,-0.498 0.1,-0.607 -0.119,-0.232 -0.341,0.096 -0.367,-0.255 -0.079,-1.091 -1.185,0.295 -1.086,0.748 -0.342,-0.285 -0.276,0.354 -0.272,0.522 0.008,0.289 -0.35,0.661 -0.468,0.935 -0.451,1.049 -0.618,2.241 -1.046,3.325 -0.365,0.924 -0.747,1.947 -1.554,2.58 -0.818,0.641 -2.054,0.445 -2.559,-0.507 -0.532,-1.004 0.207,-2.205 0.521,-3.157 0.377,-1.141 0.638,-2.37 1.174,-3.45 0.535,-1.079 0.825,-2.349 1.208,-3.49 0.673,-2.002 1.366,-4.023 1.945,-6.053 0.484,-1.698 1.536,-4.254 3.755,-3.003 1.058,0.596 1.167,1.789 1.359,2.885 0.222,1.274 0.424,2.548 0.649,3.821 0.29,1.643 0.58,3.138 0.74,4.812 0.072,0.753 0.326,1.468 0.56,2.182 0.19,0.576 0.226,1.264 0.453,1.814 0.145,0.351 0.068,0.781 0.167,1.194 0.147,0.613 0.181,1.224 0.38,1.827 0.214,0.649 -0.198,1.251 0.017,1.843 0.181,0.497 0.522,1.22 0.404,1.753 -0.112,0.509 0.119,0.946 0.098,1.473 -0.018,0.459 0.321,0.727 0.2,1.238 -0.107,0.476 0.461,0.562 0.59,0.029 0.095,-0.392 0.11,-0.803 0.126,-1.204 0.046,-1.155 0.232,-2.317 0.454,-3.451 0.602,-3.083 1.015,-6.195 1.633,-9.277 1.185,-5.9 2.934,-11.624 4.424,-17.431 0.328,-1.277 0.913,-2.471 1.311,-3.733 0.47,-1.49 1.044,-2.947 1.585,-4.412 1.131,-3.06 2.236,-6.125 3.41,-9.168 0.802,-2.079 1.91,-4.914 4.538,-5.085 2.239,-0.146 3.976,2.327 3.313,4.407 -0.175,0.549 -0.583,0.941 -0.874,1.418 -0.08,0.131 -0.052,0.312 -0.091,0.458 -0.082,0.306 -0.237,0.209 -0.445,0.388 -0.863,0.744 -1.754,1.563 -2.377,2.532 -1.329,2.068 -2.087,4.37 -3.169,6.584 -0.313,0.639 -0.341,1.358 -0.643,2.015 -0.24,0.521 -0.608,1.006 -0.758,1.563 -0.338,1.261 -0.967,2.439 -1.33,3.691 -0.22,0.761 -0.207,1.53 -0.594,2.25 -0.134,0.229 -0.01,0.501 -0.101,0.741 -0.159,0.148 -0.244,0.421 -0.305,0.621 -0.361,1.194 -0.822,2.401 -0.898,3.656 -0.045,0.739 -0.166,1.034 -0.555,1.622 -0.286,0.432 -0.307,1.027 -0.521,1.498 -0.562,1.241 -0.919,2.59 -1.293,3.898 -0.19,0.663 -0.27,1.376 -0.394,2.053 -0.107,0.584 -0.323,1.121 -0.327,1.722 -0.005,0.628 -0.181,0.922 -0.397,1.479 -0.194,0.502 -0.016,1.047 -0.151,1.555 0.057,-0.071 0.082,-0.065 -0.063,0.224 -0.269,0.231 -0.082,0.532 -0.171,0.818 z m 9.007,-3.338 c 0.223,0.596 -0.267,1.542 -0.255,2.159 0.013,0.677 -0.156,1.438 -0.227,2.119 -0.088,0.848 -0.229,1.66 -0.345,2.513 -0.109,0.804 -0.152,1.61 -0.248,2.414 -0.09,0.75 -0.025,1.579 -0.211,2.306 -0.123,0.48 -0.305,1.011 -0.292,1.511 0.006,0.25 0.158,-0.011 0.282,0.054 0.161,0.085 -0.191,0.706 -0.304,0.286 -0.088,0.077 -0.039,0.279 -0.153,0.326 -0.245,0.101 -0.301,0.045 -0.529,0.302 -0.343,0.386 -1.082,0.801 -1.556,1.007 -1.608,0.7 -1.574,-1.425 -1.612,-2.324 -0.085,-2.023 0.376,-4.168 0.317,-6.145 -0.016,-0.52 0.114,-1.062 0.183,-1.577 0.066,-0.484 -0.008,-0.88 -0.008,-1.333 10e-4,-1.021 0.108,-2.449 0.514,-3.365 0.55,-1.273 1.34,-2.384 2.723,-2.806 0.455,-0.14 1.093,-0.156 1.372,0.311 0.135,0.226 0.144,1.263 0.486,1.257 0.003,0.032 -0.015,0.046 -0.038,0.05 -0.081,0.049 -0.286,0.05 -0.302,0.228 -0.022,0.264 0.115,0.472 0.203,0.707 z m -1.082,-7.866 c -0.239,0.034 -1.116,0.117 -1.142,-0.276 -0.015,-0.23 -0.311,-0.458 -0.331,-0.789 -0.022,-0.358 0.09,-0.717 0.221,-1.047 0.357,-0.896 0.911,-1.159 1.592,-1.743 0.412,-0.353 1.468,-1.043 2.036,-0.656 0.31,0.212 0.822,1.105 0.601,1.488 -0.018,0.031 0.17,-0.293 0,0 -0.18,0.307 -0.201,0.749 -0.372,1.028 -0.29,0.472 -0.682,0.741 -1.103,1.071 -0.444,0.348 -0.925,0.841 -1.502,0.924 z m 59.649,-1.308 c -1.13,0.731 -2.451,1.161 -3.726,1.562 -2.844,0.893 -5.42,2.053 -8.053,3.45 -2.64,1.4 -5.349,2.672 -7.913,4.211 -2.366,1.42 -4.722,2.831 -7.121,4.198 -1.03,0.587 -1.89,1.366 -2.931,1.94 -0.606,0.334 -1.209,0.734 -1.738,1.191 -0.437,0.377 -1.103,0.766 -1.472,1.186 -0.694,0.79 0.024,1.907 -0.378,2.734 -0.127,0.26 -0.015,0.176 0.081,0.347 0.104,0.187 -0.08,0.458 -0.133,0.625 -0.148,0.469 -0.034,1.417 -0.018,1.925 0.014,0.45 0.087,0.884 0.068,1.337 -0.018,0.452 -0.261,0.955 -0.04,1.393 0.076,0.592 -0.174,1.173 -0.145,1.766 0.03,0.621 0.078,1.205 0.069,1.832 -0.004,0.301 0.02,0.608 0.142,0.888 -0.101,0.112 -0.278,0.201 -0.339,0.346 -0.172,0.412 0.243,0.42 0.267,0.674 -0.057,0.088 -0.146,0.123 -0.265,0.106 0.166,0.292 0.343,0.651 0.167,0.95 -0.129,0.218 -0.276,0.436 -0.077,0.674 -0.086,0.228 0.354,0.409 0.254,0.62 -0.075,0.16 -0.224,0.294 -0.288,0.456 -0.121,0.304 0.371,0.378 0.076,0.647 -0.2,0.183 -0.015,0.327 0.118,0.471 0.246,0.266 -0.109,0.294 -0.073,0.605 0.071,0.616 0.469,1.166 0.46,1.797 -0.009,0.621 -0.494,1.116 0.087,1.515 0.304,0.208 0.639,1.843 -0.042,1.635 0.319,0.097 -0.024,0.518 0.009,0.723 0.056,0.349 0.722,0.271 0.745,0.74 0.011,0.227 -0.204,0.365 -0.387,0.435 0.073,0.212 0.14,0.426 0.242,0.626 0.135,0.268 0.418,0.631 0.226,0.986 -0.063,0.116 -0.199,0.155 -0.162,0.318 0.093,0.401 -0.071,0.221 -0.238,0.625 -0.226,0.549 -0.79,0.944 -1.328,1.149 -1.244,0.476 -2.627,-0.109 -3.247,-1.257 -0.635,-1.174 -0.437,-2.652 -0.391,-3.932 0.059,-1.67 0.178,-3.337 0.191,-5.008 0.021,-2.656 0.182,-5.359 0.063,-8.021 -0.023,-1.542 -0.03,-3.083 -0.01,-4.625 0.01,-0.772 0.026,-1.544 0.051,-2.316 0.008,-0.258 0.234,-0.926 -0.215,-0.76 -1.242,0.459 -2.382,1.66 -3.384,2.486 -3.251,2.679 -6.487,5.372 -9.823,7.952 -1.061,0.821 -1.991,1.754 -2.928,2.709 -1.005,1.023 -2.191,1.875 -3.135,2.948 -0.888,1.009 -1.802,1.965 -2.724,2.942 -0.977,1.036 -1.883,2.286 -3.005,3.167 -0.44,0.324 -0.862,0.687 -1.23,1.091 -0.339,0.371 -1.182,0.447 -1.677,0.369 -1.112,-0.175 -2.138,-1.211 -2.033,-2.379 0.099,-1.097 1.02,-1.975 1.749,-2.713 1.077,-1.091 2.147,-2.181 3.284,-3.21 4.385,-3.97 8.946,-7.752 13.561,-11.447 2.362,-1.891 4.884,-3.561 7.305,-5.374 1.233,-0.923 2.437,-1.88 3.704,-2.758 0.734,-0.509 0.622,-1.6 0.575,-2.404 -0.038,-0.66 -1.225,0.234 -1.485,0.5 -0.229,0.234 -1.122,0.479 -1.432,0.545 -0.705,0.151 -1.555,0.36 -2.274,0.295 -0.686,-0.061 -2.154,-0.594 -2.399,-1.36 -0.212,-0.665 -0.523,-1.321 -0.488,-2.037 0.034,-0.681 0.109,-1.36 0.109,-2.042 0,-0.6 -0.195,-1.182 -0.174,-1.776 0.024,-0.697 0.182,-1.381 0.211,-2.08 0.054,-1.341 0.247,-2.754 0.835,-3.975 0.812,-2.201 2.311,-4.25 4.563,-5.117 1.011,-0.389 2.14,-0.216 1.885,1.091 -0.201,1.029 -0.912,1.537 -1.439,2.357 -0.023,0.25 -0.301,0.424 -0.426,0.618 -0.168,0.261 -0.278,0.552 -0.379,0.843 -0.179,0.52 -0.455,0.949 -0.557,1.492 -0.083,0.445 -0.331,0.853 -0.376,1.302 -0.058,0.587 0.04,1.163 -0.023,1.769 -0.122,1.185 -0.747,3.48 0.352,4.378 0.684,0.559 1.789,0.133 2.345,-0.397 0.728,-0.695 1.139,-1.76 1.187,-2.755 0.088,-1.679 0.565,-3.316 0.579,-5 0.014,-1.681 0.213,-3.362 0.302,-5.039 0.074,-1.378 0.495,-2.637 1.958,-3.028 1.431,-0.382 2.291,0.577 2.277,1.925 -0.025,2.339 -0.392,4.646 -0.536,6.991 -0.203,3.288 -0.529,6.486 -0.511,9.794 0.28,0.239 2.822,-1.682 3.121,-1.881 1.682,-1.116 3.389,-2.192 5.111,-3.246 2.628,-1.22 4.983,-2.938 7.57,-4.235 1.299,-0.665 2.538,-1.438 3.806,-2.159 0.361,-0.205 2.788,-1.274 2.035,-1.722 -0.996,-0.593 -0.859,-2.133 -0.773,-3.097 0.115,-1.282 0.038,-2.56 0.061,-3.838 0.021,-1.189 1.205,-5.251 -1.274,-4.578 -0.519,0.141 -0.88,0.47 -1.266,0.828 -0.354,0.329 -0.458,0.906 -1.038,0.974 -0.167,0.357 0.067,0.315 -0.325,0.677 0.111,0.312 -0.249,1.017 -0.324,1.349 -0.051,0.226 0.088,0.416 -0.137,0.538 -0.201,0.109 -0.199,0.187 -0.031,0.377 0.299,0.339 -0.322,0.258 -0.227,0.572 0.161,0.532 0.064,0.616 -0.141,1.088 -0.187,0.43 0.216,0.716 0.245,1.128 -0.001,-0.016 -0.35,-0.06 -0.35,-0.062 -0.083,0.527 -0.25,1.356 -0.075,1.87 0.055,0.161 0.221,0.381 0.12,0.561 -0.082,0.146 -0.214,0.348 -0.135,0.526 0.092,0.207 0.296,0.267 0.175,0.518 -0.074,0.155 -0.285,0.367 -0.227,0.561 0.074,0.248 0.015,0.475 0.046,0.725 0.026,0.207 -0.27,0.311 -0.313,0.5 -0.101,0.443 -0.091,0.575 -0.489,0.926 -0.272,0.24 -0.521,0.466 -0.848,0.632 -0.654,0.332 -1.665,0.583 -2.28,0.035 -0.806,-0.719 -0.426,-2.512 -0.353,-3.443 0.126,-1.613 0.16,-3.224 0.25,-4.838 0.125,-2.237 -0.3,-5.762 2.169,-6.894 0.921,-0.422 2.012,-0.479 2.997,-0.285 0.912,0.377 1.861,-0.812 2.363,-1.4 1.047,-1.227 4.156,-3.274 5.331,-1.024 0.225,0.43 0.267,0.927 0.372,1.394 0.057,0.254 0.132,0.504 0.246,0.739 -0.158,0.118 -0.332,0.262 -0.343,0.477 -0.012,0.232 0.485,1.81 0.267,1.954 -0.425,0.28 -0.204,0.575 -0.244,1.09 -0.038,0.492 -0.319,1.396 -0.018,1.838 0.17,0.25 -0.002,0.295 -0.057,0.576 -0.057,0.293 0.184,0.619 0.171,0.928 -0.022,0.503 0.143,1.391 -0.114,1.841 -0.019,0.335 0.435,0.741 0.235,0.957 -0.214,0.23 0.407,0.749 0.56,0.962 0.557,0.777 2.721,-0.669 3.248,-0.955 1.096,-0.594 2.384,-1.428 3.688,-1.334 1.316,0.094 1.633,0.43 2.166,1.639 -0.058,1.059 -1.054,2.227 -1.9,2.774 z"
       id="path7"
       inkscape:connector-curvature="0"
       style="fill:#df173b" /><g
       id="g9"><path
         d="m 308.5957,52.144531 0,4.253907 3.50782,0 0,-4.253907 -3.50782,0 z m -106.54882,8.304688 c -6.51301,0 -9.80402,3.578093 -12.16602,7.371093 l 0,-6.513671 -3.50781,0 0,36.501953 3.50781,0 0,-21.041016 c 0,-7.372 5.15302,-13.097656 11.66602,-13.097656 6.513,0 10.66406,4.652281 10.66406,12.238281 l 0,21.900391 3.50586,0 0,-21.25586 c 0,-8.159 5.36843,-12.882812 11.52343,-12.882812 6.728,0 10.80665,4.581125 10.80665,12.453125 l 0,21.685547 3.50781,0 0,-22.115235 c -0.001,-9.16 -5.3693,-15.24414 -14.0293,-15.24414 -6.871,0 -10.80597,3.792094 -13.16797,7.871093 -2.004,-4.221999 -5.94054,-7.871093 -12.31054,-7.871093 z m 60.89648,0 c -9.876,0 -17.32031,8.445109 -17.32031,19.037109 l 0,0.142578 c 0,11.38 8.30353,19.03711 17.89453,19.03711 7.014,0 11.37761,-2.863094 15.09961,-6.871094 l -2.43164,-2.146484 c -3.006,3.221 -6.87139,5.724609 -12.52539,5.724609 -7.157,0 -13.67046,-5.294766 -14.31446,-14.384766 l 30.27344,0 c 0.072,-0.573 0.0723,-0.78764 0.0723,-1.43164 0,-10.806 -6.51305,-19.107422 -16.74805,-19.107422 z m 72.76758,0 c -10.449,0 -18.60938,8.875375 -18.60938,19.109375 l 0,0.142578 c 0,10.234 8.08838,18.966797 18.60938,18.966797 6.728,0 11.16376,-3.006516 14.88476,-7.228516 l -2.43359,-2.146484 c -3.077,3.435 -7.08333,6.082031 -12.23633,6.082031 -8.374,0 -15.03125,-7.013406 -15.03125,-15.816406 l 0,-0.144532 c 0,-8.730999 6.44214,-15.673828 14.74414,-15.673828 5.44,0 9.01702,2.792672 12.16602,6.013672 l 2.50586,-2.576172 c -3.435,-3.579 -7.72861,-6.728515 -14.59961,-6.728515 z M 166.0293,60.734375 c -5.01,0 -8.94708,1.289391 -12.95508,3.150391 l 1.28906,3.078125 c 3.364,-1.718 7.01417,-2.935547 11.45117,-2.935547 7.515,0 12.02344,3.794015 12.02344,11.166015 l -12.0957,0 c -9.448,0 -15.95899,4.292907 -15.95899,11.878907 l 0,0.144531 c 0,7.587 7.30061,11.451172 14.09961,11.451172 6.942,0 11.45008,-3.43636 13.95508,-6.94336 l 0,6.083985 3.43555,0 0,-22.759766 c 0,-4.509 -1.28671,-7.872641 -3.72071,-10.30664 -2.648,-2.648001 -6.58543,-4.007813 -11.52343,-4.007813 z m 203.44922,0 c -5.01,0 -8.94708,1.289391 -12.95508,3.150391 l 1.28906,3.078125 c 3.364,-1.718 7.01417,-2.935547 11.45117,-2.935547 7.515,0 12.02344,3.794015 12.02344,11.166015 l -12.0957,0 c -9.448,0 -15.95899,4.292907 -15.95899,11.878907 l 0,0.144531 c 0,7.587 7.29866,11.451172 14.09766,11.451172 6.942,0 11.45203,-3.43636 13.95703,-6.94336 l 0,6.083985 3.43555,0 0,-22.759766 c 0,-4.508 -1.28771,-7.87264 -3.72071,-10.30664 -2.648,-2.648001 -6.58443,-4.007813 -11.52343,-4.007813 z m -65.95704,0.002 c -7.228,-0.287 -13.30982,4.437219 -16.17382,10.949219 l 0,-10.376953 -3.50782,0 0,36.5 3.50782,0 0,-14.958985 c 0,-11.88 7.3714,-18.25 15.8164,-18.25 l 0.35742,0 0,-3.863281 z m 5.07422,0.572266 0,36.5 3.50782,0 0,-36.5 -3.50782,0 z m -45.79492,2.361328 c 8.374,0 12.59566,6.799875 13.09766,14.171875 l -26.55274,0 c 0.644,-8.087 6.22708,-14.171875 13.45508,-14.171875 z m -97.27344,14.671875 12.38282,0 0,5.796875 -0.002,0 c 0,6.656 -6.3695,11.236328 -13.8125,11.236328 -5.582,0 -10.59179,-3.077047 -10.59179,-8.373047 l 0,-0.144531 c 0,-5.082 4.29343,-8.515625 12.02343,-8.515625 z m 203.45118,0 12.38086,0 0,5.796875 c 0,6.656 -6.3695,11.236328 -13.8125,11.236328 -5.582,0 -10.59376,-3.077047 -10.59376,-8.373047 l 0,-0.144531 c 0,-5.082 4.2954,-8.515625 12.0254,-8.515625 z"
         id="rect11"
         inkscape:connector-curvature="0" /></g></g></svg>